<ttFont>
    <TTGlyph name=".notdef" xMin="65" yMin="-99" xMax="1938" yMax="1309">
      <contour>
        <pt x="1165" y="532" on="1"/>
        <pt x="1356" y="385" on="1"/>
        <pt x="1364" y="387" on="0"/>
        <pt x="1388" y="417" on="1"/>
        <pt x="1412" y="448" on="0"/>
        <pt x="1411" y="455" on="1"/>
        <pt x="1397" y="468" on="0"/>
        <pt x="1333" y="521" on="1"/>
        <pt x="1301" y="548" on="0"/>
        <pt x="1249" y="594" on="0"/>
        <pt x="1227" y="614" on="1"/>
        <pt x="1286" y="693" on="1"/>
        <pt x="1320" y="738" on="0"/>
        <pt x="1365" y="796" on="0"/>
        <pt x="1376" y="813" on="1"/>
        <pt x="1329" y="853" on="0"/>
        <pt x="1300" y="866" on="1"/>
        <pt x="1149" y="676" on="1"/>
        <pt x="1083" y="728" on="0"/>
        <pt x="985" y="802" on="0"/>
        <pt x="950" y="825" on="1"/>
        <pt x="909" y="778" on="0"/>
        <pt x="897" y="745" on="1"/>
        <pt x="1083" y="598" on="1"/>
        <pt x="936" y="408" on="1"/>
        <pt x="937" y="398" on="0"/>
        <pt x="967" y="374" on="1"/>
        <pt x="998" y="350" on="0"/>
        <pt x="1006" y="352" on="1"/>
      </contour>
      <contour>
        <pt x="1935" y="1161" on="1"/>
        <pt x="1804" y="1026" on="1"/>
        <pt x="1802" y="1028" on="1"/>
        <pt x="1798" y="545" on="0"/>
        <pt x="1309" y="211" on="1"/>
        <pt x="1309" y="206" on="0"/>
        <pt x="1306" y="189" on="0"/>
        <pt x="1298" y="173" on="0"/>
        <pt x="1284" y="162" on="0"/>
        <pt x="1272" y="162" on="1"/>
        <pt x="1247" y="137" on="1"/>
        <pt x="1364" y="96" on="0"/>
        <pt x="1442" y="59" on="1"/>
        <pt x="1444" y="59" on="0"/>
        <pt x="1458" y="59" on="0"/>
        <pt x="1469" y="60" on="1"/>
        <pt x="1491" y="61" on="0"/>
        <pt x="1503" y="60" on="1"/>
        <pt x="1523" y="59" on="0"/>
        <pt x="1587" y="43" on="0"/>
        <pt x="1612" y="23" on="1"/>
        <pt x="1612" y="15" on="0"/>
        <pt x="1609" y="13" on="0"/>
        <pt x="1604" y="8" on="1"/>
        <pt x="1591" y="14" on="0"/>
        <pt x="1573" y="23" on="0"/>
        <pt x="1566" y="25" on="1"/>
        <pt x="1553" y="31" on="0"/>
        <pt x="1509" y="38" on="0"/>
        <pt x="1485" y="35" on="1"/>
        <pt x="1533" y="8" on="0"/>
        <pt x="1553" y="-16" on="1"/>
        <pt x="1555" y="-18" on="0"/>
        <pt x="1559" y="-24" on="0"/>
        <pt x="1561" y="-27" on="1"/>
        <pt x="1558" y="-36" on="0"/>
        <pt x="1542" y="-39" on="1"/>
        <pt x="1474" y="29" on="0"/>
        <pt x="1411" y="27" on="1"/>
        <pt x="1398" y="27" on="0"/>
        <pt x="1379" y="26" on="0"/>
        <pt x="1367" y="22" on="1"/>
        <pt x="1352" y="17" on="1"/>
        <pt x="1330" y="8" on="1"/>
        <pt x="1322" y="4" on="0"/>
        <pt x="1310" y="-1" on="0"/>
        <pt x="1307" y="-2" on="1"/>
        <pt x="1302" y="3" on="0"/>
        <pt x="1296" y="-1" on="0"/>
        <pt x="1294" y="10" on="1"/>
        <pt x="1304" y="21" on="0"/>
        <pt x="1325" y="35" on="0"/>
        <pt x="1332" y="37" on="1"/>
        <pt x="1339" y="40" on="0"/>
        <pt x="1372" y="50" on="0"/>
        <pt x="1382" y="53" on="1"/>
        <pt x="1363" y="63" on="0"/>
        <pt x="1322" y="82" on="0"/>
        <pt x="1299" y="90" on="1"/>
        <pt x="1253" y="107" on="0"/>
        <pt x="1204" y="124" on="0"/>
        <pt x="1204" y="131" on="1"/>
        <pt x="1204" y="144" on="0"/>
        <pt x="1227" y="162" on="1"/>
        <pt x="1212" y="162" on="0"/>
        <pt x="1191" y="190" on="0"/>
        <pt x="1188" y="201" on="1"/>
        <pt x="1133" y="201" on="1"/>
        <pt x="1102" y="201" on="0"/>
        <pt x="1046" y="205" on="0"/>
        <pt x="1020" y="209" on="1"/>
        <pt x="1000" y="154" on="0"/>
        <pt x="965" y="162" on="1"/>
        <pt x="945" y="152" on="0"/>
        <pt x="934" y="141" on="1"/>
        <pt x="939" y="137" on="0"/>
        <pt x="960" y="125" on="0"/>
        <pt x="974" y="115" on="1"/>
        <pt x="989" y="106" on="0"/>
        <pt x="1012" y="91" on="0"/>
        <pt x="1020" y="86" on="1"/>
        <pt x="1037" y="76" on="0"/>
        <pt x="1086" y="41" on="0"/>
        <pt x="1106" y="25" on="1"/>
        <pt x="1140" y="18" on="1"/>
        <pt x="1153" y="16" on="0"/>
        <pt x="1173" y="12" on="0"/>
        <pt x="1180" y="10" on="1"/>
        <pt x="1194" y="6" on="0"/>
        <pt x="1237" y="-21" on="0"/>
        <pt x="1253" y="-43" on="1"/>
        <pt x="1253" y="-50" on="0"/>
        <pt x="1248" y="-52" on="0"/>
        <pt x="1243" y="-57" on="1"/>
        <pt x="1217" y="-34" on="0"/>
        <pt x="1199" y="-24" on="1"/>
        <pt x="1181" y="-16" on="0"/>
        <pt x="1143" y="-10" on="1"/>
        <pt x="1185" y="-38" on="0"/>
        <pt x="1198" y="-90" on="1"/>
        <pt x="1194" y="-99" on="0"/>
        <pt x="1182" y="-98" on="1"/>
        <pt x="1130" y="-13" on="0"/>
        <pt x="1073" y="-2" on="1"/>
        <pt x="1008" y="7" on="0"/>
        <pt x="930" y="-12" on="1"/>
        <pt x="924" y="-3" on="0"/>
        <pt x="924" y="4" on="1"/>
        <pt x="937" y="12" on="0"/>
        <pt x="963" y="22" on="0"/>
        <pt x="978" y="24" on="1"/>
        <pt x="1002" y="27" on="1"/>
        <pt x="1007" y="28" on="0"/>
        <pt x="1012" y="28" on="0"/>
        <pt x="1014" y="28" on="1"/>
        <pt x="1017" y="28" on="0"/>
        <pt x="1038" y="29" on="0"/>
        <pt x="1040" y="29" on="1"/>
        <pt x="1026" y="40" on="0"/>
        <pt x="992" y="64" on="0"/>
        <pt x="972" y="77" on="1"/>
        <pt x="930" y="104" on="0"/>
        <pt x="887" y="135" on="0"/>
        <pt x="887" y="145" on="1"/>
        <pt x="885" y="154" on="0"/>
        <pt x="904" y="166" on="0"/>
        <pt x="913" y="174" on="1"/>
        <pt x="894" y="193" on="0"/>
        <pt x="899" y="240" on="1"/>
        <pt x="817" y="285" on="0"/>
        <pt x="678" y="403" on="0"/>
        <pt x="624" y="469" on="1"/>
        <pt x="598" y="502" on="0"/>
        <pt x="555" y="559" on="0"/>
        <pt x="538" y="584" on="1"/>
        <pt x="521" y="609" on="0"/>
        <pt x="487" y="663" on="0"/>
        <pt x="469" y="693" on="1"/>
        <pt x="467" y="698" on="0"/>
        <pt x="463" y="705" on="0"/>
        <pt x="461" y="707" on="1"/>
        <pt x="456" y="709" on="0"/>
        <pt x="432" y="716" on="0"/>
        <pt x="413" y="723" on="1"/>
        <pt x="363" y="740" on="1"/>
        <pt x="318" y="755" on="1"/>
        <pt x="270" y="773" on="1"/>
        <pt x="263" y="776" on="0"/>
        <pt x="242" y="785" on="0"/>
        <pt x="228" y="790" on="1"/>
        <pt x="214" y="795" on="0"/>
        <pt x="192" y="805" on="0"/>
        <pt x="184" y="809" on="1"/>
        <pt x="159" y="823" on="0"/>
        <pt x="99" y="855" on="0"/>
        <pt x="80" y="872" on="1"/>
        <pt x="65" y="885" on="0"/>
        <pt x="73" y="918" on="0"/>
        <pt x="92" y="918" on="1"/>
        <pt x="616" y="872" on="1"/>
        <pt x="776" y="904" on="1"/>
        <pt x="913" y="930" on="1"/>
        <pt x="1023" y="952" on="1"/>
        <pt x="1115" y="972" on="1"/>
        <pt x="1149" y="981" on="0"/>
        <pt x="1220" y="1002" on="0"/>
        <pt x="1240" y="1013" on="1"/>
        <pt x="1261" y="1024" on="0"/>
        <pt x="1296" y="1050" on="0"/>
        <pt x="1307" y="1067" on="1"/>
        <pt x="1337" y="1121" on="0"/>
        <pt x="1399" y="1197" on="0"/>
        <pt x="1466" y="1246" on="0"/>
        <pt x="1541" y="1268" on="0"/>
        <pt x="1585" y="1268" on="1"/>
        <pt x="1637" y="1268" on="0"/>
        <pt x="1681" y="1253" on="1"/>
        <pt x="1681" y="1255" on="1"/>
        <pt x="1833" y="1309" on="1"/>
        <pt x="1839" y="1309" on="0"/>
        <pt x="1839" y="1305" on="1"/>
        <pt x="1839" y="1303" on="1"/>
        <pt x="1788" y="1161" on="1"/>
        <pt x="1931" y="1167" on="1"/>
        <pt x="1938" y="1167" on="0"/>
      </contour>
    </TTGlyph>
    <TTGlyph name="A" xMin="13" yMin="0" xMax="1304" yMax="1206">
      <contour>
        <pt x="1304" y="0" on="1"/>
        <pt x="806" y="0" on="1"/>
        <pt x="806" y="141" on="1"/>
        <pt x="935" y="141" on="1"/>
        <pt x="871" y="328" on="1"/>
        <pt x="429" y="328" on="1"/>
        <pt x="359" y="141" on="1"/>
        <pt x="489" y="141" on="1"/>
        <pt x="489" y="0" on="1"/>
        <pt x="13" y="0" on="1"/>
        <pt x="13" y="141" on="1"/>
        <pt x="208" y="141" on="1"/>
        <pt x="548" y="1065" on="1"/>
        <pt x="341" y="1065" on="1"/>
        <pt x="341" y="1206" on="1"/>
        <pt x="740" y="1206" on="1"/>
        <pt x="1109" y="141" on="1"/>
        <pt x="1304" y="141" on="1"/>
      </contour>
      <contour>
        <pt x="480" y="469" on="1"/>
        <pt x="822" y="469" on="1"/>
        <pt x="659" y="999" on="1"/>
      </contour>
    </TTGlyph>
    <TTGlyph name="AE" xMin="13" yMin="0" xMax="1770" yMax="1206">
      <contour>
        <pt x="769" y="141" on="1"/>
        <pt x="963" y="141" on="1"/>
        <pt x="963" y="328" on="1"/>
        <pt x="500" y="328" on="1"/>
        <pt x="384" y="141" on="1"/>
        <pt x="504" y="141" on="1"/>
        <pt x="504" y="0" on="1"/>
        <pt x="13" y="0" on="1"/>
        <pt x="13" y="141" on="1"/>
        <pt x="218" y="141" on="1"/>
        <pt x="803" y="1065" on="1"/>
        <pt x="592" y="1065" on="1"/>
        <pt x="592" y="1206" on="1"/>
        <pt x="1623" y="1206" on="1"/>
        <pt x="1729" y="891" on="1"/>
        <pt x="1594" y="846" on="1"/>
        <pt x="1512" y="1065" on="1"/>
        <pt x="1129" y="1065" on="1"/>
        <pt x="1129" y="674" on="1"/>
        <pt x="1457" y="674" on="1"/>
        <pt x="1457" y="532" on="1"/>
        <pt x="1127" y="532" on="1"/>
        <pt x="1127" y="141" on="1"/>
        <pt x="1553" y="141" on="1"/>
        <pt x="1635" y="360" on="1"/>
        <pt x="1770" y="315" on="1"/>
        <pt x="1664" y="0" on="1"/>
        <pt x="769" y="0" on="1"/>
      </contour>
      <contour>
        <pt x="961" y="1065" on="1"/>
        <pt x="588" y="469" on="1"/>
        <pt x="963" y="469" on="1"/>
        <pt x="965" y="1065" on="1"/>
      </contour>
    </TTGlyph>
    <TTGlyph name="Aacute" xMin="13" yMin="0" xMax="1304" yMax="1552">
      <component glyphName="A" x="0" y="0" flags="0x204"/>
      <component glyphName="uniF6C9" x="493" y="0" flags="0x4"/>
    </TTGlyph>
    <TTGlyph name="Acircumflex" xMin="13" yMin="0" xMax="1304" yMax="1593">
      <component glyphName="A" x="0" y="0" flags="0x204"/>
      <component glyphName="circumflex" x="312" y="307" flags="0x4"/>
    </TTGlyph>
    <TTGlyph name="Adieresis" xMin="13" yMin="0" xMax="1304" yMax="1544">
      <component glyphName="A" x="0" y="0" flags="0x204"/>
      <component glyphName="dieresis" x="300" y="317" flags="0x4"/>
    </TTGlyph>
    <TTGlyph name="Agrave" xMin="13" yMin="0" xMax="1304" yMax="1561">
      <component glyphName="A" x="0" y="0" flags="0x204"/>
      <component glyphName="uniF6CE" x="144" y="0" flags="0x4"/>
    </TTGlyph>
    <TTGlyph name="Aring" xMin="13" yMin="0" xMax="1304" yMax="1648">
      <component glyphName="A" x="0" y="0" flags="0x204"/>
      <component glyphName="ring" x="415" y="16" flags="0x4"/>
    </TTGlyph>
    <TTGlyph name="Atilde" xMin="13" yMin="0" xMax="1304" yMax="1531">
      <component glyphName="A" x="0" y="0" flags="0x204"/>
      <component glyphName="tilde" x="67" y="295" flags="0x4"/>
    </TTGlyph>
    <TTGlyph name="B" xMin="98" yMin="0" xMax="1110" yMax="1206">
      <contour>
        <pt x="457" y="1065" on="1"/>
        <pt x="457" y="672" on="1"/>
        <pt x="713" y="672" on="1"/>
        <pt x="734" y="672" on="0"/>
        <pt x="797" y="689" on="0"/>
        <pt x="856" y="736" on="0"/>
        <pt x="897" y="821" on="0"/>
        <pt x="897" y="889" on="1"/>
        <pt x="897" y="956" on="0"/>
        <pt x="855" y="1027" on="0"/>
        <pt x="785" y="1060" on="0"/>
        <pt x="693" y="1065" on="0"/>
        <pt x="643" y="1065" on="1"/>
      </contour>
      <contour>
        <pt x="457" y="549" on="1"/>
        <pt x="455" y="143" on="1"/>
        <pt x="698" y="143" on="1"/>
        <pt x="811" y="143" on="0"/>
        <pt x="936" y="247" on="0"/>
        <pt x="936" y="356" on="1"/>
        <pt x="936" y="453" on="0"/>
        <pt x="822" y="549" on="0"/>
        <pt x="711" y="549" on="1"/>
      </contour>
      <contour>
        <pt x="620" y="1206" on="1"/>
        <pt x="736" y="1206" on="0"/>
        <pt x="906" y="1172" on="0"/>
        <pt x="1017" y="1097" on="0"/>
        <pt x="1071" y="977" on="0"/>
        <pt x="1071" y="891" on="1"/>
        <pt x="1071" y="848" on="0"/>
        <pt x="1045" y="766" on="0"/>
        <pt x="1003" y="695" on="0"/>
        <pt x="951" y="640" on="0"/>
        <pt x="926" y="623" on="1"/>
        <pt x="967" y="607" on="0"/>
        <pt x="1035" y="551" on="0"/>
        <pt x="1083" y="480" on="0"/>
        <pt x="1110" y="398" on="0"/>
        <pt x="1110" y="356" on="1"/>
        <pt x="1110" y="281" on="0"/>
        <pt x="1069" y="151" on="0"/>
        <pt x="980" y="55" on="0"/>
        <pt x="843" y="0" on="0"/>
        <pt x="747" y="0" on="1"/>
        <pt x="98" y="0" on="1"/>
        <pt x="98" y="141" on="1"/>
        <pt x="293" y="141" on="1"/>
        <pt x="293" y="1065" on="1"/>
        <pt x="98" y="1065" on="1"/>
        <pt x="98" y="1206" on="1"/>
      </contour>
    </TTGlyph>
    <TTGlyph name="C" xMin="109" yMin="-31" xMax="1113" yMax="1238">
      <contour>
        <pt x="1109" y="283" on="1"/>
        <pt x="1058" y="45" on="1"/>
        <pt x="1014" y="24" on="0"/>
        <pt x="958" y="7" on="1"/>
        <pt x="910" y="-7" on="0"/>
        <pt x="775" y="-31" on="0"/>
        <pt x="692" y="-31" on="1"/>
        <pt x="560" y="-31" on="0"/>
        <pt x="345" y="58" on="0"/>
        <pt x="194" y="223" on="0"/>
        <pt x="111" y="458" on="0"/>
        <pt x="110" y="604" on="1"/>
        <pt x="109" y="748" on="0"/>
        <pt x="191" y="983" on="0"/>
        <pt x="343" y="1148" on="0"/>
        <pt x="558" y="1238" on="0"/>
        <pt x="690" y="1237" on="1"/>
        <pt x="791" y="1236" on="0"/>
        <pt x="934" y="1207" on="0"/>
        <pt x="1025" y="1171" on="0"/>
        <pt x="1067" y="1142" on="0"/>
        <pt x="1068" y="1141" on="1"/>
        <pt x="1113" y="903" on="1"/>
        <pt x="972" y="872" on="1"/>
        <pt x="931" y="1049" on="1"/>
        <pt x="900" y="1066" on="0"/>
        <pt x="783" y="1098" on="0"/>
        <pt x="692" y="1098" on="1"/>
        <pt x="593" y="1098" on="0"/>
        <pt x="441" y="1029" on="0"/>
        <pt x="338" y="901" on="0"/>
        <pt x="284" y="718" on="0"/>
        <pt x="284" y="604" on="1"/>
        <pt x="284" y="487" on="0"/>
        <pt x="339" y="304" on="0"/>
        <pt x="444" y="176" on="0"/>
        <pt x="595" y="109" on="0"/>
        <pt x="692" y="109" on="1"/>
        <pt x="768" y="109" on="0"/>
        <pt x="893" y="138" on="0"/>
        <pt x="931" y="152" on="1"/>
        <pt x="970" y="315" on="1"/>
      </contour>
    </TTGlyph>
    <TTGlyph name="Ccedilla" xMin="111" yMin="-457" xMax="1115" yMax="1238">
      <contour>
        <pt x="1111" y="283" on="1"/>
        <pt x="1060" y="45" on="1"/>
        <pt x="1016" y="24" on="0"/>
        <pt x="960" y="7" on="1"/>
        <pt x="912" y="-7" on="0"/>
        <pt x="777" y="-31" on="0"/>
        <pt x="694" y="-31" on="1"/>
        <pt x="684" y="-31" on="0"/>
        <pt x="674" y="-31" on="0"/>
        <pt x="659" y="-29" on="1"/>
        <pt x="659" y="-139" on="1"/>
        <pt x="667" y="-139" on="1"/>
        <pt x="775" y="-139" on="0"/>
        <pt x="892" y="-213" on="0"/>
        <pt x="892" y="-295" on="1"/>
        <pt x="892" y="-338" on="0"/>
        <pt x="855" y="-400" on="0"/>
        <pt x="793" y="-439" on="0"/>
        <pt x="710" y="-457" on="0"/>
        <pt x="665" y="-457" on="1"/>
        <pt x="621" y="-457" on="0"/>
        <pt x="547" y="-437" on="0"/>
        <pt x="489" y="-411" on="0"/>
        <pt x="450" y="-385" on="0"/>
        <pt x="442" y="-379" on="1"/>
        <pt x="491" y="-305" on="1"/>
        <pt x="514" y="-322" on="0"/>
        <pt x="542" y="-334" on="1"/>
        <pt x="565" y="-345" on="0"/>
        <pt x="628" y="-362" on="0"/>
        <pt x="663" y="-362" on="1"/>
        <pt x="720" y="-362" on="0"/>
        <pt x="771" y="-323" on="0"/>
        <pt x="771" y="-295" on="1"/>
        <pt x="771" y="-280" on="0"/>
        <pt x="762" y="-256" on="0"/>
        <pt x="735" y="-239" on="0"/>
        <pt x="683" y="-229" on="0"/>
        <pt x="640" y="-229" on="1"/>
        <pt x="560" y="-229" on="1"/>
        <pt x="560" y="-16" on="1"/>
        <pt x="456" y="4" on="0"/>
        <pt x="291" y="108" on="0"/>
        <pt x="175" y="267" on="0"/>
        <pt x="113" y="477" on="0"/>
        <pt x="112" y="604" on="1"/>
        <pt x="111" y="748" on="0"/>
        <pt x="193" y="983" on="0"/>
        <pt x="345" y="1148" on="0"/>
        <pt x="560" y="1238" on="0"/>
        <pt x="692" y="1237" on="1"/>
        <pt x="793" y="1236" on="0"/>
        <pt x="936" y="1207" on="0"/>
        <pt x="1027" y="1171" on="0"/>
        <pt x="1069" y="1142" on="0"/>
        <pt x="1070" y="1141" on="1"/>
        <pt x="1115" y="903" on="1"/>
        <pt x="974" y="872" on="1"/>
        <pt x="933" y="1049" on="1"/>
        <pt x="902" y="1066" on="0"/>
        <pt x="785" y="1098" on="0"/>
        <pt x="694" y="1098" on="1"/>
        <pt x="595" y="1098" on="0"/>
        <pt x="443" y="1029" on="0"/>
        <pt x="340" y="901" on="0"/>
        <pt x="286" y="718" on="0"/>
        <pt x="286" y="604" on="1"/>
        <pt x="286" y="487" on="0"/>
        <pt x="341" y="304" on="0"/>
        <pt x="446" y="176" on="0"/>
        <pt x="597" y="109" on="0"/>
        <pt x="694" y="109" on="1"/>
        <pt x="770" y="109" on="0"/>
        <pt x="895" y="138" on="0"/>
        <pt x="933" y="152" on="1"/>
        <pt x="972" y="315" on="1"/>
      </contour>
    </TTGlyph>
    <TTGlyph name="D" xMin="98" yMin="0" xMax="1263" yMax="1206">
      <contour>
        <pt x="643" y="1206" on="1"/>
        <pt x="781" y="1206" on="0"/>
        <pt x="1010" y="1145" on="0"/>
        <pt x="1173" y="1001" on="0"/>
        <pt x="1263" y="762" on="0"/>
        <pt x="1263" y="584" on="1"/>
        <pt x="1263" y="449" on="0"/>
        <pt x="1170" y="232" on="0"/>
        <pt x="1007" y="81" on="0"/>
        <pt x="786" y="0" on="0"/>
        <pt x="659" y="0" on="1"/>
        <pt x="98" y="0" on="1"/>
        <pt x="98" y="141" on="1"/>
        <pt x="293" y="141" on="1"/>
        <pt x="293" y="1065" on="1"/>
        <pt x="98" y="1065" on="1"/>
        <pt x="98" y="1206" on="1"/>
      </contour>
      <contour>
        <pt x="457" y="141" on="1"/>
        <pt x="622" y="141" on="1"/>
        <pt x="854" y="141" on="0"/>
        <pt x="1089" y="366" on="0"/>
        <pt x="1089" y="584" on="1"/>
        <pt x="1089" y="732" on="0"/>
        <pt x="1030" y="919" on="0"/>
        <pt x="917" y="1026" on="0"/>
        <pt x="751" y="1065" on="0"/>
        <pt x="643" y="1065" on="1"/>
        <pt x="457" y="1065" on="1"/>
      </contour>
    </TTGlyph>
    <TTGlyph name="E" xMin="97" yMin="0" xMax="1154" yMax="1206">
      <contour>
        <pt x="1154" y="315" on="1"/>
        <pt x="1048" y="0" on="1"/>
        <pt x="97" y="0" on="1"/>
        <pt x="97" y="141" on="1"/>
        <pt x="292" y="141" on="1"/>
        <pt x="294" y="1065" on="1"/>
        <pt x="99" y="1065" on="1"/>
        <pt x="99" y="1206" on="1"/>
        <pt x="1007" y="1206" on="1"/>
        <pt x="1113" y="891" on="1"/>
        <pt x="978" y="846" on="1"/>
        <pt x="896" y="1065" on="1"/>
        <pt x="458" y="1065" on="1"/>
        <pt x="458" y="694" on="1"/>
        <pt x="841" y="694" on="1"/>
        <pt x="841" y="553" on="1"/>
        <pt x="458" y="553" on="1"/>
        <pt x="456" y="141" on="1"/>
        <pt x="937" y="141" on="1"/>
        <pt x="1019" y="360" on="1"/>
      </contour>
    </TTGlyph>
    <TTGlyph name="Eacute" xMin="97" yMin="0" xMax="1154" yMax="1552">
      <component glyphName="E" x="0" y="0" flags="0x204"/>
      <component glyphName="uniF6C9" x="325" y="0" flags="0x4"/>
    </TTGlyph>
    <TTGlyph name="Ecircumflex" xMin="97" yMin="0" xMax="1154" yMax="1593">
      <component glyphName="circumflex" x="263" y="307" flags="0x4"/>
      <component glyphName="E" x="0" y="0" flags="0x4"/>
    </TTGlyph>
    <TTGlyph name="Edieresis" xMin="97" yMin="0" xMax="1154" yMax="1544">
      <component glyphName="E" x="0" y="0" flags="0x204"/>
      <component glyphName="dieresis" x="259" y="317" flags="0x4"/>
    </TTGlyph>
    <TTGlyph name="Egrave" xMin="97" yMin="0" xMax="1154" yMax="1561">
      <component glyphName="E" x="0" y="0" flags="0x204"/>
      <component glyphName="uniF6CE" x="48" y="0" flags="0x4"/>
    </TTGlyph>
    <TTGlyph name="Eth" xMin="102" yMin="0" xMax="1267" yMax="1206">
      <contour>
        <pt x="102" y="688" on="1"/>
        <pt x="297" y="688" on="1"/>
        <pt x="297" y="1065" on="1"/>
        <pt x="102" y="1065" on="1"/>
        <pt x="102" y="1206" on="1"/>
        <pt x="647" y="1206" on="1"/>
        <pt x="785" y="1206" on="0"/>
        <pt x="1014" y="1145" on="0"/>
        <pt x="1177" y="1001" on="0"/>
        <pt x="1267" y="762" on="0"/>
        <pt x="1267" y="584" on="1"/>
        <pt x="1267" y="449" on="0"/>
        <pt x="1174" y="232" on="0"/>
        <pt x="1011" y="81" on="0"/>
        <pt x="790" y="0" on="0"/>
        <pt x="663" y="0" on="1"/>
        <pt x="102" y="0" on="1"/>
        <pt x="102" y="141" on="1"/>
        <pt x="297" y="141" on="1"/>
        <pt x="297" y="557" on="1"/>
        <pt x="102" y="557" on="1"/>
      </contour>
      <contour>
        <pt x="461" y="688" on="1"/>
        <pt x="692" y="688" on="1"/>
        <pt x="692" y="557" on="1"/>
        <pt x="461" y="557" on="1"/>
        <pt x="461" y="141" on="1"/>
        <pt x="626" y="141" on="1"/>
        <pt x="858" y="141" on="0"/>
        <pt x="1093" y="366" on="0"/>
        <pt x="1093" y="584" on="1"/>
        <pt x="1093" y="732" on="0"/>
        <pt x="1034" y="919" on="0"/>
        <pt x="921" y="1026" on="0"/>
        <pt x="755" y="1065" on="0"/>
        <pt x="647" y="1065" on="1"/>
        <pt x="461" y="1065" on="1"/>
      </contour>
    </TTGlyph>
    <TTGlyph name="Euro" xMin="79" yMin="-31" xMax="1314" yMax="1237">
      <contour>
        <pt x="1310" y="283" on="1"/>
        <pt x="1259" y="45" on="1"/>
        <pt x="1232" y="32" on="0"/>
        <pt x="1161" y="5" on="0"/>
        <pt x="1071" y="-17" on="0"/>
        <pt x="960" y="-31" on="0"/>
        <pt x="892" y="-31" on="1"/>
        <pt x="785" y="-31" on="0"/>
        <pt x="605" y="27" on="0"/>
        <pt x="463" y="137" on="0"/>
        <pt x="363" y="294" on="0"/>
        <pt x="337" y="393" on="1"/>
        <pt x="79" y="393" on="1"/>
        <pt x="114" y="535" on="1"/>
        <pt x="311" y="535" on="1"/>
        <pt x="309" y="555" on="0"/>
        <pt x="307" y="595" on="0"/>
        <pt x="307" y="657" on="1"/>
        <pt x="79" y="657" on="1"/>
        <pt x="112" y="799" on="1"/>
        <pt x="331" y="799" on="1"/>
        <pt x="355" y="902" on="0"/>
        <pt x="455" y="1064" on="0"/>
        <pt x="598" y="1177" on="0"/>
        <pt x="782" y="1237" on="0"/>
        <pt x="890" y="1237" on="1"/>
        <pt x="992" y="1236" on="0"/>
        <pt x="1135" y="1206" on="0"/>
        <pt x="1226" y="1171" on="0"/>
        <pt x="1268" y="1142" on="0"/>
        <pt x="1269" y="1141" on="1"/>
        <pt x="1314" y="903" on="1"/>
        <pt x="1173" y="872" on="1"/>
        <pt x="1132" y="1049" on="1"/>
        <pt x="1101" y="1066" on="0"/>
        <pt x="983" y="1098" on="0"/>
        <pt x="892" y="1098" on="1"/>
        <pt x="740" y="1098" on="0"/>
        <pt x="546" y="942" on="0"/>
        <pt x="507" y="799" on="1"/>
        <pt x="1011" y="799" on="1"/>
        <pt x="979" y="657" on="1"/>
        <pt x="485" y="657" on="1"/>
        <pt x="485" y="587" on="0"/>
        <pt x="485" y="560" on="0"/>
        <pt x="487" y="535" on="1"/>
        <pt x="950" y="535" on="1"/>
        <pt x="917" y="393" on="1"/>
        <pt x="514" y="393" on="1"/>
        <pt x="554" y="255" on="0"/>
        <pt x="746" y="109" on="0"/>
        <pt x="892" y="109" on="1"/>
        <pt x="969" y="109" on="0"/>
        <pt x="1094" y="138" on="0"/>
        <pt x="1132" y="152" on="1"/>
        <pt x="1171" y="315" on="1"/>
      </contour>
    </TTGlyph>
    <TTGlyph name="F" xMin="97" yMin="0" xMax="1111" yMax="1206">
      <contour>
        <pt x="976" y="846" on="1"/>
        <pt x="894" y="1065" on="1"/>
        <pt x="456" y="1065" on="1"/>
        <pt x="456" y="682" on="1"/>
        <pt x="794" y="682" on="1"/>
        <pt x="794" y="541" on="1"/>
        <pt x="454" y="541" on="1"/>
        <pt x="454" y="141" on="1"/>
        <pt x="704" y="141" on="1"/>
        <pt x="704" y="0" on="1"/>
        <pt x="97" y="0" on="1"/>
        <pt x="97" y="141" on="1"/>
        <pt x="292" y="141" on="1"/>
        <pt x="294" y="1065" on="1"/>
        <pt x="99" y="1065" on="1"/>
        <pt x="99" y="1206" on="1"/>
        <pt x="1005" y="1206" on="1"/>
        <pt x="1111" y="891" on="1"/>
      </contour>
    </TTGlyph>
    <TTGlyph name="G" xMin="110" yMin="-31" xMax="1120" yMax="1237">
      <contour>
        <pt x="694" y="594" on="1"/>
        <pt x="1109" y="594" on="1"/>
        <pt x="1109" y="129" on="1"/>
        <pt x="1109" y="128" on="0"/>
        <pt x="1054" y="78" on="0"/>
        <pt x="941" y="18" on="0"/>
        <pt x="771" y="-31" on="0"/>
        <pt x="657" y="-31" on="1"/>
        <pt x="553" y="-31" on="0"/>
        <pt x="356" y="46" on="0"/>
        <pt x="203" y="204" on="0"/>
        <pt x="110" y="443" on="0"/>
        <pt x="110" y="604" on="1"/>
        <pt x="110" y="750" on="0"/>
        <pt x="193" y="984" on="0"/>
        <pt x="338" y="1149" on="0"/>
        <pt x="538" y="1237" on="0"/>
        <pt x="655" y="1237" on="1"/>
        <pt x="757" y="1237" on="0"/>
        <pt x="912" y="1207" on="0"/>
        <pt x="966" y="1189" on="1"/>
        <pt x="1028" y="1168" on="0"/>
        <pt x="1074" y="1141" on="1"/>
        <pt x="1120" y="903" on="1"/>
        <pt x="978" y="872" on="1"/>
        <pt x="937" y="1047" on="1"/>
        <pt x="920" y="1054" on="0"/>
        <pt x="870" y="1072" on="0"/>
        <pt x="801" y="1088" on="0"/>
        <pt x="712" y="1098" on="0"/>
        <pt x="657" y="1098" on="1"/>
        <pt x="568" y="1098" on="0"/>
        <pt x="430" y="1033" on="0"/>
        <pt x="334" y="907" on="0"/>
        <pt x="284" y="723" on="0"/>
        <pt x="284" y="604" on="1"/>
        <pt x="284" y="470" on="0"/>
        <pt x="342" y="281" on="0"/>
        <pt x="443" y="163" on="0"/>
        <pt x="579" y="109" on="0"/>
        <pt x="657" y="109" on="1"/>
        <pt x="722" y="109" on="0"/>
        <pt x="832" y="133" on="0"/>
        <pt x="911" y="163" on="0"/>
        <pt x="956" y="188" on="0"/>
        <pt x="956" y="190" on="1"/>
        <pt x="956" y="453" on="1"/>
        <pt x="694" y="453" on="1"/>
      </contour>
    </TTGlyph>
    <TTGlyph name="H" xMin="97" yMin="0" xMax="1406" yMax="1206">
      <contour>
        <pt x="915" y="141" on="1"/>
        <pt x="1046" y="141" on="1"/>
        <pt x="1046" y="547" on="1"/>
        <pt x="456" y="547" on="1"/>
        <pt x="454" y="141" on="1"/>
        <pt x="585" y="141" on="1"/>
        <pt x="585" y="0" on="1"/>
        <pt x="97" y="0" on="1"/>
        <pt x="97" y="141" on="1"/>
        <pt x="292" y="141" on="1"/>
        <pt x="294" y="1065" on="1"/>
        <pt x="99" y="1065" on="1"/>
        <pt x="99" y="1206" on="1"/>
        <pt x="589" y="1206" on="1"/>
        <pt x="589" y="1065" on="1"/>
        <pt x="458" y="1065" on="1"/>
        <pt x="456" y="688" on="1"/>
        <pt x="1046" y="688" on="1"/>
        <pt x="1048" y="1065" on="1"/>
        <pt x="917" y="1065" on="1"/>
        <pt x="917" y="1206" on="1"/>
        <pt x="1406" y="1206" on="1"/>
        <pt x="1406" y="1065" on="1"/>
        <pt x="1212" y="1065" on="1"/>
        <pt x="1207" y="141" on="1"/>
        <pt x="1402" y="141" on="1"/>
        <pt x="1402" y="0" on="1"/>
        <pt x="915" y="0" on="1"/>
      </contour>
    </TTGlyph>
    <TTGlyph name="I" xMin="97" yMin="0" xMax="652" yMax="1206">
      <contour>
        <pt x="99" y="1206" on="1"/>
        <pt x="652" y="1206" on="1"/>
        <pt x="652" y="1065" on="1"/>
        <pt x="460" y="1065" on="1"/>
        <pt x="456" y="141" on="1"/>
        <pt x="652" y="141" on="1"/>
        <pt x="652" y="0" on="1"/>
        <pt x="97" y="0" on="1"/>
        <pt x="97" y="141" on="1"/>
        <pt x="294" y="141" on="1"/>
        <pt x="294" y="1065" on="1"/>
        <pt x="99" y="1065" on="1"/>
      </contour>
    </TTGlyph>
    <TTGlyph name="Iacute" xMin="97" yMin="0" xMax="790" yMax="1552">
      <component glyphName="I" x="0" y="0" flags="0x204"/>
      <component glyphName="uniF6C9" x="190" y="0" flags="0x4"/>
    </TTGlyph>
    <TTGlyph name="Icircumflex" xMin="63" yMin="0" xMax="681" yMax="1593">
      <component glyphName="circumflex" x="26" y="307" flags="0x4"/>
      <component glyphName="I" x="0" y="0" flags="0x4"/>
    </TTGlyph>
    <TTGlyph name="Idieresis" xMin="76" yMin="0" xMax="670" yMax="1544">
      <component glyphName="I" x="0" y="0" flags="0x204"/>
      <component glyphName="dieresis" x="15" y="317" flags="0x4"/>
    </TTGlyph>
    <TTGlyph name="Igrave" xMin="-55" yMin="0" xMax="652" yMax="1561">
      <component glyphName="I" x="0" y="0" flags="0x204"/>
      <component glyphName="uniF6CE" x="-131" y="0" flags="0x4"/>
    </TTGlyph>
    <TTGlyph name="J" xMin="40" yMin="-31" xMax="925" yMax="1206">
      <contour>
        <pt x="339" y="1206" on="1"/>
        <pt x="925" y="1206" on="1"/>
        <pt x="925" y="1065" on="1"/>
        <pt x="733" y="1065" on="1"/>
        <pt x="729" y="504" on="1"/>
        <pt x="727" y="404" on="0"/>
        <pt x="721" y="248" on="0"/>
        <pt x="704" y="188" on="1"/>
        <pt x="688" y="132" on="0"/>
        <pt x="619" y="50" on="0"/>
        <pt x="527" y="-4" on="0"/>
        <pt x="416" y="-31" on="0"/>
        <pt x="358" y="-31" on="1"/>
        <pt x="297" y="-31" on="0"/>
        <pt x="199" y="-6" on="0"/>
        <pt x="130" y="24" on="0"/>
        <pt x="93" y="50" on="0"/>
        <pt x="92" y="51" on="1"/>
        <pt x="40" y="289" on="1"/>
        <pt x="180" y="322" on="1"/>
        <pt x="223" y="139" on="1"/>
        <pt x="222" y="140" on="0"/>
        <pt x="242" y="131" on="0"/>
        <pt x="277" y="120" on="0"/>
        <pt x="324" y="110" on="0"/>
        <pt x="350" y="109" on="1"/>
        <pt x="377" y="108" on="0"/>
        <pt x="438" y="120" on="0"/>
        <pt x="492" y="148" on="0"/>
        <pt x="535" y="193" on="0"/>
        <pt x="546" y="225" on="1"/>
        <pt x="563" y="273" on="0"/>
        <pt x="567" y="412" on="0"/>
        <pt x="567" y="508" on="1"/>
        <pt x="569" y="1065" on="1"/>
        <pt x="339" y="1065" on="1"/>
      </contour>
    </TTGlyph>
    <TTGlyph name="K" xMin="98" yMin="0" xMax="1325" yMax="1206">
      <contour>
        <pt x="774" y="141" on="1"/>
        <pt x="922" y="141" on="1"/>
        <pt x="658" y="539" on="1"/>
        <pt x="453" y="539" on="1"/>
        <pt x="455" y="141" on="1"/>
        <pt x="584" y="141" on="1"/>
        <pt x="584" y="0" on="1"/>
        <pt x="98" y="0" on="1"/>
        <pt x="98" y="141" on="1"/>
        <pt x="291" y="141" on="1"/>
        <pt x="291" y="1065" on="1"/>
        <pt x="98" y="1065" on="1"/>
        <pt x="98" y="1206" on="1"/>
        <pt x="584" y="1206" on="1"/>
        <pt x="584" y="1065" on="1"/>
        <pt x="453" y="1065" on="1"/>
        <pt x="453" y="680" on="1"/>
        <pt x="633" y="680" on="1"/>
        <pt x="916" y="1065" on="1"/>
        <pt x="774" y="1065" on="1"/>
        <pt x="774" y="1206" on="1"/>
        <pt x="1278" y="1206" on="1"/>
        <pt x="1278" y="1065" on="1"/>
        <pt x="1092" y="1065" on="1"/>
        <pt x="782" y="645" on="1"/>
        <pt x="1120" y="141" on="1"/>
        <pt x="1325" y="141" on="1"/>
        <pt x="1325" y="0" on="1"/>
        <pt x="774" y="0" on="1"/>
      </contour>
    </TTGlyph>
    <TTGlyph name="L" xMin="95" yMin="0" xMax="1093" yMax="1206">
      <contour>
        <pt x="1093" y="313" on="1"/>
        <pt x="986" y="0" on="1"/>
        <pt x="97" y="0" on="1"/>
        <pt x="97" y="141" on="1"/>
        <pt x="329" y="141" on="1"/>
        <pt x="329" y="1065" on="1"/>
        <pt x="95" y="1065" on="1"/>
        <pt x="95" y="1206" on="1"/>
        <pt x="726" y="1206" on="1"/>
        <pt x="726" y="1065" on="1"/>
        <pt x="491" y="1065" on="1"/>
        <pt x="491" y="141" on="1"/>
        <pt x="878" y="141" on="1"/>
        <pt x="958" y="358" on="1"/>
      </contour>
    </TTGlyph>
    <TTGlyph name="M" xMin="95" yMin="0" xMax="1676" yMax="1206">
      <contour>
        <pt x="800" y="145" on="1"/>
        <pt x="538" y="803" on="1"/>
        <pt x="444" y="1065" on="1"/>
        <pt x="439" y="141" on="1"/>
        <pt x="573" y="141" on="1"/>
        <pt x="573" y="0" on="1"/>
        <pt x="95" y="0" on="1"/>
        <pt x="95" y="141" on="1"/>
        <pt x="290" y="141" on="1"/>
        <pt x="292" y="1065" on="1"/>
        <pt x="102" y="1065" on="1"/>
        <pt x="102" y="1206" on="1"/>
        <pt x="556" y="1206" on="1"/>
        <pt x="900" y="328" on="1"/>
        <pt x="1240" y="1206" on="1"/>
        <pt x="1676" y="1206" on="1"/>
        <pt x="1676" y="1065" on="1"/>
        <pt x="1482" y="1065" on="1"/>
        <pt x="1482" y="141" on="1"/>
        <pt x="1676" y="141" on="1"/>
        <pt x="1676" y="0" on="1"/>
        <pt x="1187" y="0" on="1"/>
        <pt x="1187" y="141" on="1"/>
        <pt x="1318" y="141" on="1"/>
        <pt x="1318" y="1065" on="1"/>
        <pt x="1227" y="799" on="1"/>
        <pt x="977" y="145" on="1"/>
      </contour>
    </TTGlyph>
    <TTGlyph name="N" xMin="97" yMin="0" xMax="1435" yMax="1206">
      <contour>
        <pt x="902" y="1206" on="1"/>
        <pt x="1435" y="1206" on="1"/>
        <pt x="1435" y="1065" on="1"/>
        <pt x="1238" y="1065" on="1"/>
        <pt x="1238" y="0" on="1"/>
        <pt x="1037" y="0" on="1"/>
        <pt x="454" y="1065" on="1"/>
        <pt x="458" y="141" on="1"/>
        <pt x="630" y="141" on="1"/>
        <pt x="630" y="0" on="1"/>
        <pt x="97" y="0" on="1"/>
        <pt x="97" y="141" on="1"/>
        <pt x="292" y="141" on="1"/>
        <pt x="290" y="1065" on="1"/>
        <pt x="99" y="1065" on="1"/>
        <pt x="99" y="1206" on="1"/>
        <pt x="550" y="1206" on="1"/>
        <pt x="1074" y="250" on="1"/>
        <pt x="1074" y="1065" on="1"/>
        <pt x="902" y="1065" on="1"/>
      </contour>
    </TTGlyph>
    <TTGlyph name="Ntilde" xMin="97" yMin="0" xMax="1435" yMax="1531">
      <component glyphName="N" x="0" y="0" flags="0x204"/>
      <component glyphName="tilde" x="181" y="295" flags="0x4"/>
    </TTGlyph>
    <TTGlyph name="O" xMin="110" yMin="-31" xMax="1232" yMax="1237">
      <contour>
        <pt x="671" y="1098" on="1"/>
        <pt x="573" y="1098" on="0"/>
        <pt x="428" y="1031" on="0"/>
        <pt x="332" y="904" on="0"/>
        <pt x="284" y="721" on="0"/>
        <pt x="284" y="604" on="1"/>
        <pt x="284" y="487" on="0"/>
        <pt x="332" y="304" on="0"/>
        <pt x="428" y="176" on="0"/>
        <pt x="573" y="109" on="0"/>
        <pt x="671" y="109" on="1"/>
        <pt x="768" y="109" on="0"/>
        <pt x="914" y="176" on="0"/>
        <pt x="1010" y="304" on="0"/>
        <pt x="1058" y="487" on="0"/>
        <pt x="1058" y="604" on="1"/>
        <pt x="1058" y="721" on="0"/>
        <pt x="1010" y="904" on="0"/>
        <pt x="914" y="1031" on="0"/>
        <pt x="768" y="1098" on="0"/>
      </contour>
      <contour>
        <pt x="671" y="-31" on="1"/>
        <pt x="546" y="-31" on="0"/>
        <pt x="340" y="58" on="0"/>
        <pt x="192" y="223" on="0"/>
        <pt x="110" y="458" on="0"/>
        <pt x="110" y="604" on="1"/>
        <pt x="110" y="750" on="0"/>
        <pt x="191" y="984" on="0"/>
        <pt x="339" y="1149" on="0"/>
        <pt x="544" y="1237" on="0"/>
        <pt x="669" y="1237" on="1"/>
        <pt x="795" y="1237" on="0"/>
        <pt x="1002" y="1149" on="0"/>
        <pt x="1151" y="984" on="0"/>
        <pt x="1232" y="750" on="0"/>
        <pt x="1232" y="604" on="1"/>
        <pt x="1232" y="458" on="0"/>
        <pt x="1151" y="223" on="0"/>
        <pt x="1004" y="58" on="0"/>
        <pt x="797" y="-31" on="0"/>
      </contour>
    </TTGlyph>
    <TTGlyph name="OE" xMin="114" yMin="0" xMax="1738" yMax="1206">
      <contour>
        <pt x="1738" y="315" on="1"/>
        <pt x="1631" y="0" on="1"/>
        <pt x="718" y="0" on="1"/>
        <pt x="590" y="0" on="0"/>
        <pt x="370" y="82" on="0"/>
        <pt x="207" y="237" on="0"/>
        <pt x="114" y="461" on="0"/>
        <pt x="114" y="604" on="1"/>
        <pt x="114" y="782" on="0"/>
        <pt x="204" y="1015" on="0"/>
        <pt x="368" y="1151" on="0"/>
        <pt x="596" y="1206" on="0"/>
        <pt x="734" y="1206" on="1"/>
        <pt x="1590" y="1206" on="1"/>
        <pt x="1697" y="891" on="1"/>
        <pt x="1562" y="846" on="1"/>
        <pt x="1480" y="1065" on="1"/>
        <pt x="1046" y="1065" on="1"/>
        <pt x="1046" y="694" on="1"/>
        <pt x="1425" y="694" on="1"/>
        <pt x="1425" y="553" on="1"/>
        <pt x="1044" y="553" on="1"/>
        <pt x="1044" y="141" on="1"/>
        <pt x="1521" y="141" on="1"/>
        <pt x="1603" y="360" on="1"/>
      </contour>
      <contour>
        <pt x="734" y="1067" on="1"/>
        <pt x="631" y="1067" on="0"/>
        <pt x="466" y="1036" on="0"/>
        <pt x="350" y="939" on="0"/>
        <pt x="288" y="756" on="0"/>
        <pt x="288" y="604" on="1"/>
        <pt x="288" y="368" on="0"/>
        <pt x="522" y="139" on="0"/>
        <pt x="755" y="139" on="1"/>
        <pt x="880" y="141" on="1"/>
        <pt x="880" y="1067" on="1"/>
      </contour>
    </TTGlyph>
    <TTGlyph name="Oacute" xMin="110" yMin="-31" xMax="1232" yMax="1552">
      <component glyphName="O" x="0" y="0" flags="0x204"/>
      <component glyphName="uniF6C9" x="476" y="0" flags="0x4"/>
    </TTGlyph>
    <TTGlyph name="Ocircumflex" xMin="110" yMin="-31" xMax="1232" yMax="1593">
      <component glyphName="circumflex" x="319" y="307" flags="0x4"/>
      <component glyphName="O" x="0" y="0" flags="0x4"/>
    </TTGlyph>
    <TTGlyph name="Odieresis" xMin="110" yMin="-31" xMax="1232" yMax="1544">
      <component glyphName="O" x="0" y="0" flags="0x204"/>
      <component glyphName="dieresis" x="311" y="317" flags="0x4"/>
    </TTGlyph>
    <TTGlyph name="Ograve" xMin="110" yMin="-31" xMax="1232" yMax="1561">
      <component glyphName="O" x="0" y="0" flags="0x204"/>
      <component glyphName="uniF6CE" x="155" y="0" flags="0x4"/>
    </TTGlyph>
    <TTGlyph name="Oslash" xMin="109" yMin="-141" xMax="1231" yMax="1333">
      <contour>
        <pt x="1010" y="1127" on="1"/>
        <pt x="1115" y="1046" on="0"/>
        <pt x="1231" y="781" on="0"/>
        <pt x="1231" y="604" on="1"/>
        <pt x="1231" y="458" on="0"/>
        <pt x="1150" y="223" on="0"/>
        <pt x="1003" y="58" on="0"/>
        <pt x="796" y="-31" on="0"/>
        <pt x="670" y="-31" on="1"/>
        <pt x="623" y="-31" on="0"/>
        <pt x="536" y="-18" on="0"/>
        <pt x="495" y="-6" on="1"/>
        <pt x="434" y="-141" on="1"/>
        <pt x="283" y="-141" on="1"/>
        <pt x="370" y="51" on="1"/>
        <pt x="248" y="129" on="0"/>
        <pt x="109" y="411" on="0"/>
        <pt x="109" y="604" on="1"/>
        <pt x="109" y="750" on="0"/>
        <pt x="190" y="984" on="0"/>
        <pt x="338" y="1149" on="0"/>
        <pt x="543" y="1237" on="0"/>
        <pt x="668" y="1237" on="1"/>
        <pt x="790" y="1237" on="0"/>
        <pt x="891" y="1195" on="1"/>
        <pt x="954" y="1333" on="1"/>
        <pt x="1104" y="1333" on="1"/>
      </contour>
      <contour>
        <pt x="670" y="1098" on="1"/>
        <pt x="572" y="1098" on="0"/>
        <pt x="427" y="1031" on="0"/>
        <pt x="331" y="904" on="0"/>
        <pt x="283" y="721" on="0"/>
        <pt x="283" y="604" on="1"/>
        <pt x="283" y="458" on="0"/>
        <pt x="356" y="247" on="0"/>
        <pt x="431" y="185" on="1"/>
        <pt x="833" y="1067" on="1"/>
        <pt x="798" y="1082" on="0"/>
        <pt x="717" y="1098" on="0"/>
      </contour>
      <contour>
        <pt x="1057" y="604" on="1"/>
        <pt x="1057" y="730" on="0"/>
        <pt x="1002" y="922" on="0"/>
        <pt x="946" y="985" on="1"/>
        <pt x="554" y="123" on="1"/>
        <pt x="580" y="115" on="0"/>
        <pt x="638" y="109" on="0"/>
        <pt x="670" y="109" on="1"/>
        <pt x="767" y="109" on="0"/>
        <pt x="913" y="176" on="0"/>
        <pt x="1009" y="304" on="0"/>
        <pt x="1057" y="487" on="0"/>
      </contour>
    </TTGlyph>
    <TTGlyph name="Otilde" xMin="110" yMin="-31" xMax="1232" yMax="1531">
      <component glyphName="O" x="0" y="0" flags="0x204"/>
      <component glyphName="tilde" x="75" y="295" flags="0x4"/>
    </TTGlyph>
    <TTGlyph name="P" xMin="98" yMin="0" xMax="1092" yMax="1206">
      <contour>
        <pt x="639" y="590" on="1"/>
        <pt x="706" y="590" on="0"/>
        <pt x="811" y="608" on="0"/>
        <pt x="881" y="659" on="0"/>
        <pt x="918" y="752" on="0"/>
        <pt x="918" y="828" on="1"/>
        <pt x="918" y="903" on="0"/>
        <pt x="881" y="996" on="0"/>
        <pt x="811" y="1047" on="0"/>
        <pt x="706" y="1065" on="0"/>
        <pt x="639" y="1065" on="1"/>
        <pt x="455" y="1065" on="1"/>
        <pt x="455" y="590" on="1"/>
      </contour>
      <contour>
        <pt x="453" y="446" on="1"/>
        <pt x="453" y="141" on="1"/>
        <pt x="698" y="141" on="1"/>
        <pt x="698" y="0" on="1"/>
        <pt x="98" y="0" on="1"/>
        <pt x="98" y="141" on="1"/>
        <pt x="289" y="141" on="1"/>
        <pt x="289" y="1065" on="1"/>
        <pt x="98" y="1065" on="1"/>
        <pt x="98" y="1206" on="1"/>
        <pt x="641" y="1206" on="1"/>
        <pt x="766" y="1206" on="0"/>
        <pt x="938" y="1158" on="0"/>
        <pt x="1045" y="1063" on="0"/>
        <pt x="1092" y="922" on="0"/>
        <pt x="1092" y="829" on="1"/>
        <pt x="1092" y="736" on="0"/>
        <pt x="1045" y="593" on="0"/>
        <pt x="938" y="496" on="0"/>
        <pt x="766" y="446" on="0"/>
        <pt x="641" y="446" on="1"/>
      </contour>
    </TTGlyph>
    <TTGlyph name="Q" xMin="110" yMin="-162" xMax="1343" yMax="1237">
      <contour>
        <pt x="671" y="-31" on="1"/>
        <pt x="546" y="-31" on="0"/>
        <pt x="340" y="58" on="0"/>
        <pt x="192" y="223" on="0"/>
        <pt x="110" y="458" on="0"/>
        <pt x="110" y="604" on="1"/>
        <pt x="110" y="750" on="0"/>
        <pt x="191" y="984" on="0"/>
        <pt x="339" y="1149" on="0"/>
        <pt x="544" y="1237" on="0"/>
        <pt x="669" y="1237" on="1"/>
        <pt x="795" y="1237" on="0"/>
        <pt x="1002" y="1149" on="0"/>
        <pt x="1151" y="984" on="0"/>
        <pt x="1232" y="750" on="0"/>
        <pt x="1232" y="604" on="1"/>
        <pt x="1232" y="455" on="0"/>
        <pt x="1148" y="219" on="0"/>
        <pt x="1070" y="135" on="1"/>
        <pt x="1343" y="-27" on="1"/>
        <pt x="1234" y="-162" on="1"/>
        <pt x="978" y="55" on="1"/>
        <pt x="913" y="13" on="0"/>
        <pt x="759" y="-31" on="0"/>
      </contour>
      <contour>
        <pt x="671" y="1098" on="1"/>
        <pt x="573" y="1098" on="0"/>
        <pt x="428" y="1031" on="0"/>
        <pt x="332" y="904" on="0"/>
        <pt x="284" y="721" on="0"/>
        <pt x="284" y="604" on="1"/>
        <pt x="284" y="487" on="0"/>
        <pt x="332" y="304" on="0"/>
        <pt x="428" y="176" on="0"/>
        <pt x="573" y="109" on="0"/>
        <pt x="671" y="109" on="1"/>
        <pt x="768" y="109" on="0"/>
        <pt x="914" y="176" on="0"/>
        <pt x="1010" y="304" on="0"/>
        <pt x="1058" y="487" on="0"/>
        <pt x="1058" y="604" on="1"/>
        <pt x="1058" y="721" on="0"/>
        <pt x="1010" y="904" on="0"/>
        <pt x="914" y="1031" on="0"/>
        <pt x="768" y="1098" on="0"/>
      </contour>
    </TTGlyph>
    <TTGlyph name="R" xMin="98" yMin="0" xMax="1225" yMax="1206">
      <contour>
        <pt x="1225" y="0" on="1"/>
        <pt x="919" y="0" on="1"/>
        <pt x="661" y="473" on="1"/>
        <pt x="453" y="473" on="1"/>
        <pt x="453" y="141" on="1"/>
        <pt x="584" y="141" on="1"/>
        <pt x="584" y="0" on="1"/>
        <pt x="98" y="0" on="1"/>
        <pt x="98" y="141" on="1"/>
        <pt x="289" y="141" on="1"/>
        <pt x="289" y="1065" on="1"/>
        <pt x="98" y="1065" on="1"/>
        <pt x="98" y="1206" on="1"/>
        <pt x="641" y="1206" on="1"/>
        <pt x="766" y="1206" on="0"/>
        <pt x="936" y="1163" on="0"/>
        <pt x="1039" y="1072" on="0"/>
        <pt x="1083" y="929" on="0"/>
        <pt x="1083" y="829" on="1"/>
        <pt x="1083" y="763" on="0"/>
        <pt x="1048" y="654" on="0"/>
        <pt x="983" y="569" on="0"/>
        <pt x="891" y="510" on="0"/>
        <pt x="835" y="494" on="1"/>
        <pt x="1038" y="141" on="1"/>
        <pt x="1225" y="141" on="1"/>
      </contour>
      <contour>
        <pt x="455" y="616" on="1"/>
        <pt x="646" y="616" on="1"/>
        <pt x="687" y="616" on="0"/>
        <pt x="780" y="630" on="0"/>
        <pt x="858" y="675" on="0"/>
        <pt x="910" y="758" on="0"/>
        <pt x="910" y="827" on="1"/>
        <pt x="910" y="908" on="0"/>
        <pt x="875" y="1002" on="0"/>
        <pt x="807" y="1051" on="0"/>
        <pt x="706" y="1065" on="0"/>
        <pt x="640" y="1065" on="1"/>
        <pt x="455" y="1065" on="1"/>
      </contour>
    </TTGlyph>
    <TTGlyph name="S" xMin="104" yMin="-31" xMax="1022" yMax="1237">
      <contour>
        <pt x="858" y="330" on="1"/>
        <pt x="858" y="363" on="0"/>
        <pt x="844" y="424" on="0"/>
        <pt x="800" y="475" on="0"/>
        <pt x="718" y="513" on="0"/>
        <pt x="651" y="522" on="1"/>
        <pt x="496" y="543" on="1"/>
        <pt x="400" y="555" on="0"/>
        <pt x="263" y="617" on="0"/>
        <pt x="174" y="711" on="0"/>
        <pt x="133" y="836" on="0"/>
        <pt x="133" y="911" on="1"/>
        <pt x="133" y="980" on="0"/>
        <pt x="185" y="1100" on="0"/>
        <pt x="292" y="1187" on="0"/>
        <pt x="454" y="1237" on="0"/>
        <pt x="565" y="1237" on="1"/>
        <pt x="640" y="1237" on="0"/>
        <pt x="772" y="1221" on="0"/>
        <pt x="874" y="1198" on="0"/>
        <pt x="942" y="1175" on="0"/>
        <pt x="954" y="1169" on="1"/>
        <pt x="989" y="907" on="1"/>
        <pt x="848" y="893" on="1"/>
        <pt x="821" y="1065" on="1"/>
        <pt x="779" y="1080" on="0"/>
        <pt x="655" y="1100" on="0"/>
        <pt x="567" y="1100" on="1"/>
        <pt x="506" y="1100" on="0"/>
        <pt x="407" y="1076" on="0"/>
        <pt x="336" y="1029" on="0"/>
        <pt x="297" y="960" on="0"/>
        <pt x="297" y="915" on="1"/>
        <pt x="297" y="829" on="0"/>
        <pt x="405" y="735" on="0"/>
        <pt x="496" y="721" on="1"/>
        <pt x="682" y="692" on="1"/>
        <pt x="784" y="677" on="0"/>
        <pt x="916" y="617" on="0"/>
        <pt x="992" y="530" on="0"/>
        <pt x="1022" y="419" on="0"/>
        <pt x="1022" y="352" on="1"/>
        <pt x="1022" y="249" on="0"/>
        <pt x="956" y="104" on="0"/>
        <pt x="838" y="12" on="0"/>
        <pt x="674" y="-31" on="0"/>
        <pt x="575" y="-31" on="1"/>
        <pt x="502" y="-31" on="0"/>
        <pt x="375" y="-16" on="0"/>
        <pt x="267" y="7" on="0"/>
        <pt x="178" y="35" on="0"/>
        <pt x="143" y="49" on="1"/>
        <pt x="104" y="298" on="1"/>
        <pt x="245" y="320" on="1"/>
        <pt x="273" y="158" on="1"/>
        <pt x="304" y="148" on="0"/>
        <pt x="364" y="130" on="0"/>
        <pt x="429" y="117" on="0"/>
        <pt x="504" y="109" on="0"/>
        <pt x="549" y="109" on="1"/>
        <pt x="613" y="109" on="0"/>
        <pt x="725" y="132" on="0"/>
        <pt x="809" y="184" on="0"/>
        <pt x="858" y="268" on="0"/>
      </contour>
    </TTGlyph>
    <TTGlyph name="T" xMin="71" yMin="0" xMax="1126" yMax="1206">
      <contour>
        <pt x="971" y="870" on="1"/>
        <pt x="971" y="1065" on="1"/>
        <pt x="682" y="1065" on="1"/>
        <pt x="678" y="141" on="1"/>
        <pt x="872" y="141" on="1"/>
        <pt x="872" y="0" on="1"/>
        <pt x="319" y="0" on="1"/>
        <pt x="319" y="141" on="1"/>
        <pt x="514" y="141" on="1"/>
        <pt x="516" y="1065" on="1"/>
        <pt x="227" y="1065" on="1"/>
        <pt x="227" y="870" on="1"/>
        <pt x="71" y="870" on="1"/>
        <pt x="71" y="1206" on="1"/>
        <pt x="1126" y="1206" on="1"/>
        <pt x="1126" y="870" on="1"/>
      </contour>
    </TTGlyph>
    <TTGlyph name="Thorn" xMin="98" yMin="0" xMax="944" yMax="1206">
      <contour>
        <pt x="455" y="778" on="1"/>
        <pt x="455" y="426" on="1"/>
        <pt x="541" y="426" on="1"/>
        <pt x="559" y="426" on="0"/>
        <pt x="607" y="428" on="0"/>
        <pt x="658" y="438" on="0"/>
        <pt x="707" y="461" on="0"/>
        <pt x="746" y="503" on="0"/>
        <pt x="770" y="568" on="0"/>
        <pt x="770" y="616" on="1"/>
        <pt x="770" y="680" on="0"/>
        <pt x="725" y="746" on="0"/>
        <pt x="657" y="775" on="0"/>
        <pt x="574" y="778" on="0"/>
        <pt x="537" y="778" on="1"/>
      </contour>
      <contour>
        <pt x="98" y="141" on="1"/>
        <pt x="289" y="141" on="1"/>
        <pt x="289" y="1065" on="1"/>
        <pt x="98" y="1065" on="1"/>
        <pt x="98" y="1206" on="1"/>
        <pt x="696" y="1206" on="1"/>
        <pt x="696" y="1065" on="1"/>
        <pt x="455" y="1065" on="1"/>
        <pt x="455" y="920" on="1"/>
        <pt x="553" y="920" on="1"/>
        <pt x="647" y="920" on="0"/>
        <pt x="793" y="891" on="0"/>
        <pt x="893" y="821" on="0"/>
        <pt x="944" y="704" on="0"/>
        <pt x="944" y="616" on="1"/>
        <pt x="944" y="535" on="0"/>
        <pt x="893" y="411" on="0"/>
        <pt x="801" y="327" on="0"/>
        <pt x="673" y="283" on="0"/>
        <pt x="596" y="283" on="1"/>
        <pt x="453" y="283" on="1"/>
        <pt x="453" y="141" on="1"/>
        <pt x="698" y="141" on="1"/>
        <pt x="698" y="0" on="1"/>
        <pt x="98" y="0" on="1"/>
      </contour>
    </TTGlyph>
    <TTGlyph name="U" xMin="51" yMin="-31" xMax="1329" yMax="1206">
      <contour>
        <pt x="680" y="109" on="1"/>
        <pt x="762" y="109" on="0"/>
        <pt x="873" y="161" on="0"/>
        <pt x="940" y="259" on="0"/>
        <pt x="969" y="399" on="0"/>
        <pt x="969" y="487" on="1"/>
        <pt x="969" y="1065" on="1"/>
        <pt x="838" y="1065" on="1"/>
        <pt x="838" y="1206" on="1"/>
        <pt x="1329" y="1206" on="1"/>
        <pt x="1329" y="1065" on="1"/>
        <pt x="1133" y="1065" on="1"/>
        <pt x="1133" y="481" on="1"/>
        <pt x="1133" y="375" on="0"/>
        <pt x="1096" y="216" on="0"/>
        <pt x="1032" y="102" on="0"/>
        <pt x="945" y="28" on="0"/>
        <pt x="844" y="-14" on="0"/>
        <pt x="735" y="-31" on="0"/>
        <pt x="680" y="-31" on="1"/>
        <pt x="627" y="-31" on="0"/>
        <pt x="522" y="-14" on="0"/>
        <pt x="426" y="28" on="0"/>
        <pt x="344" y="102" on="0"/>
        <pt x="283" y="216" on="0"/>
        <pt x="248" y="374" on="0"/>
        <pt x="248" y="481" on="1"/>
        <pt x="248" y="1065" on="1"/>
        <pt x="51" y="1065" on="1"/>
        <pt x="51" y="1206" on="1"/>
        <pt x="543" y="1206" on="1"/>
        <pt x="543" y="1065" on="1"/>
        <pt x="412" y="1065" on="1"/>
        <pt x="412" y="467" on="1"/>
        <pt x="412" y="378" on="0"/>
        <pt x="439" y="244" on="0"/>
        <pt x="501" y="154" on="0"/>
        <pt x="604" y="109" on="0"/>
      </contour>
    </TTGlyph>
    <TTGlyph name="Uacute" xMin="51" yMin="-31" xMax="1329" yMax="1552">
      <component glyphName="U" x="0" y="0" flags="0x204"/>
      <component glyphName="uniF6C9" x="547" y="0" flags="0x4"/>
    </TTGlyph>
    <TTGlyph name="Ucircumflex" xMin="51" yMin="-31" xMax="1329" yMax="1593">
      <component glyphName="circumflex" x="344" y="307" flags="0x4"/>
      <component glyphName="U" x="0" y="0" flags="0x4"/>
    </TTGlyph>
    <TTGlyph name="Udieresis" xMin="51" yMin="-31" xMax="1329" yMax="1544">
      <component glyphName="U" x="0" y="0" flags="0x204"/>
      <component glyphName="dieresis" x="332" y="317" flags="0x4"/>
    </TTGlyph>
    <TTGlyph name="Ugrave" xMin="51" yMin="-31" xMax="1329" yMax="1561">
      <component glyphName="U" x="0" y="0" flags="0x204"/>
      <component glyphName="uniF6CE" x="107" y="0" flags="0x4"/>
    </TTGlyph>
    <TTGlyph name="V" xMin="8" yMin="0" xMax="1337" yMax="1206">
      <contour>
        <pt x="8" y="1206" on="1"/>
        <pt x="511" y="1206" on="1"/>
        <pt x="511" y="1065" on="1"/>
        <pt x="380" y="1065" on="1"/>
        <pt x="590" y="504" on="1"/>
        <pt x="699" y="182" on="1"/>
        <pt x="795" y="487" on="1"/>
        <pt x="993" y="1065" on="1"/>
        <pt x="861" y="1065" on="1"/>
        <pt x="861" y="1206" on="1"/>
        <pt x="1337" y="1206" on="1"/>
        <pt x="1337" y="1065" on="1"/>
        <pt x="1143" y="1065" on="1"/>
        <pt x="782" y="0" on="1"/>
        <pt x="604" y="0" on="1"/>
        <pt x="203" y="1065" on="1"/>
        <pt x="8" y="1065" on="1"/>
      </contour>
    </TTGlyph>
    <TTGlyph name="W" xMin="12" yMin="0" xMax="1876" yMax="1206">
      <contour>
        <pt x="12" y="1206" on="1"/>
        <pt x="510" y="1206" on="1"/>
        <pt x="510" y="1065" on="1"/>
        <pt x="379" y="1065" on="1"/>
        <pt x="551" y="485" on="1"/>
        <pt x="640" y="186" on="1"/>
        <pt x="703" y="475" on="1"/>
        <pt x="870" y="1053" on="1"/>
        <pt x="1051" y="1053" on="1"/>
        <pt x="1194" y="487" on="1"/>
        <pt x="1260" y="188" on="1"/>
        <pt x="1348" y="487" on="1"/>
        <pt x="1538" y="1065" on="1"/>
        <pt x="1407" y="1065" on="1"/>
        <pt x="1407" y="1206" on="1"/>
        <pt x="1876" y="1206" on="1"/>
        <pt x="1876" y="1065" on="1"/>
        <pt x="1682" y="1065" on="1"/>
        <pt x="1346" y="0" on="1"/>
        <pt x="1157" y="0" on="1"/>
        <pt x="1012" y="551" on="1"/>
        <pt x="946" y="827" on="1"/>
        <pt x="867" y="541" on="1"/>
        <pt x="723" y="0" on="1"/>
        <pt x="547" y="0" on="1"/>
        <pt x="207" y="1065" on="1"/>
        <pt x="12" y="1065" on="1"/>
      </contour>
    </TTGlyph>
    <TTGlyph name="X" xMin="65" yMin="0" xMax="1358" yMax="1206">
      <contour>
        <pt x="65" y="1206" on="1"/>
        <pt x="581" y="1206" on="1"/>
        <pt x="581" y="1065" on="1"/>
        <pt x="450" y="1065" on="1"/>
        <pt x="708" y="739" on="1"/>
        <pt x="950" y="1065" on="1"/>
        <pt x="809" y="1065" on="1"/>
        <pt x="809" y="1206" on="1"/>
        <pt x="1321" y="1206" on="1"/>
        <pt x="1321" y="1065" on="1"/>
        <pt x="1126" y="1065" on="1"/>
        <pt x="801" y="625" on="1"/>
        <pt x="1184" y="141" on="1"/>
        <pt x="1358" y="141" on="1"/>
        <pt x="1358" y="0" on="1"/>
        <pt x="823" y="0" on="1"/>
        <pt x="823" y="141" on="1"/>
        <pt x="975" y="141" on="1"/>
        <pt x="686" y="502" on="1"/>
        <pt x="418" y="141" on="1"/>
        <pt x="569" y="141" on="1"/>
        <pt x="569" y="0" on="1"/>
        <pt x="67" y="0" on="1"/>
        <pt x="67" y="141" on="1"/>
        <pt x="242" y="141" on="1"/>
        <pt x="596" y="616" on="1"/>
        <pt x="239" y="1065" on="1"/>
        <pt x="65" y="1065" on="1"/>
      </contour>
    </TTGlyph>
    <TTGlyph name="Y" xMin="22" yMin="0" xMax="1339" yMax="1206">
      <contour>
        <pt x="22" y="1206" on="1"/>
        <pt x="512" y="1206" on="1"/>
        <pt x="512" y="1065" on="1"/>
        <pt x="403" y="1065" on="1"/>
        <pt x="692" y="705" on="1"/>
        <pt x="967" y="1065" on="1"/>
        <pt x="854" y="1065" on="1"/>
        <pt x="854" y="1206" on="1"/>
        <pt x="1339" y="1206" on="1"/>
        <pt x="1339" y="1065" on="1"/>
        <pt x="1143" y="1065" on="1"/>
        <pt x="764" y="567" on="1"/>
        <pt x="760" y="141" on="1"/>
        <pt x="952" y="141" on="1"/>
        <pt x="952" y="0" on="1"/>
        <pt x="405" y="0" on="1"/>
        <pt x="405" y="141" on="1"/>
        <pt x="598" y="141" on="1"/>
        <pt x="600" y="561" on="1"/>
        <pt x="194" y="1065" on="1"/>
        <pt x="22" y="1065" on="1"/>
      </contour>
    </TTGlyph>
    <TTGlyph name="Yacute" xMin="22" yMin="0" xMax="1339" yMax="1552">
      <component glyphName="Y" x="0" y="0" flags="0x204"/>
      <component glyphName="uniF6C9" x="538" y="0" flags="0x4"/>
    </TTGlyph>
    <TTGlyph name="Z" xMin="121" yMin="0" xMax="1061" yMax="1206">
      <contour>
        <pt x="124" y="885" on="1"/>
        <pt x="182" y="1206" on="1"/>
        <pt x="1019" y="1206" on="1"/>
        <pt x="1019" y="1100" on="1"/>
        <pt x="329" y="141" on="1"/>
        <pt x="844" y="141" on="1"/>
        <pt x="926" y="360" on="1"/>
        <pt x="1061" y="315" on="1"/>
        <pt x="954" y="0" on="1"/>
        <pt x="121" y="0" on="1"/>
        <pt x="121" y="115" on="1"/>
        <pt x="805" y="1065" on="1"/>
        <pt x="296" y="1065" on="1"/>
        <pt x="255" y="866" on="1"/>
      </contour>
    </TTGlyph>
    <TTGlyph name="a" xMin="79" yMin="-35" xMax="1039" yMax="909">
      <contour>
        <pt x="142" y="666" on="1"/>
        <pt x="175" y="852" on="1"/>
        <pt x="213" y="868" on="0"/>
        <pt x="260" y="880" on="1"/>
        <pt x="300" y="891" on="0"/>
        <pt x="408" y="909" on="0"/>
        <pt x="472" y="909" on="1"/>
        <pt x="564" y="909" on="0"/>
        <pt x="691" y="874" on="0"/>
        <pt x="773" y="815" on="0"/>
        <pt x="819" y="737" on="0"/>
        <pt x="840" y="650" on="0"/>
        <pt x="844" y="558" on="0"/>
        <pt x="844" y="516" on="1"/>
        <pt x="844" y="160" on="1"/>
        <pt x="1039" y="96" on="1"/>
        <pt x="998" y="-35" on="1"/>
        <pt x="721" y="59" on="1"/>
        <pt x="669" y="24" on="0"/>
        <pt x="524" y="-31" on="0"/>
        <pt x="433" y="-31" on="1"/>
        <pt x="350" y="-31" on="0"/>
        <pt x="220" y="10" on="0"/>
        <pt x="129" y="84" on="0"/>
        <pt x="81" y="183" on="0"/>
        <pt x="80" y="242" on="1"/>
        <pt x="79" y="313" on="0"/>
        <pt x="132" y="415" on="0"/>
        <pt x="225" y="480" on="0"/>
        <pt x="349" y="510" on="0"/>
        <pt x="420" y="510" on="1"/>
        <pt x="685" y="508" on="1"/>
        <pt x="685" y="524" on="1"/>
        <pt x="685" y="550" on="0"/>
        <pt x="686" y="607" on="0"/>
        <pt x="677" y="664" on="0"/>
        <pt x="655" y="715" on="0"/>
        <pt x="609" y="755" on="0"/>
        <pt x="534" y="778" on="0"/>
        <pt x="478" y="778" on="1"/>
        <pt x="413" y="778" on="0"/>
        <pt x="319" y="762" on="0"/>
        <pt x="293" y="754" on="1"/>
        <pt x="273" y="641" on="1"/>
      </contour>
      <contour>
        <pt x="441" y="100" on="1"/>
        <pt x="486" y="100" on="0"/>
        <pt x="562" y="115" on="0"/>
        <pt x="623" y="138" on="0"/>
        <pt x="669" y="166" on="0"/>
        <pt x="685" y="178" on="1"/>
        <pt x="685" y="379" on="1"/>
        <pt x="425" y="381" on="1"/>
        <pt x="390" y="381" on="0"/>
        <pt x="325" y="372" on="0"/>
        <pt x="274" y="344" on="0"/>
        <pt x="244" y="289" on="0"/>
        <pt x="244" y="244" on="1"/>
        <pt x="244" y="207" on="0"/>
        <pt x="276" y="153" on="0"/>
        <pt x="330" y="117" on="0"/>
        <pt x="402" y="100" on="0"/>
      </contour>
    </TTGlyph>
    <TTGlyph name="aacute" xMin="79" yMin="-35" xMax="1039" yMax="1335">
      <component glyphName="a" x="0" y="0" flags="0x204"/>
      <component glyphName="acute" x="271" y="41" flags="0x4"/>
    </TTGlyph>
    <TTGlyph name="acircumflex" xMin="79" yMin="-35" xMax="1039" yMax="1337">
      <component glyphName="a" x="0" y="0" flags="0x204"/>
      <component glyphName="circumflex" x="144" y="51" flags="0x4"/>
    </TTGlyph>
    <TTGlyph name="acute" xMin="68" yMin="942" xMax="582" yMax="1294">
      <contour>
        <pt x="510" y="1294" on="1"/>
        <pt x="582" y="1159" on="1"/>
        <pt x="104" y="942" on="1"/>
        <pt x="68" y="1008" on="1"/>
      </contour>
    </TTGlyph>
    <TTGlyph name="adieresis" xMin="79" yMin="-35" xMax="1039" yMax="1274">
      <component glyphName="a" x="0" y="0" flags="0x204"/>
      <component glyphName="dieresis" x="136" y="47" flags="0x4"/>
    </TTGlyph>
    <TTGlyph name="ae" xMin="80" yMin="-31" xMax="1512" yMax="909">
      <contour>
        <pt x="1125" y="-31" on="1"/>
        <pt x="1022" y="-31" on="0"/>
        <pt x="857" y="35" on="0"/>
        <pt x="797" y="98" on="1"/>
        <pt x="771" y="80" on="0"/>
        <pt x="685" y="36" on="0"/>
        <pt x="583" y="-4" on="0"/>
        <pt x="477" y="-31" on="0"/>
        <pt x="433" y="-31" on="1"/>
        <pt x="349" y="-31" on="0"/>
        <pt x="218" y="11" on="0"/>
        <pt x="127" y="86" on="0"/>
        <pt x="80" y="188" on="0"/>
        <pt x="80" y="247" on="1"/>
        <pt x="80" y="317" on="0"/>
        <pt x="134" y="416" on="0"/>
        <pt x="227" y="480" on="0"/>
        <pt x="350" y="510" on="0"/>
        <pt x="420" y="510" on="1"/>
        <pt x="685" y="508" on="1"/>
        <pt x="685" y="524" on="1"/>
        <pt x="685" y="571" on="1"/>
        <pt x="685" y="607" on="0"/>
        <pt x="675" y="681" on="0"/>
        <pt x="633" y="740" on="0"/>
        <pt x="550" y="778" on="0"/>
        <pt x="478" y="778" on="1"/>
        <pt x="412" y="778" on="0"/>
        <pt x="319" y="762" on="0"/>
        <pt x="293" y="754" on="1"/>
        <pt x="273" y="641" on="1"/>
        <pt x="142" y="666" on="1"/>
        <pt x="175" y="852" on="1"/>
        <pt x="220" y="872" on="0"/>
        <pt x="368" y="909" on="0"/>
        <pt x="472" y="909" on="1"/>
        <pt x="538" y="909" on="0"/>
        <pt x="640" y="880" on="0"/>
        <pt x="718" y="832" on="0"/>
        <pt x="773" y="769" on="0"/>
        <pt x="791" y="735" on="1"/>
        <pt x="821" y="772" on="0"/>
        <pt x="896" y="836" on="0"/>
        <pt x="986" y="882" on="0"/>
        <pt x="1091" y="909" on="0"/>
        <pt x="1150" y="909" on="1"/>
        <pt x="1224" y="909" on="0"/>
        <pt x="1355" y="872" on="0"/>
        <pt x="1453" y="780" on="0"/>
        <pt x="1510" y="626" on="0"/>
        <pt x="1510" y="509" on="1"/>
        <pt x="1510" y="459" on="0"/>
        <pt x="1504" y="401" on="1"/>
        <pt x="844" y="397" on="1"/>
        <pt x="852" y="253" on="0"/>
        <pt x="993" y="100" on="0"/>
        <pt x="1127" y="100" on="1"/>
        <pt x="1185" y="100" on="0"/>
        <pt x="1281" y="120" on="0"/>
        <pt x="1358" y="150" on="0"/>
        <pt x="1417" y="184" on="0"/>
        <pt x="1438" y="201" on="1"/>
        <pt x="1512" y="104" on="1"/>
        <pt x="1512" y="103" on="0"/>
        <pt x="1461" y="61" on="0"/>
        <pt x="1362" y="11" on="0"/>
        <pt x="1218" y="-31" on="0"/>
      </contour>
      <contour>
        <pt x="441" y="100" on="1"/>
        <pt x="477" y="100" on="0"/>
        <pt x="556" y="117" on="0"/>
        <pt x="633" y="144" on="0"/>
        <pt x="704" y="178" on="0"/>
        <pt x="732" y="195" on="1"/>
        <pt x="691" y="275" on="0"/>
        <pt x="681" y="379" on="1"/>
        <pt x="425" y="381" on="1"/>
        <pt x="390" y="381" on="0"/>
        <pt x="325" y="372" on="0"/>
        <pt x="274" y="343" on="0"/>
        <pt x="244" y="289" on="0"/>
        <pt x="244" y="244" on="1"/>
        <pt x="244" y="207" on="0"/>
        <pt x="276" y="153" on="0"/>
        <pt x="330" y="117" on="0"/>
        <pt x="402" y="100" on="0"/>
      </contour>
      <contour>
        <pt x="1145" y="778" on="1"/>
        <pt x="1085" y="778" on="0"/>
        <pt x="983" y="744" on="0"/>
        <pt x="906" y="678" on="0"/>
        <pt x="855" y="584" on="0"/>
        <pt x="846" y="524" on="1"/>
        <pt x="1365" y="526" on="1"/>
        <pt x="1363" y="650" on="0"/>
        <pt x="1260" y="778" on="0"/>
      </contour>
    </TTGlyph>
    <TTGlyph name="agrave" xMin="79" yMin="-35" xMax="1039" yMax="1337">
      <component glyphName="a" x="0" y="0" flags="0x204"/>
      <component glyphName="grave" x="56" y="2" flags="0x4"/>
    </TTGlyph>
    <TTGlyph name="ampersand" xMin="94" yMin="-31" xMax="1331" yMax="1237">
      <contour>
        <pt x="1306" y="723" on="1"/>
        <pt x="1161" y="674" on="1"/>
        <pt x="1138" y="593" on="0"/>
        <pt x="1077" y="397" on="0"/>
        <pt x="1028" y="301" on="1"/>
        <pt x="1128" y="224" on="0"/>
        <pt x="1284" y="113" on="0"/>
        <pt x="1331" y="84" on="1"/>
        <pt x="1263" y="-31" on="1"/>
        <pt x="1263" y="-30" on="0"/>
        <pt x="1217" y="1" on="0"/>
        <pt x="1136" y="58" on="0"/>
        <pt x="1025" y="138" on="0"/>
        <pt x="960" y="188" on="1"/>
        <pt x="925" y="141" on="0"/>
        <pt x="836" y="61" on="0"/>
        <pt x="726" y="2" on="0"/>
        <pt x="593" y="-31" on="0"/>
        <pt x="512" y="-31" on="1"/>
        <pt x="477" y="-31" on="0"/>
        <pt x="388" y="-18" on="0"/>
        <pt x="295" y="13" on="0"/>
        <pt x="206" y="66" on="0"/>
        <pt x="136" y="147" on="0"/>
        <pt x="94" y="259" on="0"/>
        <pt x="94" y="334" on="1"/>
        <pt x="94" y="410" on="0"/>
        <pt x="146" y="527" on="0"/>
        <pt x="232" y="618" on="0"/>
        <pt x="339" y="691" on="0"/>
        <pt x="395" y="723" on="1"/>
        <pt x="341" y="795" on="0"/>
        <pt x="278" y="929" on="0"/>
        <pt x="278" y="991" on="1"/>
        <pt x="278" y="1042" on="0"/>
        <pt x="302" y="1119" on="0"/>
        <pt x="342" y="1173" on="0"/>
        <pt x="395" y="1209" on="0"/>
        <pt x="453" y="1229" on="0"/>
        <pt x="513" y="1237" on="0"/>
        <pt x="540" y="1237" on="1"/>
        <pt x="594" y="1237" on="0"/>
        <pt x="689" y="1210" on="0"/>
        <pt x="761" y="1154" on="0"/>
        <pt x="802" y="1071" on="0"/>
        <pt x="802" y="1014" on="1"/>
        <pt x="802" y="961" on="0"/>
        <pt x="765" y="875" on="0"/>
        <pt x="704" y="801" on="0"/>
        <pt x="623" y="737" on="0"/>
        <pt x="579" y="707" on="1"/>
        <pt x="650" y="623" on="0"/>
        <pt x="831" y="458" on="0"/>
        <pt x="927" y="381" on="1"/>
        <pt x="971" y="474" on="0"/>
        <pt x="1024" y="676" on="0"/>
        <pt x="1044" y="772" on="1"/>
        <pt x="1267" y="844" on="1"/>
      </contour>
      <contour>
        <pt x="466" y="631" on="1"/>
        <pt x="423" y="602" on="0"/>
        <pt x="346" y="539" on="0"/>
        <pt x="287" y="467" on="0"/>
        <pt x="253" y="384" on="0"/>
        <pt x="253" y="334" on="1"/>
        <pt x="253" y="282" on="0"/>
        <pt x="285" y="206" on="0"/>
        <pt x="335" y="152" on="0"/>
        <pt x="396" y="117" on="0"/>
        <pt x="455" y="97" on="0"/>
        <pt x="504" y="90" on="0"/>
        <pt x="518" y="90" on="1"/>
        <pt x="634" y="90" on="0"/>
        <pt x="801" y="188" on="0"/>
        <pt x="860" y="268" on="1"/>
        <pt x="756" y="350" on="0"/>
        <pt x="551" y="535" on="0"/>
      </contour>
      <contour>
        <pt x="659" y="997" on="1"/>
        <pt x="659" y="1063" on="0"/>
        <pt x="607" y="1124" on="0"/>
        <pt x="542" y="1124" on="1"/>
        <pt x="479" y="1124" on="0"/>
        <pt x="428" y="1053" on="0"/>
        <pt x="428" y="993" on="1"/>
        <pt x="428" y="948" on="0"/>
        <pt x="471" y="848" on="0"/>
        <pt x="512" y="793" on="1"/>
        <pt x="543" y="814" on="0"/>
        <pt x="597" y="857" on="0"/>
        <pt x="636" y="906" on="0"/>
        <pt x="659" y="962" on="0"/>
      </contour>
    </TTGlyph>
    <TTGlyph name="aring" xMin="79" yMin="-35" xMax="1039" yMax="1334">
      <component glyphName="a" x="0" y="0" flags="0x204"/>
      <component glyphName="ring" x="257" y="-298" flags="0x4"/>
    </TTGlyph>
    <TTGlyph name="asciitilde" xMin="138" yMin="349" xMax="919" yMax="571">
      <contour>
        <pt x="519" y="387" on="1"/>
        <pt x="487" y="404" on="0"/>
        <pt x="403" y="435" on="0"/>
        <pt x="364" y="435" on="1"/>
        <pt x="353" y="435" on="0"/>
        <pt x="334" y="433" on="0"/>
        <pt x="325" y="430" on="1"/>
        <pt x="299" y="422" on="0"/>
        <pt x="255" y="403" on="0"/>
        <pt x="224" y="387" on="0"/>
        <pt x="207" y="377" on="0"/>
        <pt x="208" y="377" on="1"/>
        <pt x="138" y="487" on="1"/>
        <pt x="159" y="501" on="0"/>
        <pt x="213" y="531" on="0"/>
        <pt x="274" y="555" on="0"/>
        <pt x="339" y="571" on="0"/>
        <pt x="371" y="571" on="1"/>
        <pt x="429" y="571" on="0"/>
        <pt x="513" y="545" on="0"/>
        <pt x="584" y="513" on="0"/>
        <pt x="652" y="487" on="0"/>
        <pt x="694" y="487" on="1"/>
        <pt x="703" y="487" on="0"/>
        <pt x="721" y="489" on="0"/>
        <pt x="730" y="492" on="1"/>
        <pt x="756" y="500" on="0"/>
        <pt x="801" y="520" on="0"/>
        <pt x="832" y="537" on="0"/>
        <pt x="850" y="549" on="0"/>
        <pt x="849" y="549" on="1"/>
        <pt x="919" y="438" on="1"/>
        <pt x="875" y="411" on="1"/>
        <pt x="830" y="385" on="0"/>
        <pt x="728" y="349" on="0"/>
        <pt x="676" y="349" on="1"/>
        <pt x="628" y="349" on="0"/>
        <pt x="547" y="371" on="0"/>
      </contour>
    </TTGlyph>
    <TTGlyph name="asterisk" xMin="96" yMin="594" xMax="876" yMax="1335">
      <contour>
        <pt x="540" y="1036" on="1"/>
        <pt x="825" y="1147" on="1"/>
        <pt x="876" y="999" on="1"/>
        <pt x="579" y="920" on="1"/>
        <pt x="767" y="688" on="1"/>
        <pt x="642" y="594" on="1"/>
        <pt x="481" y="844" on="1"/>
        <pt x="319" y="594" on="1"/>
        <pt x="190" y="684" on="1"/>
        <pt x="384" y="922" on="1"/>
        <pt x="96" y="997" on="1"/>
        <pt x="143" y="1147" on="1"/>
        <pt x="417" y="1038" on="1"/>
        <pt x="401" y="1335" on="1"/>
        <pt x="556" y="1335" on="1"/>
      </contour>
    </TTGlyph>
    <TTGlyph name="at" xMin="105" yMin="-217" xMax="1387" yMax="1094">
      <contour>
        <pt x="1010" y="231" on="1"/>
        <pt x="1020" y="213" on="0"/>
        <pt x="1067" y="184" on="0"/>
        <pt x="1098" y="184" on="1"/>
        <pt x="1123" y="184" on="0"/>
        <pt x="1173" y="210" on="0"/>
        <pt x="1214" y="273" on="0"/>
        <pt x="1240" y="380" on="0"/>
        <pt x="1240" y="461" on="1"/>
        <pt x="1240" y="519" on="0"/>
        <pt x="1218" y="639" on="0"/>
        <pt x="1171" y="751" on="0"/>
        <pt x="1096" y="850" on="0"/>
        <pt x="988" y="924" on="0"/>
        <pt x="846" y="967" on="0"/>
        <pt x="756" y="967" on="1"/>
        <pt x="652" y="967" on="0"/>
        <pt x="472" y="894" on="0"/>
        <pt x="339" y="757" on="0"/>
        <pt x="263" y="560" on="0"/>
        <pt x="263" y="436" on="1"/>
        <pt x="263" y="283" on="0"/>
        <pt x="343" y="81" on="0"/>
        <pt x="476" y="-40" on="0"/>
        <pt x="650" y="-90" on="0"/>
        <pt x="744" y="-90" on="1"/>
        <pt x="792" y="-90" on="0"/>
        <pt x="884" y="-70" on="0"/>
        <pt x="920" y="-58" on="1"/>
        <pt x="962" y="-44" on="0"/>
        <pt x="1000" y="-25" on="1"/>
        <pt x="1068" y="-123" on="1"/>
        <pt x="1030" y="-150" on="0"/>
        <pt x="981" y="-170" on="1"/>
        <pt x="939" y="-188" on="0"/>
        <pt x="817" y="-217" on="0"/>
        <pt x="740" y="-217" on="1"/>
        <pt x="579" y="-217" on="0"/>
        <pt x="340" y="-116" on="0"/>
        <pt x="182" y="59" on="0"/>
        <pt x="105" y="298" on="0"/>
        <pt x="105" y="436" on="1"/>
        <pt x="105" y="507" on="0"/>
        <pt x="137" y="659" on="0"/>
        <pt x="204" y="805" on="0"/>
        <pt x="308" y="937" on="0"/>
        <pt x="453" y="1036" on="0"/>
        <pt x="640" y="1094" on="0"/>
        <pt x="756" y="1094" on="1"/>
        <pt x="913" y="1094" on="0"/>
        <pt x="1150" y="987" on="0"/>
        <pt x="1308" y="811" on="0"/>
        <pt x="1387" y="583" on="0"/>
        <pt x="1387" y="463" on="1"/>
        <pt x="1387" y="368" on="0"/>
        <pt x="1336" y="219" on="0"/>
        <pt x="1254" y="117" on="0"/>
        <pt x="1149" y="63" on="0"/>
        <pt x="1094" y="63" on="1"/>
        <pt x="1046" y="63" on="0"/>
        <pt x="955" y="108" on="0"/>
        <pt x="918" y="156" on="1"/>
        <pt x="900" y="133" on="0"/>
        <pt x="874" y="115" on="1"/>
        <pt x="852" y="99" on="0"/>
        <pt x="785" y="74" on="0"/>
        <pt x="740" y="74" on="1"/>
        <pt x="686" y="74" on="0"/>
        <pt x="581" y="111" on="0"/>
        <pt x="499" y="192" on="0"/>
        <pt x="449" y="320" on="0"/>
        <pt x="449" y="412" on="1"/>
        <pt x="449" y="503" on="0"/>
        <pt x="501" y="631" on="0"/>
        <pt x="591" y="711" on="0"/>
        <pt x="711" y="748" on="0"/>
        <pt x="779" y="748" on="1"/>
        <pt x="825" y="748" on="0"/>
        <pt x="909" y="725" on="0"/>
        <pt x="978" y="694" on="0"/>
        <pt x="1010" y="674" on="1"/>
      </contour>
      <contour>
        <pt x="752" y="195" on="1"/>
        <pt x="789" y="195" on="0"/>
        <pt x="839" y="214" on="0"/>
        <pt x="870" y="238" on="0"/>
        <pt x="879" y="254" on="1"/>
        <pt x="879" y="602" on="1"/>
        <pt x="865" y="609" on="0"/>
        <pt x="834" y="619" on="0"/>
        <pt x="796" y="627" on="0"/>
        <pt x="775" y="627" on="1"/>
        <pt x="688" y="627" on="0"/>
        <pt x="605" y="524" on="0"/>
        <pt x="605" y="410" on="1"/>
        <pt x="605" y="354" on="0"/>
        <pt x="629" y="272" on="0"/>
        <pt x="669" y="220" on="0"/>
        <pt x="723" y="195" on="0"/>
      </contour>
    </TTGlyph>
    <TTGlyph name="atilde" xMin="79" yMin="-35" xMax="1039" yMax="1297">
      <component glyphName="a" x="0" y="0" flags="0x204"/>
      <component glyphName="tilde" x="-60" y="61" flags="0x4"/>
    </TTGlyph>
    <TTGlyph name="b" xMin="-46" yMin="-31" xMax="982" yMax="1329">
      <contour>
        <pt x="-3" y="1329" on="1"/>
        <pt x="308" y="1223" on="1"/>
        <pt x="308" y="842" on="1"/>
        <pt x="356" y="868" on="0"/>
        <pt x="475" y="909" on="0"/>
        <pt x="544" y="909" on="1"/>
        <pt x="639" y="909" on="0"/>
        <pt x="800" y="851" on="0"/>
        <pt x="917" y="739" on="0"/>
        <pt x="982" y="572" on="0"/>
        <pt x="982" y="463" on="1"/>
        <pt x="982" y="353" on="0"/>
        <pt x="917" y="171" on="0"/>
        <pt x="799" y="41" on="0"/>
        <pt x="635" y="-31" on="0"/>
        <pt x="536" y="-31" on="1"/>
        <pt x="447" y="-31" on="0"/>
        <pt x="305" y="4" on="0"/>
        <pt x="254" y="26" on="1"/>
        <pt x="195" y="52" on="0"/>
        <pt x="149" y="84" on="1"/>
        <pt x="149" y="1135" on="1"/>
        <pt x="-46" y="1202" on="1"/>
      </contour>
      <contour>
        <pt x="534" y="100" on="1"/>
        <pt x="604" y="100" on="0"/>
        <pt x="711" y="153" on="0"/>
        <pt x="782" y="249" on="0"/>
        <pt x="818" y="382" on="0"/>
        <pt x="818" y="463" on="1"/>
        <pt x="818" y="618" on="0"/>
        <pt x="682" y="778" on="0"/>
        <pt x="542" y="778" on="1"/>
        <pt x="487" y="778" on="0"/>
        <pt x="401" y="754" on="0"/>
        <pt x="371" y="740" on="1"/>
        <pt x="336" y="723" on="0"/>
        <pt x="308" y="702" on="1"/>
        <pt x="308" y="152" on="1"/>
        <pt x="333" y="137" on="0"/>
        <pt x="366" y="126" on="1"/>
        <pt x="395" y="116" on="0"/>
        <pt x="479" y="100" on="0"/>
      </contour>
    </TTGlyph>
    <TTGlyph name="backslash" xMin="51" yMin="-268" xMax="872" yMax="1206">
      <contour>
        <pt x="51" y="1206" on="1"/>
        <pt x="200" y="1206" on="1"/>
        <pt x="872" y="-268" on="1"/>
        <pt x="720" y="-268" on="1"/>
      </contour>
    </TTGlyph>
    <TTGlyph name="bar" xMin="157" yMin="-424" xMax="302" yMax="1337">
      <contour>
        <pt x="157" y="1337" on="1"/>
        <pt x="302" y="1337" on="1"/>
        <pt x="302" y="-424" on="1"/>
        <pt x="157" y="-424" on="1"/>
      </contour>
    </TTGlyph>
    <TTGlyph name="braceleft" xMin="30" yMin="-268" xMax="560" yMax="1335">
      <contour>
        <pt x="542" y="-268" on="1"/>
        <pt x="378" y="-256" on="0"/>
        <pt x="233" y="-82" on="0"/>
        <pt x="233" y="76" on="1"/>
        <pt x="233" y="305" on="1"/>
        <pt x="233" y="324" on="0"/>
        <pt x="233" y="380" on="0"/>
        <pt x="224" y="431" on="0"/>
        <pt x="201" y="467" on="0"/>
        <pt x="178" y="467" on="1"/>
        <pt x="30" y="467" on="1"/>
        <pt x="30" y="580" on="1"/>
        <pt x="178" y="580" on="1"/>
        <pt x="201" y="580" on="0"/>
        <pt x="224" y="616" on="0"/>
        <pt x="233" y="667" on="0"/>
        <pt x="233" y="722" on="0"/>
        <pt x="233" y="741" on="1"/>
        <pt x="233" y="991" on="1"/>
        <pt x="233" y="1149" on="0"/>
        <pt x="378" y="1323" on="0"/>
        <pt x="542" y="1335" on="1"/>
        <pt x="560" y="1210" on="1"/>
        <pt x="502" y="1203" on="0"/>
        <pt x="430" y="1160" on="0"/>
        <pt x="391" y="1094" on="0"/>
        <pt x="378" y="1007" on="0"/>
        <pt x="378" y="958" on="1"/>
        <pt x="378" y="700" on="1"/>
        <pt x="378" y="626" on="0"/>
        <pt x="322" y="544" on="0"/>
        <pt x="274" y="522" on="1"/>
        <pt x="322" y="502" on="0"/>
        <pt x="378" y="418" on="0"/>
        <pt x="378" y="346" on="1"/>
        <pt x="378" y="109" on="1"/>
        <pt x="378" y="59" on="0"/>
        <pt x="391" y="-27" on="0"/>
        <pt x="430" y="-93" on="0"/>
        <pt x="502" y="-136" on="0"/>
        <pt x="560" y="-143" on="1"/>
      </contour>
    </TTGlyph>
    <TTGlyph name="braceright" xMin="71" yMin="-268" xMax="602" yMax="1335">
      <contour>
        <pt x="71" y="-143" on="1"/>
        <pt x="129" y="-136" on="0"/>
        <pt x="201" y="-93" on="0"/>
        <pt x="241" y="-27" on="0"/>
        <pt x="254" y="59" on="0"/>
        <pt x="254" y="109" on="1"/>
        <pt x="254" y="346" on="1"/>
        <pt x="254" y="418" on="0"/>
        <pt x="310" y="502" on="0"/>
        <pt x="358" y="522" on="1"/>
        <pt x="310" y="544" on="0"/>
        <pt x="254" y="626" on="0"/>
        <pt x="254" y="700" on="1"/>
        <pt x="254" y="958" on="1"/>
        <pt x="254" y="1007" on="0"/>
        <pt x="241" y="1094" on="0"/>
        <pt x="201" y="1160" on="0"/>
        <pt x="129" y="1203" on="0"/>
        <pt x="71" y="1210" on="1"/>
        <pt x="90" y="1335" on="1"/>
        <pt x="254" y="1323" on="0"/>
        <pt x="399" y="1149" on="0"/>
        <pt x="399" y="991" on="1"/>
        <pt x="399" y="741" on="1"/>
        <pt x="399" y="722" on="0"/>
        <pt x="399" y="667" on="0"/>
        <pt x="408" y="616" on="0"/>
        <pt x="431" y="580" on="0"/>
        <pt x="454" y="580" on="1"/>
        <pt x="602" y="580" on="1"/>
        <pt x="602" y="467" on="1"/>
        <pt x="454" y="467" on="1"/>
        <pt x="431" y="467" on="0"/>
        <pt x="408" y="431" on="0"/>
        <pt x="399" y="380" on="0"/>
        <pt x="399" y="324" on="0"/>
        <pt x="399" y="305" on="1"/>
        <pt x="399" y="76" on="1"/>
        <pt x="399" y="-82" on="0"/>
        <pt x="254" y="-256" on="0"/>
        <pt x="90" y="-268" on="1"/>
      </contour>
    </TTGlyph>
    <TTGlyph name="bracketleft" xMin="160" yMin="-254" xMax="528" yMax="1335">
      <contour>
        <pt x="317" y="-125" on="1"/>
        <pt x="528" y="-125" on="1"/>
        <pt x="528" y="-254" on="1"/>
        <pt x="160" y="-254" on="1"/>
        <pt x="160" y="1335" on="1"/>
        <pt x="528" y="1335" on="1"/>
        <pt x="528" y="1206" on="1"/>
        <pt x="317" y="1206" on="1"/>
      </contour>
    </TTGlyph>
    <TTGlyph name="bracketright" xMin="67" yMin="-254" xMax="436" yMax="1335">
      <contour>
        <pt x="278" y="1206" on="1"/>
        <pt x="67" y="1206" on="1"/>
        <pt x="67" y="1335" on="1"/>
        <pt x="436" y="1335" on="1"/>
        <pt x="436" y="-254" on="1"/>
        <pt x="67" y="-254" on="1"/>
        <pt x="67" y="-125" on="1"/>
        <pt x="278" y="-125" on="1"/>
      </contour>
    </TTGlyph>
    <TTGlyph name="brokenbar" xMin="164" yMin="-428" xMax="308" yMax="1337">
      <contour>
        <pt x="164" y="1337" on="1"/>
        <pt x="308" y="1337" on="1"/>
        <pt x="308" y="614" on="1"/>
        <pt x="164" y="614" on="1"/>
      </contour>
      <contour>
        <pt x="164" y="295" on="1"/>
        <pt x="308" y="295" on="1"/>
        <pt x="308" y="-428" on="1"/>
        <pt x="164" y="-428" on="1"/>
      </contour>
    </TTGlyph>
    <TTGlyph name="bullet" xMin="112" yMin="414" xMax="587" yMax="889">
      <contour>
        <pt x="112" y="651" on="1"/>
        <pt x="112" y="700" on="0"/>
        <pt x="150" y="787" on="0"/>
        <pt x="214" y="851" on="0"/>
        <pt x="301" y="889" on="0"/>
        <pt x="350" y="889" on="1"/>
        <pt x="399" y="889" on="0"/>
        <pt x="485" y="851" on="0"/>
        <pt x="550" y="787" on="0"/>
        <pt x="587" y="700" on="0"/>
        <pt x="587" y="651" on="1"/>
        <pt x="587" y="602" on="0"/>
        <pt x="550" y="516" on="0"/>
        <pt x="485" y="451" on="0"/>
        <pt x="399" y="414" on="0"/>
        <pt x="350" y="414" on="1"/>
        <pt x="301" y="414" on="0"/>
        <pt x="214" y="451" on="0"/>
        <pt x="150" y="516" on="0"/>
        <pt x="112" y="602" on="0"/>
      </contour>
    </TTGlyph>
    <TTGlyph name="c" xMin="94" yMin="-31" xMax="887" yMax="909">
      <contour>
        <pt x="733" y="610" on="1"/>
        <pt x="707" y="752" on="1"/>
        <pt x="694" y="758" on="0"/>
        <pt x="615" y="778" on="0"/>
        <pt x="543" y="778" on="1"/>
        <pt x="401" y="778" on="0"/>
        <pt x="258" y="601" on="0"/>
        <pt x="258" y="440" on="1"/>
        <pt x="258" y="279" on="0"/>
        <pt x="401" y="100" on="0"/>
        <pt x="543" y="100" on="1"/>
        <pt x="600" y="100" on="0"/>
        <pt x="700" y="127" on="0"/>
        <pt x="738" y="144" on="1"/>
        <pt x="782" y="163" on="0"/>
        <pt x="819" y="188" on="1"/>
        <pt x="887" y="88" on="1"/>
        <pt x="887" y="87" on="0"/>
        <pt x="832" y="50" on="0"/>
        <pt x="738" y="6" on="0"/>
        <pt x="612" y="-31" on="0"/>
        <pt x="541" y="-31" on="1"/>
        <pt x="442" y="-31" on="0"/>
        <pt x="278" y="34" on="0"/>
        <pt x="159" y="155" on="0"/>
        <pt x="94" y="330" on="0"/>
        <pt x="94" y="440" on="1"/>
        <pt x="94" y="550" on="0"/>
        <pt x="159" y="724" on="0"/>
        <pt x="278" y="845" on="0"/>
        <pt x="442" y="909" on="0"/>
        <pt x="541" y="909" on="1"/>
        <pt x="613" y="909" on="0"/>
        <pt x="717" y="893" on="0"/>
        <pt x="752" y="884" on="1"/>
        <pt x="792" y="873" on="0"/>
        <pt x="821" y="860" on="1"/>
        <pt x="864" y="639" on="1"/>
      </contour>
    </TTGlyph>
    <TTGlyph name="caron" xMin="37" yMin="975" xMax="655" yMax="1260">
      <contour>
        <pt x="37" y="1194" on="1"/>
        <pt x="74" y="1260" on="1"/>
        <pt x="346" y="1124" on="1"/>
        <pt x="618" y="1260" on="1"/>
        <pt x="655" y="1194" on="1"/>
        <pt x="346" y="975" on="1"/>
      </contour>
    </TTGlyph>
    <TTGlyph name="ccedilla" xMin="96" yMin="-436" xMax="889" yMax="909">
      <contour>
        <pt x="735" y="610" on="1"/>
        <pt x="709" y="752" on="1"/>
        <pt x="696" y="758" on="0"/>
        <pt x="617" y="778" on="0"/>
        <pt x="545" y="778" on="1"/>
        <pt x="403" y="778" on="0"/>
        <pt x="260" y="601" on="0"/>
        <pt x="260" y="440" on="1"/>
        <pt x="260" y="279" on="0"/>
        <pt x="403" y="100" on="0"/>
        <pt x="545" y="100" on="1"/>
        <pt x="590" y="100" on="0"/>
        <pt x="671" y="116" on="0"/>
        <pt x="741" y="141" on="0"/>
        <pt x="798" y="173" on="0"/>
        <pt x="821" y="188" on="1"/>
        <pt x="889" y="88" on="1"/>
        <pt x="889" y="87" on="0"/>
        <pt x="834" y="50" on="0"/>
        <pt x="740" y="6" on="0"/>
        <pt x="614" y="-31" on="0"/>
        <pt x="543" y="-31" on="1"/>
        <pt x="522" y="-31" on="1"/>
        <pt x="522" y="-109" on="1"/>
        <pt x="630" y="-109" on="0"/>
        <pt x="744" y="-184" on="0"/>
        <pt x="744" y="-268" on="1"/>
        <pt x="744" y="-313" on="0"/>
        <pt x="708" y="-376" on="0"/>
        <pt x="646" y="-417" on="0"/>
        <pt x="566" y="-436" on="0"/>
        <pt x="522" y="-436" on="1"/>
        <pt x="472" y="-436" on="0"/>
        <pt x="392" y="-412" on="0"/>
        <pt x="335" y="-384" on="0"/>
        <pt x="304" y="-360" on="0"/>
        <pt x="303" y="-360" on="1"/>
        <pt x="348" y="-285" on="1"/>
        <pt x="374" y="-304" on="0"/>
        <pt x="461" y="-338" on="0"/>
        <pt x="518" y="-338" on="1"/>
        <pt x="578" y="-338" on="0"/>
        <pt x="631" y="-302" on="0"/>
        <pt x="631" y="-268" on="1"/>
        <pt x="631" y="-253" on="0"/>
        <pt x="622" y="-227" on="0"/>
        <pt x="594" y="-209" on="0"/>
        <pt x="541" y="-199" on="0"/>
        <pt x="496" y="-199" on="1"/>
        <pt x="420" y="-199" on="1"/>
        <pt x="420" y="-16" on="1"/>
        <pt x="346" y="2" on="0"/>
        <pt x="226" y="80" on="0"/>
        <pt x="142" y="196" on="0"/>
        <pt x="96" y="348" on="0"/>
        <pt x="96" y="440" on="1"/>
        <pt x="96" y="550" on="0"/>
        <pt x="161" y="724" on="0"/>
        <pt x="280" y="845" on="0"/>
        <pt x="444" y="909" on="0"/>
        <pt x="543" y="909" on="1"/>
        <pt x="600" y="909" on="0"/>
        <pt x="689" y="900" on="0"/>
        <pt x="757" y="886" on="0"/>
        <pt x="806" y="868" on="0"/>
        <pt x="823" y="860" on="1"/>
        <pt x="866" y="639" on="1"/>
      </contour>
    </TTGlyph>
    <TTGlyph name="cedilla" xMin="39" yMin="-457" xMax="479" yMax="63">
      <contour>
        <pt x="258" y="-129" on="1"/>
        <pt x="364" y="-129" on="0"/>
        <pt x="479" y="-205" on="0"/>
        <pt x="479" y="-289" on="1"/>
        <pt x="479" y="-334" on="0"/>
        <pt x="443" y="-397" on="0"/>
        <pt x="382" y="-438" on="0"/>
        <pt x="302" y="-457" on="0"/>
        <pt x="258" y="-457" on="1"/>
        <pt x="208" y="-457" on="0"/>
        <pt x="128" y="-433" on="0"/>
        <pt x="71" y="-405" on="0"/>
        <pt x="40" y="-381" on="0"/>
        <pt x="39" y="-381" on="1"/>
        <pt x="84" y="-305" on="1"/>
        <pt x="107" y="-321" on="0"/>
        <pt x="157" y="-342" on="0"/>
        <pt x="219" y="-358" on="0"/>
        <pt x="254" y="-358" on="1"/>
        <pt x="313" y="-358" on="0"/>
        <pt x="367" y="-323" on="0"/>
        <pt x="367" y="-289" on="1"/>
        <pt x="367" y="-274" on="0"/>
        <pt x="358" y="-248" on="0"/>
        <pt x="329" y="-229" on="0"/>
        <pt x="276" y="-219" on="0"/>
        <pt x="231" y="-219" on="1"/>
        <pt x="156" y="-219" on="1"/>
        <pt x="156" y="63" on="1"/>
        <pt x="157" y="62" on="0"/>
        <pt x="258" y="43" on="1"/>
      </contour>
    </TTGlyph>
    <TTGlyph name="cent" xMin="70" yMin="-154" xMax="862" yMax="1335">
      <contour>
        <pt x="709" y="770" on="1"/>
        <pt x="682" y="911" on="1"/>
        <pt x="673" y="916" on="0"/>
        <pt x="623" y="931" on="0"/>
        <pt x="580" y="936" on="1"/>
        <pt x="580" y="266" on="1"/>
        <pt x="625" y="273" on="0"/>
        <pt x="703" y="301" on="0"/>
        <pt x="732" y="315" on="1"/>
        <pt x="766" y="332" on="0"/>
        <pt x="795" y="350" on="1"/>
        <pt x="862" y="250" on="1"/>
        <pt x="862" y="249" on="0"/>
        <pt x="819" y="219" on="0"/>
        <pt x="743" y="180" on="0"/>
        <pt x="640" y="143" on="0"/>
        <pt x="580" y="135" on="1"/>
        <pt x="580" y="-154" on="1"/>
        <pt x="438" y="-154" on="1"/>
        <pt x="438" y="135" on="1"/>
        <pt x="355" y="147" on="0"/>
        <pt x="219" y="222" on="0"/>
        <pt x="123" y="340" on="0"/>
        <pt x="70" y="501" on="0"/>
        <pt x="70" y="600" on="1"/>
        <pt x="70" y="698" on="0"/>
        <pt x="123" y="859" on="0"/>
        <pt x="219" y="977" on="0"/>
        <pt x="355" y="1051" on="0"/>
        <pt x="438" y="1063" on="1"/>
        <pt x="438" y="1335" on="1"/>
        <pt x="580" y="1335" on="1"/>
        <pt x="580" y="1067" on="1"/>
        <pt x="634" y="1063" on="0"/>
        <pt x="716" y="1048" on="0"/>
        <pt x="743" y="1040" on="1"/>
        <pt x="775" y="1030" on="0"/>
        <pt x="797" y="1020" on="1"/>
        <pt x="840" y="799" on="1"/>
      </contour>
      <contour>
        <pt x="234" y="600" on="1"/>
        <pt x="234" y="463" on="0"/>
        <pt x="335" y="293" on="0"/>
        <pt x="438" y="270" on="1"/>
        <pt x="438" y="930" on="1"/>
        <pt x="335" y="907" on="0"/>
        <pt x="234" y="737" on="0"/>
      </contour>
    </TTGlyph>
    <TTGlyph name="circumflex" xMin="37" yMin="1001" xMax="655" yMax="1286">
      <contour>
        <pt x="346" y="1286" on="1"/>
        <pt x="655" y="1067" on="1"/>
        <pt x="618" y="1001" on="1"/>
        <pt x="346" y="1137" on="1"/>
        <pt x="74" y="1001" on="1"/>
        <pt x="37" y="1067" on="1"/>
      </contour>
    </TTGlyph>
    <TTGlyph name="colon" xMin="139" yMin="-31" xMax="393" yMax="909">
      <contour>
        <pt x="393" y="96" on="1"/>
        <pt x="393" y="70" on="0"/>
        <pt x="372" y="24" on="0"/>
        <pt x="337" y="-11" on="0"/>
        <pt x="291" y="-31" on="0"/>
        <pt x="266" y="-31" on="1"/>
        <pt x="240" y="-31" on="0"/>
        <pt x="193" y="-11" on="0"/>
        <pt x="159" y="24" on="0"/>
        <pt x="139" y="70" on="0"/>
        <pt x="139" y="96" on="1"/>
        <pt x="139" y="121" on="0"/>
        <pt x="159" y="168" on="0"/>
        <pt x="193" y="202" on="0"/>
        <pt x="240" y="223" on="0"/>
        <pt x="266" y="223" on="1"/>
        <pt x="291" y="223" on="0"/>
        <pt x="337" y="202" on="0"/>
        <pt x="372" y="168" on="0"/>
        <pt x="393" y="121" on="0"/>
      </contour>
      <contour>
        <pt x="393" y="782" on="1"/>
        <pt x="393" y="756" on="0"/>
        <pt x="372" y="710" on="0"/>
        <pt x="337" y="675" on="0"/>
        <pt x="291" y="655" on="0"/>
        <pt x="266" y="655" on="1"/>
        <pt x="240" y="655" on="0"/>
        <pt x="193" y="675" on="0"/>
        <pt x="159" y="710" on="0"/>
        <pt x="139" y="756" on="0"/>
        <pt x="139" y="782" on="1"/>
        <pt x="139" y="807" on="0"/>
        <pt x="159" y="854" on="0"/>
        <pt x="193" y="888" on="0"/>
        <pt x="240" y="909" on="0"/>
        <pt x="266" y="909" on="1"/>
        <pt x="291" y="909" on="0"/>
        <pt x="337" y="888" on="0"/>
        <pt x="372" y="854" on="0"/>
        <pt x="393" y="807" on="0"/>
      </contour>
    </TTGlyph>
    <TTGlyph name="comma" xMin="129" yMin="-248" xMax="401" yMax="223">
      <contour>
        <pt x="401" y="84" on="1"/>
        <pt x="401" y="54" on="0"/>
        <pt x="386" y="-6" on="0"/>
        <pt x="361" y="-63" on="0"/>
        <pt x="329" y="-117" on="0"/>
        <pt x="272" y="-196" on="0"/>
        <pt x="221" y="-248" on="1"/>
        <pt x="149" y="-186" on="1"/>
        <pt x="166" y="-160" on="0"/>
        <pt x="184" y="-132" on="1"/>
        <pt x="198" y="-108" on="0"/>
        <pt x="231" y="-51" on="0"/>
        <pt x="243" y="-23" on="1"/>
        <pt x="225" y="-21" on="0"/>
        <pt x="187" y="-8" on="0"/>
        <pt x="152" y="21" on="0"/>
        <pt x="129" y="68" on="0"/>
        <pt x="129" y="96" on="1"/>
        <pt x="129" y="124" on="0"/>
        <pt x="149" y="171" on="0"/>
        <pt x="185" y="205" on="0"/>
        <pt x="233" y="223" on="0"/>
        <pt x="262" y="223" on="1"/>
        <pt x="289" y="223" on="0"/>
        <pt x="340" y="201" on="0"/>
        <pt x="378" y="163" on="0"/>
        <pt x="401" y="112" on="0"/>
      </contour>
    </TTGlyph>
    <TTGlyph name="copyright" xMin="96" yMin="-129" xMax="1560" yMax="1335">
      <contour>
        <pt x="1153" y="428" on="1"/>
        <pt x="1100" y="264" on="1"/>
        <pt x="1071" y="250" on="0"/>
        <pt x="1033" y="239" on="1"/>
        <pt x="1001" y="230" on="0"/>
        <pt x="911" y="215" on="0"/>
        <pt x="856" y="215" on="1"/>
        <pt x="767" y="215" on="0"/>
        <pt x="625" y="264" on="0"/>
        <pt x="524" y="361" on="0"/>
        <pt x="469" y="505" on="0"/>
        <pt x="467" y="600" on="1"/>
        <pt x="467" y="697" on="0"/>
        <pt x="522" y="843" on="0"/>
        <pt x="623" y="941" on="0"/>
        <pt x="767" y="991" on="0"/>
        <pt x="856" y="991" on="1"/>
        <pt x="916" y="991" on="0"/>
        <pt x="1008" y="969" on="0"/>
        <pt x="1040" y="955" on="1"/>
        <pt x="1077" y="939" on="0"/>
        <pt x="1104" y="920" on="1"/>
        <pt x="1151" y="774" on="1"/>
        <pt x="1038" y="739" on="1"/>
        <pt x="1001" y="838" on="1"/>
        <pt x="987" y="846" on="0"/>
        <pt x="968" y="853" on="1"/>
        <pt x="951" y="858" on="0"/>
        <pt x="902" y="868" on="0"/>
        <pt x="868" y="868" on="1"/>
        <pt x="800" y="868" on="0"/>
        <pt x="703" y="828" on="0"/>
        <pt x="641" y="756" on="0"/>
        <pt x="612" y="659" on="0"/>
        <pt x="612" y="602" on="1"/>
        <pt x="612" y="546" on="0"/>
        <pt x="643" y="449" on="0"/>
        <pt x="706" y="377" on="0"/>
        <pt x="803" y="336" on="0"/>
        <pt x="868" y="336" on="1"/>
        <pt x="894" y="336" on="0"/>
        <pt x="943" y="344" on="0"/>
        <pt x="980" y="355" on="0"/>
        <pt x="1003" y="365" on="0"/>
        <pt x="1003" y="367" on="1"/>
        <pt x="1034" y="463" on="1"/>
      </contour>
      <contour>
        <pt x="96" y="600" on="1"/>
        <pt x="96" y="761" on="0"/>
        <pt x="206" y="1031" on="0"/>
        <pt x="402" y="1226" on="0"/>
        <pt x="671" y="1335" on="0"/>
        <pt x="831" y="1335" on="1"/>
        <pt x="990" y="1335" on="0"/>
        <pt x="1258" y="1226" on="0"/>
        <pt x="1451" y="1031" on="0"/>
        <pt x="1560" y="761" on="0"/>
        <pt x="1560" y="600" on="1"/>
        <pt x="1560" y="495" on="0"/>
        <pt x="1511" y="305" on="0"/>
        <pt x="1420" y="143" on="0"/>
        <pt x="1289" y="13" on="0"/>
        <pt x="1127" y="-79" on="0"/>
        <pt x="937" y="-129" on="0"/>
        <pt x="831" y="-129" on="1"/>
        <pt x="671" y="-129" on="0"/>
        <pt x="402" y="-19" on="0"/>
        <pt x="206" y="175" on="0"/>
        <pt x="96" y="442" on="0"/>
      </contour>
      <contour>
        <pt x="225" y="590" on="1"/>
        <pt x="225" y="465" on="0"/>
        <pt x="311" y="249" on="0"/>
        <pt x="468" y="90" on="0"/>
        <pt x="689" y="0" on="0"/>
        <pt x="823" y="0" on="1"/>
        <pt x="957" y="0" on="0"/>
        <pt x="1180" y="90" on="0"/>
        <pt x="1341" y="249" on="0"/>
        <pt x="1431" y="465" on="0"/>
        <pt x="1431" y="590" on="1"/>
        <pt x="1431" y="720" on="0"/>
        <pt x="1341" y="946" on="0"/>
        <pt x="1180" y="1111" on="0"/>
        <pt x="957" y="1206" on="0"/>
        <pt x="823" y="1206" on="1"/>
        <pt x="689" y="1206" on="0"/>
        <pt x="468" y="1111" on="0"/>
        <pt x="311" y="946" on="0"/>
        <pt x="225" y="720" on="0"/>
      </contour>
    </TTGlyph>
    <TTGlyph name="currency" xMin="120" yMin="80" xMax="960" yMax="887">
      <contour>
        <pt x="192" y="479" on="1"/>
        <pt x="192" y="538" on="0"/>
        <pt x="228" y="641" on="0"/>
        <pt x="260" y="684" on="1"/>
        <pt x="120" y="778" on="1"/>
        <pt x="194" y="887" on="1"/>
        <pt x="362" y="772" on="1"/>
        <pt x="400" y="795" on="0"/>
        <pt x="493" y="819" on="0"/>
        <pt x="542" y="819" on="1"/>
        <pt x="592" y="819" on="0"/>
        <pt x="680" y="796" on="0"/>
        <pt x="720" y="774" on="1"/>
        <pt x="886" y="887" on="1"/>
        <pt x="958" y="780" on="1"/>
        <pt x="823" y="688" on="1"/>
        <pt x="858" y="645" on="0"/>
        <pt x="897" y="539" on="0"/>
        <pt x="897" y="479" on="1"/>
        <pt x="897" y="420" on="0"/>
        <pt x="861" y="318" on="0"/>
        <pt x="829" y="276" on="1"/>
        <pt x="960" y="190" on="1"/>
        <pt x="886" y="82" on="1"/>
        <pt x="725" y="188" on="1"/>
        <pt x="684" y="167" on="0"/>
        <pt x="593" y="143" on="0"/>
        <pt x="542" y="143" on="1"/>
        <pt x="491" y="143" on="0"/>
        <pt x="398" y="167" on="0"/>
        <pt x="358" y="190" on="1"/>
        <pt x="194" y="80" on="1"/>
        <pt x="120" y="188" on="1"/>
        <pt x="258" y="279" on="1"/>
        <pt x="227" y="321" on="0"/>
        <pt x="192" y="420" on="0"/>
      </contour>
      <contour>
        <pt x="325" y="479" on="1"/>
        <pt x="325" y="434" on="0"/>
        <pt x="359" y="354" on="0"/>
        <pt x="417" y="294" on="0"/>
        <pt x="497" y="260" on="0"/>
        <pt x="542" y="260" on="1"/>
        <pt x="589" y="260" on="0"/>
        <pt x="669" y="294" on="0"/>
        <pt x="728" y="354" on="0"/>
        <pt x="761" y="434" on="0"/>
        <pt x="761" y="479" on="1"/>
        <pt x="761" y="525" on="0"/>
        <pt x="728" y="606" on="0"/>
        <pt x="669" y="667" on="0"/>
        <pt x="589" y="702" on="0"/>
        <pt x="542" y="702" on="1"/>
        <pt x="497" y="702" on="0"/>
        <pt x="417" y="667" on="0"/>
        <pt x="359" y="606" on="0"/>
        <pt x="325" y="525" on="0"/>
      </contour>
    </TTGlyph>
    <TTGlyph name="d" xMin="92" yMin="-35" xMax="1118" yMax="1329">
      <contour>
        <pt x="1118" y="96" on="1"/>
        <pt x="1077" y="-35" on="1"/>
        <pt x="805" y="59" on="1"/>
        <pt x="780" y="41" on="0"/>
        <pt x="721" y="9" on="0"/>
        <pt x="654" y="-16" on="0"/>
        <pt x="579" y="-31" on="0"/>
        <pt x="539" y="-31" on="1"/>
        <pt x="440" y="-31" on="0"/>
        <pt x="276" y="40" on="0"/>
        <pt x="157" y="169" on="0"/>
        <pt x="92" y="349" on="0"/>
        <pt x="92" y="459" on="1"/>
        <pt x="92" y="558" on="0"/>
        <pt x="161" y="723" on="0"/>
        <pt x="282" y="843" on="0"/>
        <pt x="445" y="909" on="0"/>
        <pt x="539" y="909" on="1"/>
        <pt x="607" y="909" on="0"/>
        <pt x="718" y="885" on="0"/>
        <pt x="766" y="866" on="1"/>
        <pt x="766" y="1135" on="1"/>
        <pt x="572" y="1202" on="1"/>
        <pt x="615" y="1329" on="1"/>
        <pt x="926" y="1223" on="1"/>
        <pt x="926" y="162" on="1"/>
      </contour>
      <contour>
        <pt x="541" y="778" on="1"/>
        <pt x="476" y="778" on="0"/>
        <pt x="370" y="730" on="0"/>
        <pt x="296" y="645" on="0"/>
        <pt x="256" y="529" on="0"/>
        <pt x="256" y="461" on="1"/>
        <pt x="256" y="380" on="0"/>
        <pt x="292" y="247" on="0"/>
        <pt x="363" y="152" on="0"/>
        <pt x="470" y="100" on="0"/>
        <pt x="541" y="100" on="1"/>
        <pt x="579" y="100" on="0"/>
        <pt x="647" y="116" on="0"/>
        <pt x="704" y="139" on="0"/>
        <pt x="750" y="165" on="0"/>
        <pt x="766" y="176" on="1"/>
        <pt x="766" y="727" on="1"/>
        <pt x="741" y="741" on="0"/>
        <pt x="708" y="752" on="1"/>
        <pt x="679" y="762" on="0"/>
        <pt x="595" y="778" on="0"/>
      </contour>
    </TTGlyph>
    <TTGlyph name="degree" xMin="111" yMin="817" xMax="528" yMax="1237">
      <contour>
        <pt x="528" y="1026" on="1"/>
        <pt x="528" y="975" on="0"/>
        <pt x="494" y="897" on="0"/>
        <pt x="436" y="844" on="0"/>
        <pt x="361" y="817" on="0"/>
        <pt x="319" y="817" on="1"/>
        <pt x="278" y="817" on="0"/>
        <pt x="203" y="844" on="0"/>
        <pt x="146" y="897" on="0"/>
        <pt x="111" y="975" on="0"/>
        <pt x="111" y="1026" on="1"/>
        <pt x="111" y="1077" on="0"/>
        <pt x="146" y="1155" on="0"/>
        <pt x="203" y="1209" on="0"/>
        <pt x="278" y="1237" on="0"/>
        <pt x="319" y="1237" on="1"/>
        <pt x="361" y="1237" on="0"/>
        <pt x="436" y="1209" on="0"/>
        <pt x="494" y="1155" on="0"/>
        <pt x="528" y="1077" on="0"/>
      </contour>
      <contour>
        <pt x="219" y="1026" on="1"/>
        <pt x="219" y="1000" on="0"/>
        <pt x="236" y="959" on="0"/>
        <pt x="264" y="932" on="0"/>
        <pt x="300" y="918" on="0"/>
        <pt x="319" y="918" on="1"/>
        <pt x="358" y="918" on="0"/>
        <pt x="418" y="973" on="0"/>
        <pt x="418" y="1026" on="1"/>
        <pt x="418" y="1079" on="0"/>
        <pt x="358" y="1135" on="0"/>
        <pt x="319" y="1135" on="1"/>
        <pt x="300" y="1135" on="0"/>
        <pt x="264" y="1121" on="0"/>
        <pt x="236" y="1093" on="0"/>
        <pt x="219" y="1052" on="0"/>
      </contour>
    </TTGlyph>
    <TTGlyph name="dieresis" xMin="61" yMin="997" xMax="655" yMax="1227">
      <contour>
        <pt x="291" y="1112" on="1"/>
        <pt x="291" y="1088" on="0"/>
        <pt x="272" y="1047" on="0"/>
        <pt x="241" y="1015" on="0"/>
        <pt x="199" y="997" on="0"/>
        <pt x="176" y="997" on="1"/>
        <pt x="152" y="997" on="0"/>
        <pt x="111" y="1015" on="0"/>
        <pt x="79" y="1047" on="0"/>
        <pt x="61" y="1088" on="0"/>
        <pt x="61" y="1112" on="1"/>
        <pt x="61" y="1135" on="0"/>
        <pt x="79" y="1177" on="0"/>
        <pt x="111" y="1208" on="0"/>
        <pt x="152" y="1227" on="0"/>
        <pt x="176" y="1227" on="1"/>
        <pt x="199" y="1227" on="0"/>
        <pt x="241" y="1208" on="0"/>
        <pt x="272" y="1177" on="0"/>
        <pt x="291" y="1135" on="0"/>
      </contour>
      <contour>
        <pt x="655" y="1112" on="1"/>
        <pt x="655" y="1088" on="0"/>
        <pt x="637" y="1047" on="0"/>
        <pt x="605" y="1015" on="0"/>
        <pt x="564" y="997" on="0"/>
        <pt x="541" y="997" on="1"/>
        <pt x="517" y="997" on="0"/>
        <pt x="475" y="1015" on="0"/>
        <pt x="444" y="1047" on="0"/>
        <pt x="426" y="1088" on="0"/>
        <pt x="426" y="1112" on="1"/>
        <pt x="426" y="1135" on="0"/>
        <pt x="444" y="1177" on="0"/>
        <pt x="475" y="1208" on="0"/>
        <pt x="517" y="1227" on="0"/>
        <pt x="541" y="1227" on="1"/>
        <pt x="564" y="1227" on="0"/>
        <pt x="605" y="1208" on="0"/>
        <pt x="637" y="1177" on="0"/>
        <pt x="655" y="1135" on="0"/>
      </contour>
    </TTGlyph>
    <TTGlyph name="divide" xMin="113" yMin="154" xMax="875" yMax="1061">
      <contour>
        <pt x="113" y="682" on="1"/>
        <pt x="875" y="682" on="1"/>
        <pt x="875" y="541" on="1"/>
        <pt x="113" y="541" on="1"/>
      </contour>
      <contour>
        <pt x="633" y="281" on="1"/>
        <pt x="633" y="255" on="0"/>
        <pt x="612" y="208" on="0"/>
        <pt x="578" y="174" on="0"/>
        <pt x="531" y="154" on="0"/>
        <pt x="506" y="154" on="1"/>
        <pt x="480" y="154" on="0"/>
        <pt x="433" y="174" on="0"/>
        <pt x="399" y="208" on="0"/>
        <pt x="379" y="255" on="0"/>
        <pt x="379" y="281" on="1"/>
        <pt x="379" y="306" on="0"/>
        <pt x="399" y="352" on="0"/>
        <pt x="433" y="387" on="0"/>
        <pt x="480" y="408" on="0"/>
        <pt x="506" y="408" on="1"/>
        <pt x="531" y="408" on="0"/>
        <pt x="578" y="387" on="0"/>
        <pt x="612" y="352" on="0"/>
        <pt x="633" y="306" on="0"/>
      </contour>
      <contour>
        <pt x="633" y="934" on="1"/>
        <pt x="633" y="908" on="0"/>
        <pt x="612" y="861" on="0"/>
        <pt x="578" y="827" on="0"/>
        <pt x="531" y="807" on="0"/>
        <pt x="506" y="807" on="1"/>
        <pt x="480" y="807" on="0"/>
        <pt x="433" y="827" on="0"/>
        <pt x="399" y="861" on="0"/>
        <pt x="379" y="908" on="0"/>
        <pt x="379" y="934" on="1"/>
        <pt x="379" y="959" on="0"/>
        <pt x="399" y="1005" on="0"/>
        <pt x="433" y="1040" on="0"/>
        <pt x="480" y="1061" on="0"/>
        <pt x="506" y="1061" on="1"/>
        <pt x="531" y="1061" on="0"/>
        <pt x="578" y="1040" on="0"/>
        <pt x="612" y="1005" on="0"/>
        <pt x="633" y="959" on="0"/>
      </contour>
    </TTGlyph>
    <TTGlyph name="dollar" xMin="90" yMin="-170" xMax="880" yMax="1335">
      <contour>
        <pt x="551" y="1335" on="1"/>
        <pt x="551" y="1153" on="1"/>
        <pt x="618" y="1148" on="0"/>
        <pt x="718" y="1126" on="0"/>
        <pt x="784" y="1102" on="0"/>
        <pt x="819" y="1084" on="0"/>
        <pt x="823" y="1083" on="1"/>
        <pt x="825" y="1083" on="1"/>
        <pt x="856" y="854" on="1"/>
        <pt x="733" y="842" on="1"/>
        <pt x="708" y="993" on="1"/>
        <pt x="682" y="1004" on="0"/>
        <pt x="603" y="1025" on="0"/>
        <pt x="551" y="1030" on="1"/>
        <pt x="551" y="659" on="1"/>
        <pt x="598" y="653" on="1"/>
        <pt x="676" y="642" on="0"/>
        <pt x="783" y="586" on="0"/>
        <pt x="850" y="506" on="0"/>
        <pt x="880" y="405" on="0"/>
        <pt x="880" y="348" on="1"/>
        <pt x="880" y="260" on="0"/>
        <pt x="835" y="132" on="0"/>
        <pt x="750" y="48" on="0"/>
        <pt x="627" y="4" on="0"/>
        <pt x="549" y="0" on="1"/>
        <pt x="549" y="-170" on="1"/>
        <pt x="418" y="-170" on="1"/>
        <pt x="418" y="2" on="1"/>
        <pt x="356" y="8" on="0"/>
        <pt x="249" y="34" on="0"/>
        <pt x="171" y="61" on="0"/>
        <pt x="126" y="82" on="0"/>
        <pt x="125" y="82" on="1"/>
        <pt x="90" y="295" on="1"/>
        <pt x="217" y="309" on="1"/>
        <pt x="239" y="166" on="1"/>
        <pt x="278" y="152" on="0"/>
        <pt x="371" y="127" on="0"/>
        <pt x="418" y="121" on="1"/>
        <pt x="418" y="526" on="1"/>
        <pt x="339" y="536" on="0"/>
        <pt x="226" y="596" on="0"/>
        <pt x="153" y="681" on="0"/>
        <pt x="119" y="785" on="0"/>
        <pt x="119" y="840" on="1"/>
        <pt x="119" y="900" on="0"/>
        <pt x="148" y="1005" on="0"/>
        <pt x="218" y="1088" on="0"/>
        <pt x="332" y="1142" on="0"/>
        <pt x="418" y="1151" on="1"/>
        <pt x="418" y="1335" on="1"/>
      </contour>
      <contour>
        <pt x="737" y="328" on="1"/>
        <pt x="737" y="358" on="0"/>
        <pt x="720" y="419" on="0"/>
        <pt x="678" y="470" on="0"/>
        <pt x="605" y="504" on="0"/>
        <pt x="549" y="508" on="1"/>
        <pt x="549" y="121" on="1"/>
        <pt x="635" y="135" on="0"/>
        <pt x="737" y="234" on="0"/>
      </contour>
      <contour>
        <pt x="248" y="862" on="1"/>
        <pt x="248" y="828" on="0"/>
        <pt x="269" y="767" on="0"/>
        <pt x="310" y="719" on="0"/>
        <pt x="367" y="687" on="0"/>
        <pt x="403" y="682" on="1"/>
        <pt x="418" y="680" on="1"/>
        <pt x="418" y="1030" on="1"/>
        <pt x="327" y="1018" on="0"/>
        <pt x="248" y="931" on="0"/>
      </contour>
    </TTGlyph>
    <TTGlyph name="dotlessi" xMin="95" yMin="0" xMax="595" yMax="879">
      <contour>
        <pt x="95" y="879" on="1"/>
        <pt x="425" y="879" on="1"/>
        <pt x="425" y="127" on="1"/>
        <pt x="595" y="127" on="1"/>
        <pt x="595" y="0" on="1"/>
        <pt x="95" y="0" on="1"/>
        <pt x="95" y="127" on="1"/>
        <pt x="265" y="127" on="1"/>
        <pt x="265" y="752" on="1"/>
        <pt x="95" y="752" on="1"/>
      </contour>
    </TTGlyph>
    <TTGlyph name="e" xMin="94" yMin="-31" xMax="935" yMax="909">
      <contour>
        <pt x="541" y="-31" on="1"/>
        <pt x="442" y="-31" on="0"/>
        <pt x="278" y="34" on="0"/>
        <pt x="159" y="155" on="0"/>
        <pt x="94" y="330" on="0"/>
        <pt x="94" y="440" on="1"/>
        <pt x="94" y="550" on="0"/>
        <pt x="159" y="724" on="0"/>
        <pt x="278" y="845" on="0"/>
        <pt x="442" y="909" on="0"/>
        <pt x="541" y="909" on="1"/>
        <pt x="623" y="909" on="0"/>
        <pt x="774" y="863" on="0"/>
        <pt x="882" y="749" on="0"/>
        <pt x="935" y="553" on="0"/>
        <pt x="920" y="403" on="1"/>
        <pt x="260" y="399" on="1"/>
        <pt x="268" y="256" on="0"/>
        <pt x="410" y="100" on="0"/>
        <pt x="543" y="100" on="1"/>
        <pt x="615" y="100" on="0"/>
        <pt x="729" y="131" on="0"/>
        <pt x="770" y="150" on="1"/>
        <pt x="818" y="172" on="0"/>
        <pt x="854" y="201" on="1"/>
        <pt x="928" y="104" on="1"/>
        <pt x="928" y="103" on="0"/>
        <pt x="877" y="61" on="0"/>
        <pt x="778" y="11" on="0"/>
        <pt x="634" y="-31" on="0"/>
      </contour>
      <contour>
        <pt x="543" y="778" on="1"/>
        <pt x="421" y="778" on="0"/>
        <pt x="281" y="647" on="0"/>
        <pt x="262" y="526" on="1"/>
        <pt x="780" y="528" on="1"/>
        <pt x="778" y="652" on="0"/>
        <pt x="659" y="778" on="0"/>
      </contour>
    </TTGlyph>
    <TTGlyph name="eacute" xMin="94" yMin="-31" xMax="935" yMax="1333">
      <component glyphName="acute" x="316" y="39" flags="0x4"/>
      <component glyphName="e" x="0" y="0" flags="0x4"/>
    </TTGlyph>
    <TTGlyph name="ecircumflex" xMin="94" yMin="-31" xMax="935" yMax="1337">
      <component glyphName="e" x="0" y="0" flags="0x204"/>
      <component glyphName="circumflex" x="191" y="51" flags="0x4"/>
    </TTGlyph>
    <TTGlyph name="edieresis" xMin="94" yMin="-31" xMax="935" yMax="1274">
      <component glyphName="e" x="0" y="0" flags="0x204"/>
      <component glyphName="dieresis" x="170" y="47" flags="0x4"/>
    </TTGlyph>
    <TTGlyph name="egrave" xMin="94" yMin="-31" xMax="935" yMax="1335">
      <component glyphName="e" x="0" y="0" flags="0x204"/>
      <component glyphName="grave" x="82" y="0" flags="0x4"/>
    </TTGlyph>
    <TTGlyph name="eight" xMin="118" yMin="-31" xMax="970" yMax="1237">
      <contour>
        <pt x="542" y="1237" on="1"/>
        <pt x="626" y="1237" on="0"/>
        <pt x="774" y="1192" on="0"/>
        <pt x="884" y="1104" on="0"/>
        <pt x="948" y="975" on="0"/>
        <pt x="948" y="891" on="1"/>
        <pt x="948" y="848" on="0"/>
        <pt x="921" y="763" on="0"/>
        <pt x="868" y="690" on="0"/>
        <pt x="792" y="636" on="0"/>
        <pt x="743" y="623" on="1"/>
        <pt x="792" y="615" on="0"/>
        <pt x="875" y="563" on="0"/>
        <pt x="936" y="485" on="0"/>
        <pt x="970" y="388" on="0"/>
        <pt x="970" y="334" on="1"/>
        <pt x="970" y="242" on="0"/>
        <pt x="900" y="106" on="0"/>
        <pt x="782" y="14" on="0"/>
        <pt x="628" y="-31" on="0"/>
        <pt x="544" y="-31" on="1"/>
        <pt x="460" y="-31" on="0"/>
        <pt x="306" y="14" on="0"/>
        <pt x="188" y="106" on="0"/>
        <pt x="118" y="242" on="0"/>
        <pt x="118" y="334" on="1"/>
        <pt x="118" y="388" on="0"/>
        <pt x="152" y="485" on="0"/>
        <pt x="213" y="563" on="0"/>
        <pt x="297" y="615" on="0"/>
        <pt x="346" y="623" on="1"/>
        <pt x="297" y="636" on="0"/>
        <pt x="221" y="690" on="0"/>
        <pt x="168" y="763" on="0"/>
        <pt x="141" y="848" on="0"/>
        <pt x="141" y="891" on="1"/>
        <pt x="141" y="975" on="0"/>
        <pt x="205" y="1104" on="0"/>
        <pt x="314" y="1192" on="0"/>
        <pt x="460" y="1237" on="0"/>
      </contour>
      <contour>
        <pt x="544" y="109" on="1"/>
        <pt x="599" y="109" on="0"/>
        <pt x="691" y="142" on="0"/>
        <pt x="757" y="202" on="0"/>
        <pt x="794" y="285" on="0"/>
        <pt x="794" y="334" on="1"/>
        <pt x="794" y="380" on="0"/>
        <pt x="763" y="460" on="0"/>
        <pt x="701" y="519" on="0"/>
        <pt x="607" y="553" on="0"/>
        <pt x="544" y="553" on="1"/>
        <pt x="481" y="553" on="0"/>
        <pt x="387" y="519" on="0"/>
        <pt x="325" y="460" on="0"/>
        <pt x="294" y="380" on="0"/>
        <pt x="294" y="334" on="1"/>
        <pt x="294" y="285" on="0"/>
        <pt x="331" y="202" on="0"/>
        <pt x="397" y="142" on="0"/>
        <pt x="489" y="109" on="0"/>
      </contour>
      <contour>
        <pt x="544" y="684" on="1"/>
        <pt x="599" y="684" on="0"/>
        <pt x="684" y="715" on="0"/>
        <pt x="743" y="771" on="0"/>
        <pt x="774" y="846" on="0"/>
        <pt x="774" y="891" on="1"/>
        <pt x="774" y="935" on="0"/>
        <pt x="743" y="1011" on="0"/>
        <pt x="684" y="1066" on="0"/>
        <pt x="599" y="1098" on="0"/>
        <pt x="544" y="1098" on="1"/>
        <pt x="490" y="1098" on="0"/>
        <pt x="404" y="1066" on="0"/>
        <pt x="346" y="1011" on="0"/>
        <pt x="315" y="935" on="0"/>
        <pt x="315" y="891" on="1"/>
        <pt x="315" y="846" on="0"/>
        <pt x="346" y="771" on="0"/>
        <pt x="404" y="715" on="0"/>
        <pt x="490" y="684" on="0"/>
      </contour>
    </TTGlyph>
    <TTGlyph name="emdash" xMin="135" yMin="401" xMax="1528" yMax="543">
      <contour>
        <pt x="135" y="543" on="1"/>
        <pt x="1528" y="543" on="1"/>
        <pt x="1528" y="401" on="1"/>
        <pt x="135" y="401" on="1"/>
      </contour>
    </TTGlyph>
    <TTGlyph name="endash" xMin="138" yMin="403" xMax="1078" yMax="545">
      <contour>
        <pt x="138" y="545" on="1"/>
        <pt x="1078" y="545" on="1"/>
        <pt x="1078" y="403" on="1"/>
        <pt x="138" y="403" on="1"/>
      </contour>
    </TTGlyph>
    <TTGlyph name="equal" xMin="147" yMin="387" xMax="907" yMax="852">
      <contour>
        <pt x="147" y="852" on="1"/>
        <pt x="907" y="852" on="1"/>
        <pt x="907" y="711" on="1"/>
        <pt x="147" y="711" on="1"/>
      </contour>
      <contour>
        <pt x="147" y="528" on="1"/>
        <pt x="907" y="528" on="1"/>
        <pt x="907" y="387" on="1"/>
        <pt x="147" y="387" on="1"/>
      </contour>
    </TTGlyph>
    <TTGlyph name="eth" xMin="94" yMin="-33" xMax="991" yMax="1346">
      <contour>
        <pt x="348" y="1065" on="1"/>
        <pt x="418" y="1143" on="1"/>
        <pt x="325" y="1186" on="0"/>
        <pt x="213" y="1223" on="1"/>
        <pt x="240" y="1335" on="1"/>
        <pt x="325" y="1311" on="0"/>
        <pt x="454" y="1267" on="0"/>
        <pt x="508" y="1241" on="1"/>
        <pt x="602" y="1346" on="1"/>
        <pt x="686" y="1264" on="1"/>
        <pt x="615" y="1184" on="1"/>
        <pt x="713" y="1122" on="0"/>
        <pt x="844" y="984" on="0"/>
        <pt x="937" y="820" on="0"/>
        <pt x="988" y="636" on="0"/>
        <pt x="991" y="537" on="1"/>
        <pt x="991" y="391" on="0"/>
        <pt x="921" y="176" on="0"/>
        <pt x="799" y="35" on="0"/>
        <pt x="635" y="-33" on="0"/>
        <pt x="541" y="-33" on="1"/>
        <pt x="453" y="-33" on="0"/>
        <pt x="292" y="25" on="0"/>
        <pt x="168" y="142" on="0"/>
        <pt x="94" y="318" on="0"/>
        <pt x="94" y="436" on="1"/>
        <pt x="94" y="546" on="0"/>
        <pt x="159" y="720" on="0"/>
        <pt x="278" y="841" on="0"/>
        <pt x="442" y="905" on="0"/>
        <pt x="541" y="905" on="1"/>
        <pt x="559" y="905" on="0"/>
        <pt x="606" y="902" on="0"/>
        <pt x="659" y="893" on="0"/>
        <pt x="716" y="878" on="0"/>
        <pt x="744" y="866" on="1"/>
        <pt x="699" y="939" on="0"/>
        <pt x="593" y="1045" on="0"/>
        <pt x="527" y="1085" on="1"/>
        <pt x="432" y="983" on="1"/>
      </contour>
      <contour>
        <pt x="543" y="774" on="1"/>
        <pt x="401" y="774" on="0"/>
        <pt x="258" y="597" on="0"/>
        <pt x="258" y="436" on="1"/>
        <pt x="258" y="275" on="0"/>
        <pt x="401" y="98" on="0"/>
        <pt x="543" y="98" on="1"/>
        <pt x="612" y="98" on="0"/>
        <pt x="719" y="152" on="0"/>
        <pt x="792" y="256" on="0"/>
        <pt x="830" y="406" on="0"/>
        <pt x="830" y="502" on="1"/>
        <pt x="830" y="564" on="0"/>
        <pt x="811" y="657" on="0"/>
        <pt x="797" y="707" on="1"/>
        <pt x="776" y="722" on="0"/>
        <pt x="718" y="747" on="0"/>
        <pt x="651" y="765" on="0"/>
        <pt x="579" y="774" on="0"/>
      </contour>
    </TTGlyph>
    <TTGlyph name="exclam" xMin="125" yMin="-31" xMax="379" yMax="1206">
      <contour>
        <pt x="311" y="381" on="1"/>
        <pt x="192" y="381" on="1"/>
        <pt x="174" y="1206" on="1"/>
        <pt x="336" y="1206" on="1"/>
      </contour>
      <contour>
        <pt x="379" y="96" on="1"/>
        <pt x="379" y="70" on="0"/>
        <pt x="358" y="24" on="0"/>
        <pt x="323" y="-11" on="0"/>
        <pt x="277" y="-31" on="0"/>
        <pt x="252" y="-31" on="1"/>
        <pt x="226" y="-31" on="0"/>
        <pt x="179" y="-11" on="0"/>
        <pt x="145" y="24" on="0"/>
        <pt x="125" y="70" on="0"/>
        <pt x="125" y="96" on="1"/>
        <pt x="125" y="121" on="0"/>
        <pt x="145" y="168" on="0"/>
        <pt x="179" y="202" on="0"/>
        <pt x="226" y="223" on="0"/>
        <pt x="252" y="223" on="1"/>
        <pt x="277" y="223" on="0"/>
        <pt x="323" y="202" on="0"/>
        <pt x="358" y="168" on="0"/>
        <pt x="379" y="121" on="0"/>
      </contour>
    </TTGlyph>
    <TTGlyph name="exclamdown" xMin="103" yMin="-426" xMax="357" yMax="909">
      <contour>
        <pt x="314" y="-426" on="1"/>
        <pt x="152" y="-426" on="1"/>
        <pt x="170" y="498" on="1"/>
        <pt x="289" y="498" on="1"/>
      </contour>
      <contour>
        <pt x="357" y="782" on="1"/>
        <pt x="357" y="757" on="0"/>
        <pt x="336" y="711" on="0"/>
        <pt x="301" y="676" on="0"/>
        <pt x="255" y="655" on="0"/>
        <pt x="230" y="655" on="1"/>
        <pt x="204" y="655" on="0"/>
        <pt x="157" y="676" on="0"/>
        <pt x="123" y="711" on="0"/>
        <pt x="103" y="757" on="0"/>
        <pt x="103" y="782" on="1"/>
        <pt x="103" y="808" on="0"/>
        <pt x="123" y="854" on="0"/>
        <pt x="157" y="889" on="0"/>
        <pt x="204" y="909" on="0"/>
        <pt x="230" y="909" on="1"/>
        <pt x="255" y="909" on="0"/>
        <pt x="301" y="889" on="0"/>
        <pt x="336" y="854" on="0"/>
        <pt x="357" y="808" on="0"/>
      </contour>
    </TTGlyph>
    <TTGlyph name="f" xMin="96" yMin="0" xMax="909" yMax="1315">
      <contour>
        <pt x="96" y="127" on="1"/>
        <pt x="268" y="127" on="1"/>
        <pt x="268" y="752" on="1"/>
        <pt x="96" y="752" on="1"/>
        <pt x="96" y="879" on="1"/>
        <pt x="268" y="879" on="1"/>
        <pt x="268" y="969" on="1"/>
        <pt x="268" y="1055" on="0"/>
        <pt x="309" y="1184" on="0"/>
        <pt x="397" y="1271" on="0"/>
        <pt x="537" y="1315" on="0"/>
        <pt x="635" y="1315" on="1"/>
        <pt x="702" y="1315" on="0"/>
        <pt x="804" y="1292" on="0"/>
        <pt x="839" y="1278" on="1"/>
        <pt x="879" y="1261" on="0"/>
        <pt x="909" y="1241" on="1"/>
        <pt x="848" y="1137" on="1"/>
        <pt x="825" y="1149" on="0"/>
        <pt x="794" y="1160" on="1"/>
        <pt x="768" y="1169" on="0"/>
        <pt x="693" y="1184" on="0"/>
        <pt x="645" y="1184" on="1"/>
        <pt x="579" y="1184" on="0"/>
        <pt x="495" y="1153" on="0"/>
        <pt x="446" y="1091" on="0"/>
        <pt x="428" y="998" on="0"/>
        <pt x="428" y="936" on="1"/>
        <pt x="428" y="879" on="1"/>
        <pt x="682" y="879" on="1"/>
        <pt x="682" y="752" on="1"/>
        <pt x="428" y="752" on="1"/>
        <pt x="428" y="127" on="1"/>
        <pt x="612" y="127" on="1"/>
        <pt x="612" y="0" on="1"/>
        <pt x="96" y="0" on="1"/>
      </contour>
    </TTGlyph>
    <TTGlyph name="five" xMin="104" yMin="-31" xMax="928" yMax="1206">
      <contour>
        <pt x="862" y="1206" on="1"/>
        <pt x="862" y="1063" on="1"/>
        <pt x="319" y="1063" on="1"/>
        <pt x="319" y="737" on="1"/>
        <pt x="353" y="762" on="0"/>
        <pt x="452" y="797" on="0"/>
        <pt x="518" y="797" on="1"/>
        <pt x="594" y="797" on="0"/>
        <pt x="713" y="763" on="0"/>
        <pt x="805" y="705" on="0"/>
        <pt x="869" y="629" on="0"/>
        <pt x="909" y="544" on="0"/>
        <pt x="928" y="456" on="0"/>
        <pt x="928" y="416" on="1"/>
        <pt x="928" y="324" on="0"/>
        <pt x="872" y="161" on="0"/>
        <pt x="759" y="39" on="0"/>
        <pt x="591" y="-31" on="0"/>
        <pt x="479" y="-31" on="1"/>
        <pt x="389" y="-31" on="0"/>
        <pt x="251" y="8" on="0"/>
        <pt x="203" y="31" on="1"/>
        <pt x="147" y="58" on="0"/>
        <pt x="104" y="94" on="1"/>
        <pt x="203" y="207" on="1"/>
        <pt x="204" y="207" on="0"/>
        <pt x="243" y="176" on="0"/>
        <pt x="315" y="140" on="0"/>
        <pt x="419" y="109" on="0"/>
        <pt x="485" y="109" on="1"/>
        <pt x="537" y="109" on="0"/>
        <pt x="634" y="140" on="0"/>
        <pt x="709" y="212" on="0"/>
        <pt x="754" y="328" on="0"/>
        <pt x="754" y="414" on="1"/>
        <pt x="754" y="481" on="0"/>
        <pt x="713" y="574" on="0"/>
        <pt x="647" y="632" on="0"/>
        <pt x="562" y="657" on="0"/>
        <pt x="518" y="657" on="1"/>
        <pt x="449" y="657" on="0"/>
        <pt x="350" y="629" on="0"/>
        <pt x="284" y="593" on="0"/>
        <pt x="251" y="562" on="0"/>
        <pt x="248" y="559" on="1"/>
        <pt x="248" y="557" on="1"/>
        <pt x="154" y="602" on="1"/>
        <pt x="154" y="1206" on="1"/>
      </contour>
    </TTGlyph>
    <TTGlyph name="foundryicon" xMin="120" yMin="-563" xMax="3465" yMax="1462">
      <contour>
        <pt x="1253" y="813" on="1"/>
        <pt x="1272" y="650" on="0"/>
        <pt x="1279" y="319" on="0"/>
        <pt x="1248" y="13" on="0"/>
        <pt x="1179" y="-253" on="0"/>
        <pt x="1067" y="-450" on="0"/>
        <pt x="911" y="-563" on="0"/>
        <pt x="809" y="-563" on="1"/>
        <pt x="755" y="-563" on="0"/>
        <pt x="686" y="-533" on="0"/>
        <pt x="645" y="-476" on="0"/>
        <pt x="629" y="-391" on="0"/>
        <pt x="629" y="-336" on="1"/>
        <pt x="629" y="-286" on="0"/>
        <pt x="647" y="-196" on="0"/>
        <pt x="659" y="-154" on="1"/>
        <pt x="709" y="-154" on="0"/>
        <pt x="820" y="-187" on="0"/>
        <pt x="862" y="-229" on="1"/>
        <pt x="858" y="-258" on="0"/>
        <pt x="850" y="-326" on="0"/>
        <pt x="847" y="-395" on="0"/>
        <pt x="850" y="-461" on="0"/>
        <pt x="858" y="-489" on="1"/>
        <pt x="922" y="-448" on="0"/>
        <pt x="993" y="-338" on="0"/>
        <pt x="1033" y="-198" on="0"/>
        <pt x="1053" y="-28" on="0"/>
        <pt x="1065" y="74" on="1"/>
        <pt x="1057" y="61" on="0"/>
        <pt x="1024" y="37" on="0"/>
        <pt x="1004" y="37" on="1"/>
        <pt x="929" y="37" on="0"/>
        <pt x="827" y="118" on="0"/>
        <pt x="795" y="184" on="1"/>
        <pt x="784" y="153" on="0"/>
        <pt x="747" y="89" on="0"/>
        <pt x="690" y="37" on="0"/>
        <pt x="612" y="4" on="0"/>
        <pt x="561" y="4" on="1"/>
        <pt x="483" y="4" on="0"/>
        <pt x="358" y="51" on="0"/>
        <pt x="262" y="134" on="0"/>
        <pt x="192" y="246" on="0"/>
        <pt x="146" y="377" on="0"/>
        <pt x="122" y="521" on="0"/>
        <pt x="121" y="594" on="1"/>
        <pt x="120" y="719" on="0"/>
        <pt x="151" y="967" on="0"/>
        <pt x="223" y="1193" on="0"/>
        <pt x="340" y="1388" on="0"/>
        <pt x="424" y="1462" on="1"/>
        <pt x="470" y="1452" on="0"/>
        <pt x="578" y="1420" on="0"/>
        <pt x="671" y="1350" on="0"/>
        <pt x="733" y="1231" on="0"/>
        <pt x="733" y="1135" on="1"/>
        <pt x="733" y="1060" on="0"/>
        <pt x="661" y="938" on="0"/>
        <pt x="604" y="889" on="1"/>
        <pt x="595" y="879" on="0"/>
        <pt x="585" y="875" on="0"/>
        <pt x="582" y="880" on="0"/>
        <pt x="582" y="890" on="0"/>
        <pt x="584" y="895" on="1"/>
        <pt x="591" y="936" on="0"/>
        <pt x="584" y="1035" on="0"/>
        <pt x="564" y="1128" on="0"/>
        <pt x="537" y="1203" on="0"/>
        <pt x="524" y="1219" on="1"/>
        <pt x="499" y="1196" on="0"/>
        <pt x="453" y="1088" on="0"/>
        <pt x="417" y="940" on="0"/>
        <pt x="394" y="764" on="0"/>
        <pt x="387" y="579" on="0"/>
        <pt x="401" y="397" on="0"/>
        <pt x="439" y="238" on="0"/>
        <pt x="504" y="113" on="0"/>
        <pt x="553" y="78" on="1"/>
        <pt x="593" y="91" on="0"/>
        <pt x="657" y="144" on="0"/>
        <pt x="708" y="208" on="0"/>
        <pt x="744" y="273" on="0"/>
        <pt x="756" y="299" on="1"/>
        <pt x="734" y="370" on="0"/>
        <pt x="719" y="531" on="0"/>
        <pt x="719" y="612" on="1"/>
        <pt x="719" y="690" on="0"/>
        <pt x="739" y="796" on="0"/>
        <pt x="758" y="831" on="1"/>
        <pt x="773" y="828" on="0"/>
        <pt x="823" y="818" on="0"/>
        <pt x="878" y="800" on="0"/>
        <pt x="932" y="774" on="0"/>
        <pt x="952" y="756" on="1"/>
        <pt x="947" y="673" on="0"/>
        <pt x="944" y="511" on="0"/>
        <pt x="953" y="355" on="0"/>
        <pt x="977" y="206" on="0"/>
        <pt x="999" y="135" on="1"/>
        <pt x="1011" y="138" on="0"/>
        <pt x="1026" y="152" on="0"/>
        <pt x="1035" y="168" on="0"/>
        <pt x="1040" y="185" on="0"/>
        <pt x="1042" y="190" on="1"/>
        <pt x="1063" y="285" on="0"/>
        <pt x="1066" y="491" on="0"/>
        <pt x="1050" y="684" on="0"/>
        <pt x="1023" y="852" on="0"/>
        <pt x="1014" y="909" on="1"/>
        <pt x="1041" y="912" on="0"/>
        <pt x="1107" y="899" on="0"/>
        <pt x="1173" y="872" on="0"/>
        <pt x="1233" y="834" on="0"/>
      </contour>
      <contour>
        <pt x="1286" y="850" on="1"/>
        <pt x="1370" y="845" on="0"/>
        <pt x="1417" y="834" on="1"/>
        <pt x="1470" y="823" on="0"/>
        <pt x="1505" y="784" on="1"/>
        <pt x="1528" y="742" on="0"/>
        <pt x="1565" y="624" on="0"/>
        <pt x="1571" y="543" on="1"/>
        <pt x="1606" y="609" on="0"/>
        <pt x="1653" y="706" on="0"/>
        <pt x="1667" y="748" on="1"/>
        <pt x="1667" y="761" on="0"/>
        <pt x="1672" y="797" on="0"/>
        <pt x="1681" y="833" on="0"/>
        <pt x="1692" y="867" on="0"/>
        <pt x="1698" y="879" on="1"/>
        <pt x="1730" y="876" on="0"/>
        <pt x="1791" y="863" on="0"/>
        <pt x="1842" y="843" on="0"/>
        <pt x="1881" y="814" on="0"/>
        <pt x="1892" y="795" on="1"/>
        <pt x="1885" y="758" on="0"/>
        <pt x="1876" y="672" on="0"/>
        <pt x="1873" y="585" on="0"/>
        <pt x="1877" y="500" on="0"/>
        <pt x="1884" y="463" on="1"/>
        <pt x="1712" y="417" on="0"/>
        <pt x="1688" y="586" on="1"/>
        <pt x="1680" y="565" on="0"/>
        <pt x="1653" y="523" on="0"/>
        <pt x="1624" y="477" on="0"/>
        <pt x="1598" y="427" on="0"/>
        <pt x="1591" y="399" on="1"/>
        <pt x="1591" y="373" on="0"/>
        <pt x="1590" y="308" on="0"/>
        <pt x="1587" y="242" on="0"/>
        <pt x="1578" y="180" on="0"/>
        <pt x="1571" y="158" on="1"/>
        <pt x="1562" y="126" on="0"/>
        <pt x="1531" y="73" on="0"/>
        <pt x="1489" y="36" on="0"/>
        <pt x="1433" y="21" on="0"/>
        <pt x="1399" y="27" on="1"/>
        <pt x="1395" y="88" on="0"/>
        <pt x="1388" y="227" on="0"/>
        <pt x="1377" y="374" on="0"/>
        <pt x="1362" y="524" on="0"/>
        <pt x="1340" y="666" on="0"/>
        <pt x="1308" y="796" on="0"/>
      </contour>
      <contour>
        <pt x="2552" y="113" on="1"/>
        <pt x="2564" y="123" on="0"/>
        <pt x="2596" y="155" on="0"/>
        <pt x="2624" y="192" on="0"/>
        <pt x="2644" y="235" on="0"/>
        <pt x="2646" y="256" on="1"/>
        <pt x="2632" y="312" on="0"/>
        <pt x="2618" y="434" on="0"/>
        <pt x="2613" y="547" on="0"/>
        <pt x="2615" y="641" on="0"/>
        <pt x="2617" y="670" on="1"/>
        <pt x="2602" y="651" on="0"/>
        <pt x="2573" y="578" on="0"/>
        <pt x="2549" y="482" on="0"/>
        <pt x="2533" y="373" on="0"/>
        <pt x="2529" y="261" on="0"/>
        <pt x="2538" y="156" on="0"/>
      </contour>
      <contour>
        <pt x="3154" y="535" on="1"/>
        <pt x="3188" y="585" on="0"/>
        <pt x="3235" y="746" on="0"/>
        <pt x="3258" y="925" on="0"/>
        <pt x="3258" y="1097" on="0"/>
        <pt x="3246" y="1159" on="1"/>
        <pt x="3231" y="1097" on="0"/>
        <pt x="3201" y="946" on="0"/>
        <pt x="3176" y="783" on="0"/>
        <pt x="3158" y="615" on="0"/>
      </contour>
      <contour>
        <pt x="2177" y="690" on="1"/>
        <pt x="2149" y="605" on="0"/>
        <pt x="2122" y="412" on="0"/>
        <pt x="2122" y="315" on="1"/>
        <pt x="2145" y="318" on="0"/>
        <pt x="2179" y="362" on="0"/>
        <pt x="2201" y="427" on="0"/>
        <pt x="2212" y="505" on="0"/>
        <pt x="2212" y="543" on="1"/>
        <pt x="2212" y="588" on="0"/>
        <pt x="2188" y="669" on="0"/>
      </contour>
      <contour>
        <pt x="2441" y="1317" on="1"/>
        <pt x="2426" y="1286" on="0"/>
        <pt x="2394" y="1206" on="0"/>
        <pt x="2355" y="1121" on="0"/>
        <pt x="2308" y="1037" on="0"/>
        <pt x="2248" y="968" on="0"/>
        <pt x="2172" y="919" on="0"/>
        <pt x="2124" y="911" on="1"/>
        <pt x="2138" y="883" on="0"/>
        <pt x="2165" y="831" on="0"/>
        <pt x="2177" y="809" on="1"/>
        <pt x="2177" y="807" on="0"/>
        <pt x="2179" y="805" on="1"/>
        <pt x="2235" y="777" on="0"/>
        <pt x="2298" y="662" on="0"/>
        <pt x="2298" y="571" on="1"/>
        <pt x="2298" y="519" on="0"/>
        <pt x="2276" y="413" on="0"/>
        <pt x="2232" y="322" on="0"/>
        <pt x="2168" y="255" on="0"/>
        <pt x="2126" y="242" on="1"/>
        <pt x="2137" y="198" on="0"/>
        <pt x="2164" y="121" on="0"/>
        <pt x="2193" y="102" on="1"/>
        <pt x="2223" y="114" on="0"/>
        <pt x="2270" y="160" on="0"/>
        <pt x="2307" y="214" on="0"/>
        <pt x="2335" y="272" on="0"/>
        <pt x="2345" y="297" on="1"/>
        <pt x="2345" y="406" on="1"/>
        <pt x="2347" y="461" on="0"/>
        <pt x="2363" y="567" on="0"/>
        <pt x="2394" y="665" on="0"/>
        <pt x="2443" y="753" on="0"/>
        <pt x="2478" y="791" on="1"/>
        <pt x="2513" y="791" on="0"/>
        <pt x="2591" y="776" on="0"/>
        <pt x="2623" y="764" on="1"/>
        <pt x="2626" y="771" on="0"/>
        <pt x="2636" y="815" on="0"/>
        <pt x="2649" y="864" on="0"/>
        <pt x="2663" y="904" on="0"/>
        <pt x="2669" y="909" on="1"/>
        <pt x="2686" y="914" on="0"/>
        <pt x="2738" y="905" on="0"/>
        <pt x="2791" y="885" on="0"/>
        <pt x="2837" y="858" on="0"/>
        <pt x="2849" y="846" on="1"/>
        <pt x="2837" y="765" on="0"/>
        <pt x="2821" y="568" on="0"/>
        <pt x="2819" y="365" on="0"/>
        <pt x="2837" y="172" on="0"/>
        <pt x="2859" y="96" on="1"/>
        <pt x="2874" y="92" on="0"/>
        <pt x="2904" y="118" on="0"/>
        <pt x="2932" y="157" on="0"/>
        <pt x="2954" y="199" on="0"/>
        <pt x="2961" y="211" on="1"/>
        <pt x="2955" y="240" on="1"/>
        <pt x="2935" y="335" on="0"/>
        <pt x="2917" y="542" on="0"/>
        <pt x="2920" y="756" on="0"/>
        <pt x="2942" y="968" on="0"/>
        <pt x="2984" y="1168" on="0"/>
        <pt x="3046" y="1346" on="0"/>
        <pt x="3086" y="1419" on="1"/>
        <pt x="3176" y="1404" on="0"/>
        <pt x="3294" y="1348" on="0"/>
        <pt x="3363" y="1254" on="0"/>
        <pt x="3391" y="1119" on="0"/>
        <pt x="3391" y="1026" on="1"/>
        <pt x="3391" y="938" on="0"/>
        <pt x="3361" y="752" on="0"/>
        <pt x="3302" y="588" on="0"/>
        <pt x="3215" y="464" on="0"/>
        <pt x="3158" y="438" on="1"/>
        <pt x="3158" y="332" on="0"/>
        <pt x="3199" y="161" on="0"/>
        <pt x="3244" y="96" on="1"/>
        <pt x="3306" y="143" on="0"/>
        <pt x="3402" y="311" on="0"/>
        <pt x="3434" y="442" on="1"/>
        <pt x="3445" y="447" on="0"/>
        <pt x="3457" y="446" on="0"/>
        <pt x="3463" y="446" on="1"/>
        <pt x="3465" y="406" on="0"/>
        <pt x="3461" y="312" on="0"/>
        <pt x="3442" y="216" on="0"/>
        <pt x="3406" y="127" on="0"/>
        <pt x="3348" y="58" on="0"/>
        <pt x="3266" y="16" on="0"/>
        <pt x="3211" y="16" on="1"/>
        <pt x="3136" y="16" on="0"/>
        <pt x="3025" y="81" on="0"/>
        <pt x="2990" y="141" on="1"/>
        <pt x="2984" y="117" on="0"/>
        <pt x="2960" y="72" on="0"/>
        <pt x="2926" y="37" on="0"/>
        <pt x="2882" y="16" on="0"/>
        <pt x="2857" y="16" on="1"/>
        <pt x="2828" y="16" on="0"/>
        <pt x="2776" y="40" on="0"/>
        <pt x="2734" y="77" on="0"/>
        <pt x="2702" y="122" on="0"/>
        <pt x="2693" y="143" on="1"/>
        <pt x="2688" y="122" on="0"/>
        <pt x="2659" y="85" on="0"/>
        <pt x="2620" y="57" on="0"/>
        <pt x="2576" y="39" on="0"/>
        <pt x="2556" y="37" on="1"/>
        <pt x="2476" y="37" on="0"/>
        <pt x="2387" y="108" on="0"/>
        <pt x="2372" y="164" on="1"/>
        <pt x="2359" y="143" on="0"/>
        <pt x="2323" y="101" on="0"/>
        <pt x="2277" y="65" on="0"/>
        <pt x="2221" y="40" on="0"/>
        <pt x="2187" y="37" on="1"/>
        <pt x="2107" y="37" on="0"/>
        <pt x="1998" y="101" on="0"/>
        <pt x="1933" y="208" on="0"/>
        <pt x="1908" y="347" on="0"/>
        <pt x="1913" y="422" on="1"/>
        <pt x="1914" y="478" on="0"/>
        <pt x="1927" y="596" on="0"/>
        <pt x="1949" y="706" on="0"/>
        <pt x="1980" y="800" on="0"/>
        <pt x="1999" y="831" on="1"/>
        <pt x="2036" y="836" on="0"/>
        <pt x="2071" y="831" on="1"/>
        <pt x="2061" y="850" on="0"/>
        <pt x="2044" y="892" on="0"/>
        <pt x="2038" y="913" on="1"/>
        <pt x="1996" y="922" on="0"/>
        <pt x="1918" y="964" on="0"/>
        <pt x="1845" y="1023" on="0"/>
        <pt x="1778" y="1093" on="0"/>
        <pt x="1747" y="1130" on="1"/>
        <pt x="1732" y="1143" on="0"/>
        <pt x="1673" y="1157" on="0"/>
        <pt x="1606" y="1170" on="0"/>
        <pt x="1542" y="1190" on="0"/>
        <pt x="1522" y="1208" on="1"/>
        <pt x="1514" y="1215" on="0"/>
        <pt x="1518" y="1229" on="0"/>
        <pt x="1526" y="1229" on="1"/>
        <pt x="1527" y="1227" on="0"/>
        <pt x="1565" y="1222" on="0"/>
        <pt x="1621" y="1216" on="0"/>
        <pt x="1689" y="1210" on="0"/>
        <pt x="1752" y="1205" on="0"/>
        <pt x="1800" y="1202" on="0"/>
        <pt x="1810" y="1202" on="1"/>
        <pt x="1884" y="1216" on="0"/>
        <pt x="2026" y="1242" on="0"/>
        <pt x="2141" y="1266" on="0"/>
        <pt x="2221" y="1289" on="0"/>
        <pt x="2232" y="1300" on="1"/>
        <pt x="2245" y="1345" on="0"/>
        <pt x="2313" y="1395" on="0"/>
        <pt x="2351" y="1395" on="1"/>
        <pt x="2367" y="1395" on="0"/>
        <pt x="2394" y="1390" on="0"/>
        <pt x="2406" y="1382" on="1"/>
        <pt x="2441" y="1395" on="1"/>
        <pt x="2443" y="1395" on="0"/>
        <pt x="2443" y="1394" on="0"/>
        <pt x="2444" y="1394" on="1"/>
        <pt x="2445" y="1394" on="1"/>
        <pt x="2444" y="1393" on="0"/>
        <pt x="2443" y="1393" on="1"/>
        <pt x="2435" y="1354" on="1"/>
        <pt x="2470" y="1354" on="1"/>
        <pt x="2471" y="1353" on="0"/>
        <pt x="2471" y="1352" on="1"/>
        <pt x="2470" y="1352" on="1"/>
      </contour>
      <contour>
        <pt x="2148" y="817" on="1"/>
        <pt x="2134" y="836" on="0"/>
        <pt x="2108" y="883" on="0"/>
        <pt x="2097" y="909" on="1"/>
        <pt x="2066" y="909" on="1"/>
        <pt x="2091" y="829" on="1"/>
        <pt x="2106" y="826" on="0"/>
        <pt x="2134" y="822" on="0"/>
      </contour>
    </TTGlyph>
    <TTGlyph name="four" xMin="50" yMin="0" xMax="1000" yMax="1274">
      <contour>
        <pt x="806" y="338" on="1"/>
        <pt x="806" y="141" on="1"/>
        <pt x="992" y="141" on="1"/>
        <pt x="992" y="0" on="1"/>
        <pt x="429" y="0" on="1"/>
        <pt x="429" y="141" on="1"/>
        <pt x="644" y="141" on="1"/>
        <pt x="644" y="338" on="1"/>
        <pt x="52" y="338" on="1"/>
        <pt x="50" y="414" on="1"/>
        <pt x="439" y="1274" on="1"/>
        <pt x="574" y="1198" on="1"/>
        <pt x="395" y="826" on="0"/>
        <pt x="263" y="552" on="0"/>
        <pt x="228" y="478" on="0"/>
        <pt x="228" y="477" on="1"/>
        <pt x="644" y="477" on="1"/>
        <pt x="644" y="1028" on="1"/>
        <pt x="808" y="1028" on="1"/>
        <pt x="806" y="477" on="1"/>
        <pt x="1000" y="479" on="1"/>
        <pt x="1000" y="338" on="1"/>
      </contour>
    </TTGlyph>
    <TTGlyph name="fraction" xMin="-18" yMin="-156" xMax="709" yMax="1335">
      <contour>
        <pt x="115" y="-156" on="1"/>
        <pt x="-18" y="-156" on="1"/>
        <pt x="578" y="1335" on="1"/>
        <pt x="709" y="1335" on="1"/>
      </contour>
    </TTGlyph>
    <TTGlyph name="g" xMin="86" yMin="-457" xMax="1098" yMax="961">
      <contour>
        <pt x="856" y="770" on="1"/>
        <pt x="885" y="733" on="0"/>
        <pt x="917" y="637" on="0"/>
        <pt x="917" y="580" on="1"/>
        <pt x="917" y="491" on="0"/>
        <pt x="849" y="363" on="0"/>
        <pt x="736" y="281" on="0"/>
        <pt x="588" y="242" on="0"/>
        <pt x="508" y="242" on="1"/>
        <pt x="461" y="242" on="0"/>
        <pt x="433" y="245" on="1"/>
        <pt x="416" y="246" on="0"/>
        <pt x="403" y="248" on="1"/>
        <pt x="403" y="55" on="1"/>
        <pt x="633" y="55" on="1"/>
        <pt x="960" y="55" on="0"/>
        <pt x="960" y="-182" on="1"/>
        <pt x="960" y="-257" on="0"/>
        <pt x="888" y="-362" on="0"/>
        <pt x="767" y="-428" on="0"/>
        <pt x="609" y="-457" on="0"/>
        <pt x="524" y="-457" on="1"/>
        <pt x="432" y="-457" on="0"/>
        <pt x="275" y="-428" on="0"/>
        <pt x="158" y="-392" on="0"/>
        <pt x="90" y="-361" on="0"/>
        <pt x="86" y="-358" on="1"/>
        <pt x="143" y="-238" on="1"/>
        <pt x="194" y="-264" on="0"/>
        <pt x="255" y="-283" on="1"/>
        <pt x="307" y="-300" on="0"/>
        <pt x="445" y="-328" on="0"/>
        <pt x="524" y="-328" on="1"/>
        <pt x="591" y="-328" on="0"/>
        <pt x="697" y="-313" on="0"/>
        <pt x="771" y="-281" on="0"/>
        <pt x="811" y="-232" on="0"/>
        <pt x="811" y="-197" on="1"/>
        <pt x="811" y="-169" on="0"/>
        <pt x="790" y="-122" on="0"/>
        <pt x="739" y="-90" on="0"/>
        <pt x="654" y="-72" on="0"/>
        <pt x="590" y="-72" on="1"/>
        <pt x="256" y="-72" on="1"/>
        <pt x="256" y="299" on="1"/>
        <pt x="227" y="314" on="0"/>
        <pt x="173" y="364" on="0"/>
        <pt x="131" y="432" on="0"/>
        <pt x="106" y="518" on="0"/>
        <pt x="106" y="569" on="1"/>
        <pt x="106" y="648" on="0"/>
        <pt x="164" y="774" on="0"/>
        <pt x="269" y="862" on="0"/>
        <pt x="418" y="909" on="0"/>
        <pt x="510" y="909" on="1"/>
        <pt x="587" y="909" on="0"/>
        <pt x="709" y="881" on="0"/>
        <pt x="760" y="852" on="1"/>
        <pt x="1050" y="961" on="1"/>
        <pt x="1098" y="825" on="1"/>
      </contour>
      <contour>
        <pt x="262" y="575" on="1"/>
        <pt x="262" y="520" on="0"/>
        <pt x="303" y="438" on="0"/>
        <pt x="372" y="383" on="0"/>
        <pt x="463" y="356" on="0"/>
        <pt x="512" y="356" on="1"/>
        <pt x="561" y="356" on="0"/>
        <pt x="652" y="383" on="0"/>
        <pt x="721" y="438" on="0"/>
        <pt x="762" y="520" on="0"/>
        <pt x="762" y="575" on="1"/>
        <pt x="762" y="686" on="0"/>
        <pt x="627" y="795" on="0"/>
        <pt x="512" y="795" on="1"/>
        <pt x="396" y="795" on="0"/>
        <pt x="262" y="686" on="0"/>
      </contour>
    </TTGlyph>
    <TTGlyph name="germandbls" xMin="96" yMin="-31" xMax="1152" yMax="1315">
      <contour>
        <pt x="96" y="127" on="1"/>
        <pt x="268" y="127" on="1"/>
        <pt x="268" y="752" on="1"/>
        <pt x="96" y="752" on="1"/>
        <pt x="96" y="879" on="1"/>
        <pt x="268" y="879" on="1"/>
        <pt x="268" y="969" on="1"/>
        <pt x="268" y="1055" on="0"/>
        <pt x="309" y="1184" on="0"/>
        <pt x="397" y="1271" on="0"/>
        <pt x="536" y="1315" on="0"/>
        <pt x="634" y="1315" on="1"/>
        <pt x="717" y="1315" on="0"/>
        <pt x="844" y="1276" on="0"/>
        <pt x="929" y="1206" on="0"/>
        <pt x="972" y="1110" on="0"/>
        <pt x="972" y="1053" on="1"/>
        <pt x="972" y="1002" on="0"/>
        <pt x="939" y="924" on="0"/>
        <pt x="889" y="861" on="0"/>
        <pt x="832" y="810" on="0"/>
        <pt x="782" y="760" on="0"/>
        <pt x="749" y="709" on="0"/>
        <pt x="749" y="678" on="1"/>
        <pt x="749" y="652" on="0"/>
        <pt x="772" y="613" on="0"/>
        <pt x="817" y="581" on="0"/>
        <pt x="880" y="554" on="0"/>
        <pt x="972" y="520" on="0"/>
        <pt x="1056" y="468" on="0"/>
        <pt x="1118" y="395" on="0"/>
        <pt x="1152" y="295" on="0"/>
        <pt x="1152" y="229" on="1"/>
        <pt x="1152" y="167" on="0"/>
        <pt x="1105" y="70" on="0"/>
        <pt x="1025" y="4" on="0"/>
        <pt x="920" y="-31" on="0"/>
        <pt x="862" y="-31" on="1"/>
        <pt x="796" y="-31" on="0"/>
        <pt x="699" y="-3" on="0"/>
        <pt x="627" y="33" on="0"/>
        <pt x="600" y="59" on="1"/>
        <pt x="567" y="242" on="1"/>
        <pt x="700" y="270" on="1"/>
        <pt x="720" y="150" on="1"/>
        <pt x="734" y="136" on="0"/>
        <pt x="771" y="115" on="0"/>
        <pt x="826" y="100" on="0"/>
        <pt x="864" y="100" on="1"/>
        <pt x="895" y="100" on="0"/>
        <pt x="947" y="119" on="0"/>
        <pt x="985" y="154" on="0"/>
        <pt x="1005" y="201" on="0"/>
        <pt x="1005" y="229" on="1"/>
        <pt x="1005" y="269" on="0"/>
        <pt x="975" y="325" on="0"/>
        <pt x="927" y="364" on="0"/>
        <pt x="868" y="389" on="0"/>
        <pt x="782" y="419" on="0"/>
        <pt x="689" y="476" on="0"/>
        <pt x="624" y="544" on="0"/>
        <pt x="589" y="622" on="0"/>
        <pt x="589" y="664" on="1"/>
        <pt x="589" y="722" on="0"/>
        <pt x="623" y="805" on="0"/>
        <pt x="675" y="868" on="0"/>
        <pt x="735" y="916" on="0"/>
        <pt x="787" y="964" on="0"/>
        <pt x="821" y="1017" on="0"/>
        <pt x="821" y="1053" on="1"/>
        <pt x="821" y="1075" on="0"/>
        <pt x="799" y="1122" on="0"/>
        <pt x="754" y="1160" on="0"/>
        <pt x="688" y="1184" on="0"/>
        <pt x="645" y="1184" on="1"/>
        <pt x="579" y="1184" on="0"/>
        <pt x="494" y="1153" on="0"/>
        <pt x="446" y="1090" on="0"/>
        <pt x="428" y="997" on="0"/>
        <pt x="428" y="936" on="1"/>
        <pt x="428" y="0" on="1"/>
        <pt x="96" y="0" on="1"/>
      </contour>
    </TTGlyph>
    <TTGlyph name="grave" xMin="86" yMin="983" xMax="600" yMax="1335">
      <contour>
        <pt x="600" y="1049" on="1"/>
        <pt x="563" y="983" on="1"/>
        <pt x="86" y="1200" on="1"/>
        <pt x="158" y="1335" on="1"/>
      </contour>
    </TTGlyph>
    <TTGlyph name="greater" xMin="114" yMin="143" xMax="992" yMax="1102">
      <contour>
        <pt x="134" y="274" on="1"/>
        <pt x="792" y="631" on="1"/>
        <pt x="792" y="643" on="1"/>
        <pt x="114" y="971" on="1"/>
        <pt x="179" y="1102" on="1"/>
        <pt x="992" y="707" on="1"/>
        <pt x="992" y="582" on="1"/>
        <pt x="200" y="143" on="1"/>
      </contour>
    </TTGlyph>
    <TTGlyph name="guillemotleft" xMin="79" yMin="4" xMax="714" yMax="885">
      <contour>
        <pt x="507" y="76" on="1"/>
        <pt x="405" y="4" on="1"/>
        <pt x="79" y="444" on="1"/>
        <pt x="405" y="885" on="1"/>
        <pt x="507" y="813" on="1"/>
        <pt x="245" y="444" on="1"/>
      </contour>
      <contour>
        <pt x="714" y="207" on="1"/>
        <pt x="601" y="141" on="1"/>
        <pt x="394" y="444" on="1"/>
        <pt x="601" y="748" on="1"/>
        <pt x="714" y="682" on="1"/>
        <pt x="554" y="444" on="1"/>
      </contour>
    </TTGlyph>
    <TTGlyph name="guillemotright" xMin="118" yMin="4" xMax="753" yMax="885">
      <contour>
        <pt x="587" y="444" on="1"/>
        <pt x="325" y="813" on="1"/>
        <pt x="427" y="885" on="1"/>
        <pt x="753" y="444" on="1"/>
        <pt x="427" y="4" on="1"/>
        <pt x="325" y="76" on="1"/>
      </contour>
      <contour>
        <pt x="280" y="444" on="1"/>
        <pt x="118" y="682" on="1"/>
        <pt x="231" y="748" on="1"/>
        <pt x="438" y="444" on="1"/>
        <pt x="231" y="141" on="1"/>
        <pt x="118" y="207" on="1"/>
      </contour>
    </TTGlyph>
    <TTGlyph name="guilsinglleft" xMin="79" yMin="4" xMax="507" yMax="885">
      <contour>
        <pt x="507" y="76" on="1"/>
        <pt x="405" y="4" on="1"/>
        <pt x="79" y="444" on="1"/>
        <pt x="405" y="885" on="1"/>
        <pt x="507" y="813" on="1"/>
        <pt x="245" y="444" on="1"/>
      </contour>
    </TTGlyph>
    <TTGlyph name="guilsinglright" xMin="110" yMin="4" xMax="538" yMax="885">
      <contour>
        <pt x="372" y="444" on="1"/>
        <pt x="110" y="813" on="1"/>
        <pt x="212" y="885" on="1"/>
        <pt x="538" y="444" on="1"/>
        <pt x="212" y="4" on="1"/>
        <pt x="110" y="76" on="1"/>
      </contour>
    </TTGlyph>
    <TTGlyph name="h" xMin="29" yMin="0" xMax="1190" yMax="1331">
      <contour>
        <pt x="72" y="1331" on="1"/>
        <pt x="383" y="1225" on="1"/>
        <pt x="383" y="823" on="1"/>
        <pt x="404" y="837" on="0"/>
        <pt x="461" y="867" on="0"/>
        <pt x="529" y="893" on="0"/>
        <pt x="608" y="909" on="0"/>
        <pt x="651" y="909" on="1"/>
        <pt x="749" y="909" on="0"/>
        <pt x="888" y="866" on="0"/>
        <pt x="977" y="779" on="0"/>
        <pt x="1018" y="649" on="0"/>
        <pt x="1018" y="563" on="1"/>
        <pt x="1018" y="127" on="1"/>
        <pt x="1190" y="127" on="1"/>
        <pt x="1190" y="0" on="1"/>
        <pt x="766" y="0" on="1"/>
        <pt x="766" y="127" on="1"/>
        <pt x="858" y="127" on="1"/>
        <pt x="858" y="530" on="1"/>
        <pt x="858" y="585" on="0"/>
        <pt x="840" y="676" on="0"/>
        <pt x="791" y="742" on="0"/>
        <pt x="707" y="778" on="0"/>
        <pt x="641" y="778" on="1"/>
        <pt x="585" y="778" on="0"/>
        <pt x="491" y="756" on="0"/>
        <pt x="456" y="743" on="1"/>
        <pt x="416" y="728" on="0"/>
        <pt x="383" y="709" on="1"/>
        <pt x="383" y="127" on="1"/>
        <pt x="475" y="127" on="1"/>
        <pt x="475" y="0" on="1"/>
        <pt x="51" y="0" on="1"/>
        <pt x="51" y="127" on="1"/>
        <pt x="223" y="127" on="1"/>
        <pt x="223" y="1137" on="1"/>
        <pt x="29" y="1204" on="1"/>
      </contour>
    </TTGlyph>
    <TTGlyph name="hyphen" xMin="138" yMin="403" xMax="765" yMax="545">
      <contour>
        <pt x="138" y="545" on="1"/>
        <pt x="765" y="545" on="1"/>
        <pt x="765" y="403" on="1"/>
        <pt x="138" y="403" on="1"/>
      </contour>
    </TTGlyph>
    <TTGlyph name="i" xMin="95" yMin="0" xMax="595" yMax="1315">
      <contour>
        <pt x="95" y="879" on="1"/>
        <pt x="425" y="879" on="1"/>
        <pt x="425" y="127" on="1"/>
        <pt x="595" y="127" on="1"/>
        <pt x="595" y="0" on="1"/>
        <pt x="95" y="0" on="1"/>
        <pt x="95" y="127" on="1"/>
        <pt x="265" y="127" on="1"/>
        <pt x="265" y="752" on="1"/>
        <pt x="95" y="752" on="1"/>
      </contour>
      <contour>
        <pt x="457" y="1188" on="1"/>
        <pt x="457" y="1162" on="0"/>
        <pt x="436" y="1115" on="0"/>
        <pt x="402" y="1081" on="0"/>
        <pt x="355" y="1061" on="0"/>
        <pt x="330" y="1061" on="1"/>
        <pt x="304" y="1061" on="0"/>
        <pt x="258" y="1081" on="0"/>
        <pt x="224" y="1115" on="0"/>
        <pt x="204" y="1162" on="0"/>
        <pt x="204" y="1188" on="1"/>
        <pt x="204" y="1213" on="0"/>
        <pt x="224" y="1259" on="0"/>
        <pt x="258" y="1294" on="0"/>
        <pt x="304" y="1315" on="0"/>
        <pt x="330" y="1315" on="1"/>
        <pt x="355" y="1315" on="0"/>
        <pt x="402" y="1294" on="0"/>
        <pt x="436" y="1259" on="0"/>
        <pt x="457" y="1213" on="0"/>
      </contour>
    </TTGlyph>
    <TTGlyph name="iacute" xMin="95" yMin="0" xMax="679" yMax="1335">
      <component glyphName="dotlessi" x="0" y="0" flags="0x4"/>
      <component glyphName="acute" x="97" y="41" flags="0x4"/>
    </TTGlyph>
    <TTGlyph name="icircumflex" xMin="20" yMin="0" xMax="638" yMax="1337">
      <component glyphName="dotlessi" x="0" y="0" flags="0x204"/>
      <component glyphName="circumflex" x="-17" y="51" flags="0x4"/>
    </TTGlyph>
    <TTGlyph name="idieresis" xMin="46" yMin="0" xMax="640" yMax="1274">
      <component glyphName="dotlessi" x="0" y="0" flags="0x204"/>
      <component glyphName="dieresis" x="-15" y="47" flags="0x4"/>
    </TTGlyph>
    <TTGlyph name="igrave" xMin="-47" yMin="0" xMax="595" yMax="1335">
      <component glyphName="dotlessi" x="0" y="0" flags="0x204"/>
      <component glyphName="grave" x="-133" y="0" flags="0x4"/>
    </TTGlyph>
    <TTGlyph name="j" xMin="-90" yMin="-457" xMax="418" yMax="1315">
      <contour>
        <pt x="51" y="879" on="1"/>
        <pt x="383" y="879" on="1"/>
        <pt x="383" y="-63" on="1"/>
        <pt x="383" y="-106" on="0"/>
        <pt x="379" y="-197" on="0"/>
        <pt x="358" y="-284" on="0"/>
        <pt x="312" y="-363" on="0"/>
        <pt x="229" y="-422" on="0"/>
        <pt x="102" y="-457" on="0"/>
        <pt x="10" y="-457" on="1"/>
        <pt x="0" y="-457" on="0"/>
        <pt x="-27" y="-455" on="0"/>
        <pt x="-55" y="-452" on="0"/>
        <pt x="-81" y="-450" on="0"/>
        <pt x="-90" y="-449" on="1"/>
        <pt x="-70" y="-324" on="1"/>
        <pt x="-50" y="-326" on="0"/>
        <pt x="-9" y="-328" on="0"/>
        <pt x="16" y="-328" on="1"/>
        <pt x="99" y="-328" on="0"/>
        <pt x="184" y="-278" on="0"/>
        <pt x="220" y="-203" on="0"/>
        <pt x="223" y="-114" on="0"/>
        <pt x="223" y="-76" on="1"/>
        <pt x="223" y="752" on="1"/>
        <pt x="51" y="752" on="1"/>
      </contour>
      <contour>
        <pt x="418" y="1188" on="1"/>
        <pt x="418" y="1162" on="0"/>
        <pt x="397" y="1115" on="0"/>
        <pt x="362" y="1081" on="0"/>
        <pt x="316" y="1061" on="0"/>
        <pt x="291" y="1061" on="1"/>
        <pt x="265" y="1061" on="0"/>
        <pt x="218" y="1081" on="0"/>
        <pt x="184" y="1115" on="0"/>
        <pt x="164" y="1162" on="0"/>
        <pt x="164" y="1188" on="1"/>
        <pt x="164" y="1213" on="0"/>
        <pt x="184" y="1259" on="0"/>
        <pt x="218" y="1294" on="0"/>
        <pt x="265" y="1315" on="0"/>
        <pt x="291" y="1315" on="1"/>
        <pt x="316" y="1315" on="0"/>
        <pt x="362" y="1294" on="0"/>
        <pt x="397" y="1259" on="0"/>
        <pt x="418" y="1213" on="0"/>
      </contour>
    </TTGlyph>
    <TTGlyph name="k" xMin="29" yMin="0" xMax="1067" yMax="1333">
      <contour>
        <pt x="1034" y="752" on="1"/>
        <pt x="862" y="752" on="1"/>
        <pt x="690" y="459" on="1"/>
        <pt x="692" y="459" on="1"/>
        <pt x="891" y="127" on="1"/>
        <pt x="1067" y="127" on="1"/>
        <pt x="1067" y="0" on="1"/>
        <pt x="795" y="0" on="1"/>
        <pt x="563" y="383" on="1"/>
        <pt x="383" y="383" on="1"/>
        <pt x="383" y="127" on="1"/>
        <pt x="475" y="127" on="1"/>
        <pt x="475" y="0" on="1"/>
        <pt x="51" y="0" on="1"/>
        <pt x="51" y="127" on="1"/>
        <pt x="223" y="127" on="1"/>
        <pt x="223" y="1139" on="1"/>
        <pt x="29" y="1206" on="1"/>
        <pt x="72" y="1333" on="1"/>
        <pt x="383" y="1227" on="1"/>
        <pt x="383" y="510" on="1"/>
        <pt x="569" y="510" on="1"/>
        <pt x="711" y="752" on="1"/>
        <pt x="604" y="752" on="1"/>
        <pt x="604" y="879" on="1"/>
        <pt x="1034" y="879" on="1"/>
      </contour>
    </TTGlyph>
    <TTGlyph name="l" xMin="19" yMin="0" xMax="555" yMax="1335">
      <contour>
        <pt x="383" y="1260" on="1"/>
        <pt x="383" y="127" on="1"/>
        <pt x="555" y="127" on="1"/>
        <pt x="555" y="0" on="1"/>
        <pt x="51" y="0" on="1"/>
        <pt x="51" y="127" on="1"/>
        <pt x="223" y="127" on="1"/>
        <pt x="223" y="1159" on="1"/>
        <pt x="19" y="1204" on="1"/>
        <pt x="53" y="1335" on="1"/>
      </contour>
    </TTGlyph>
    <TTGlyph name="less" xMin="67" yMin="144" xMax="951" yMax="1103">
      <contour>
        <pt x="886" y="144" on="1"/>
        <pt x="67" y="583" on="1"/>
        <pt x="67" y="708" on="1"/>
        <pt x="865" y="1103" on="1"/>
        <pt x="931" y="972" on="1"/>
        <pt x="267" y="644" on="1"/>
        <pt x="267" y="632" on="1"/>
        <pt x="951" y="275" on="1"/>
      </contour>
    </TTGlyph>
    <TTGlyph name="logicalnot" xMin="115" yMin="453" xMax="1051" yMax="874">
      <contour>
        <pt x="115" y="874" on="1"/>
        <pt x="1051" y="874" on="1"/>
        <pt x="1051" y="453" on="1"/>
        <pt x="891" y="453" on="1"/>
        <pt x="891" y="733" on="1"/>
        <pt x="115" y="733" on="1"/>
      </contour>
    </TTGlyph>
    <TTGlyph name="m" xMin="76" yMin="0" xMax="1776" yMax="909">
      <contour>
        <pt x="119" y="909" on="1"/>
        <pt x="390" y="815" on="1"/>
        <pt x="403" y="825" on="0"/>
        <pt x="451" y="857" on="0"/>
        <pt x="521" y="887" on="0"/>
        <pt x="612" y="909" on="0"/>
        <pt x="666" y="909" on="1"/>
        <pt x="775" y="909" on="0"/>
        <pt x="917" y="855" on="0"/>
        <pt x="957" y="801" on="1"/>
        <pt x="961" y="803" on="1"/>
        <pt x="995" y="832" on="0"/>
        <pt x="1040" y="856" on="1"/>
        <pt x="1078" y="876" on="0"/>
        <pt x="1185" y="909" on="0"/>
        <pt x="1252" y="909" on="1"/>
        <pt x="1350" y="909" on="0"/>
        <pt x="1485" y="866" on="0"/>
        <pt x="1568" y="779" on="0"/>
        <pt x="1604" y="649" on="0"/>
        <pt x="1604" y="563" on="1"/>
        <pt x="1604" y="127" on="1"/>
        <pt x="1776" y="127" on="1"/>
        <pt x="1776" y="0" on="1"/>
        <pt x="1352" y="0" on="1"/>
        <pt x="1352" y="127" on="1"/>
        <pt x="1444" y="127" on="1"/>
        <pt x="1444" y="530" on="1"/>
        <pt x="1444" y="585" on="0"/>
        <pt x="1430" y="676" on="0"/>
        <pt x="1387" y="742" on="0"/>
        <pt x="1307" y="778" on="0"/>
        <pt x="1241" y="778" on="1"/>
        <pt x="1185" y="778" on="0"/>
        <pt x="1102" y="756" on="0"/>
        <pt x="1074" y="743" on="1"/>
        <pt x="1041" y="728" on="0"/>
        <pt x="1018" y="709" on="1"/>
        <pt x="1018" y="127" on="1"/>
        <pt x="1110" y="127" on="1"/>
        <pt x="1110" y="0" on="1"/>
        <pt x="766" y="0" on="1"/>
        <pt x="766" y="127" on="1"/>
        <pt x="858" y="127" on="1"/>
        <pt x="858" y="530" on="1"/>
        <pt x="858" y="585" on="0"/>
        <pt x="844" y="676" on="0"/>
        <pt x="802" y="742" on="0"/>
        <pt x="722" y="778" on="0"/>
        <pt x="656" y="778" on="1"/>
        <pt x="600" y="778" on="0"/>
        <pt x="517" y="756" on="0"/>
        <pt x="489" y="743" on="1"/>
        <pt x="456" y="728" on="0"/>
        <pt x="433" y="709" on="1"/>
        <pt x="433" y="127" on="1"/>
        <pt x="525" y="127" on="1"/>
        <pt x="525" y="0" on="1"/>
        <pt x="101" y="0" on="1"/>
        <pt x="101" y="127" on="1"/>
        <pt x="273" y="127" on="1"/>
        <pt x="273" y="715" on="1"/>
        <pt x="76" y="782" on="1"/>
      </contour>
    </TTGlyph>
    <TTGlyph name="macron" xMin="74" yMin="1024" xMax="686" yMax="1165">
      <contour>
        <pt x="74" y="1165" on="1"/>
        <pt x="686" y="1165" on="1"/>
        <pt x="686" y="1024" on="1"/>
        <pt x="74" y="1024" on="1"/>
      </contour>
    </TTGlyph>
    <TTGlyph name="minus" xMin="147" yMin="537" xMax="879" yMax="678">
      <contour>
        <pt x="147" y="678" on="1"/>
        <pt x="879" y="678" on="1"/>
        <pt x="879" y="537" on="1"/>
        <pt x="147" y="537" on="1"/>
      </contour>
    </TTGlyph>
    <TTGlyph name="mu" xMin="190" yMin="-459" xMax="1178" yMax="879">
      <contour>
        <pt x="348" y="-74" on="1"/>
        <pt x="349" y="-142" on="0"/>
        <pt x="365" y="-240" on="0"/>
        <pt x="404" y="-303" on="0"/>
        <pt x="469" y="-332" on="0"/>
        <pt x="518" y="-332" on="1"/>
        <pt x="538" y="-332" on="0"/>
        <pt x="576" y="-327" on="0"/>
        <pt x="607" y="-320" on="0"/>
        <pt x="621" y="-315" on="1"/>
        <pt x="647" y="-438" on="1"/>
        <pt x="615" y="-449" on="0"/>
        <pt x="535" y="-459" on="0"/>
        <pt x="498" y="-459" on="1"/>
        <pt x="371" y="-459" on="0"/>
        <pt x="285" y="-391" on="1"/>
        <pt x="252" y="-365" on="0"/>
        <pt x="214" y="-297" on="0"/>
        <pt x="195" y="-216" on="0"/>
        <pt x="190" y="-124" on="0"/>
        <pt x="190" y="-76" on="1"/>
        <pt x="190" y="879" on="1"/>
        <pt x="350" y="879" on="1"/>
        <pt x="350" y="455" on="1"/>
        <pt x="350" y="363" on="0"/>
        <pt x="369" y="230" on="0"/>
        <pt x="418" y="142" on="0"/>
        <pt x="502" y="100" on="0"/>
        <pt x="567" y="100" on="1"/>
        <pt x="623" y="100" on="0"/>
        <pt x="716" y="122" on="0"/>
        <pt x="791" y="152" on="0"/>
        <pt x="825" y="172" on="1"/>
        <pt x="825" y="879" on="1"/>
        <pt x="985" y="879" on="1"/>
        <pt x="985" y="162" on="1"/>
        <pt x="1178" y="96" on="1"/>
        <pt x="1137" y="-35" on="1"/>
        <pt x="858" y="61" on="1"/>
        <pt x="840" y="50" on="0"/>
        <pt x="780" y="19" on="0"/>
        <pt x="702" y="-10" on="0"/>
        <pt x="608" y="-31" on="0"/>
        <pt x="557" y="-31" on="1"/>
        <pt x="515" y="-31" on="0"/>
        <pt x="447" y="-15" on="0"/>
        <pt x="396" y="10" on="0"/>
        <pt x="358" y="39" on="0"/>
        <pt x="346" y="51" on="1"/>
      </contour>
    </TTGlyph>
    <TTGlyph name="multiply" xMin="132" yMin="322" xMax="762" yMax="948">
      <contour>
        <pt x="132" y="432" on="1"/>
        <pt x="341" y="633" on="1"/>
        <pt x="132" y="834" on="1"/>
        <pt x="234" y="948" on="1"/>
        <pt x="451" y="739" on="1"/>
        <pt x="660" y="940" on="1"/>
        <pt x="758" y="829" on="1"/>
        <pt x="558" y="637" on="1"/>
        <pt x="762" y="440" on="1"/>
        <pt x="660" y="326" on="1"/>
        <pt x="447" y="530" on="1"/>
        <pt x="230" y="322" on="1"/>
      </contour>
    </TTGlyph>
    <TTGlyph name="n" xMin="76" yMin="0" xMax="1239" yMax="909">
      <contour>
        <pt x="119" y="909" on="1"/>
        <pt x="391" y="815" on="1"/>
        <pt x="406" y="825" on="0"/>
        <pt x="466" y="857" on="0"/>
        <pt x="547" y="887" on="0"/>
        <pt x="646" y="909" on="0"/>
        <pt x="701" y="909" on="1"/>
        <pt x="799" y="909" on="0"/>
        <pt x="938" y="866" on="0"/>
        <pt x="1026" y="779" on="0"/>
        <pt x="1067" y="649" on="0"/>
        <pt x="1067" y="563" on="1"/>
        <pt x="1067" y="127" on="1"/>
        <pt x="1239" y="127" on="1"/>
        <pt x="1239" y="0" on="1"/>
        <pt x="815" y="0" on="1"/>
        <pt x="815" y="127" on="1"/>
        <pt x="907" y="127" on="1"/>
        <pt x="907" y="530" on="1"/>
        <pt x="907" y="585" on="0"/>
        <pt x="889" y="676" on="0"/>
        <pt x="840" y="742" on="0"/>
        <pt x="756" y="778" on="0"/>
        <pt x="690" y="778" on="1"/>
        <pt x="634" y="778" on="0"/>
        <pt x="541" y="756" on="0"/>
        <pt x="506" y="743" on="1"/>
        <pt x="466" y="728" on="0"/>
        <pt x="432" y="709" on="1"/>
        <pt x="432" y="127" on="1"/>
        <pt x="524" y="127" on="1"/>
        <pt x="524" y="0" on="1"/>
        <pt x="100" y="0" on="1"/>
        <pt x="100" y="127" on="1"/>
        <pt x="273" y="127" on="1"/>
        <pt x="273" y="715" on="1"/>
        <pt x="76" y="782" on="1"/>
      </contour>
    </TTGlyph>
    <TTGlyph name="nine" xMin="101" yMin="-31" xMax="1016" yMax="1237">
      <contour>
        <pt x="504" y="109" on="1"/>
        <pt x="571" y="109" on="0"/>
        <pt x="671" y="146" on="0"/>
        <pt x="743" y="209" on="0"/>
        <pt x="790" y="295" on="0"/>
        <pt x="820" y="393" on="0"/>
        <pt x="833" y="498" on="0"/>
        <pt x="836" y="549" on="1"/>
        <pt x="815" y="521" on="0"/>
        <pt x="751" y="466" on="0"/>
        <pt x="668" y="421" on="0"/>
        <pt x="567" y="393" on="0"/>
        <pt x="510" y="393" on="1"/>
        <pt x="432" y="393" on="0"/>
        <pt x="285" y="433" on="0"/>
        <pt x="171" y="532" on="0"/>
        <pt x="101" y="701" on="0"/>
        <pt x="101" y="829" on="1"/>
        <pt x="101" y="867" on="0"/>
        <pt x="117" y="957" on="0"/>
        <pt x="155" y="1048" on="0"/>
        <pt x="221" y="1132" on="0"/>
        <pt x="319" y="1198" on="0"/>
        <pt x="455" y="1237" on="0"/>
        <pt x="545" y="1237" on="1"/>
        <pt x="664" y="1237" on="0"/>
        <pt x="841" y="1154" on="0"/>
        <pt x="958" y="994" on="0"/>
        <pt x="1016" y="761" on="0"/>
        <pt x="1016" y="610" on="1"/>
        <pt x="1016" y="479" on="0"/>
        <pt x="968" y="281" on="0"/>
        <pt x="888" y="139" on="0"/>
        <pt x="782" y="46" on="0"/>
        <pt x="665" y="-9" on="0"/>
        <pt x="545" y="-31" on="0"/>
        <pt x="490" y="-31" on="1"/>
        <pt x="415" y="-31" on="0"/>
        <pt x="293" y="-2" on="0"/>
        <pt x="249" y="16" on="1"/>
        <pt x="198" y="36" on="0"/>
        <pt x="158" y="63" on="1"/>
        <pt x="234" y="182" on="1"/>
        <pt x="235" y="183" on="0"/>
        <pt x="281" y="160" on="0"/>
        <pt x="356" y="132" on="0"/>
        <pt x="453" y="109" on="0"/>
      </contour>
      <contour>
        <pt x="510" y="532" on="1"/>
        <pt x="639" y="532" on="0"/>
        <pt x="802" y="629" on="0"/>
        <pt x="836" y="705" on="1"/>
        <pt x="829" y="834" on="0"/>
        <pt x="771" y="989" on="0"/>
        <pt x="687" y="1072" on="0"/>
        <pt x="584" y="1098" on="0"/>
        <pt x="531" y="1098" on="1"/>
        <pt x="464" y="1098" on="0"/>
        <pt x="366" y="1051" on="0"/>
        <pt x="301" y="972" on="0"/>
        <pt x="269" y="865" on="0"/>
        <pt x="269" y="805" on="1"/>
        <pt x="269" y="749" on="0"/>
        <pt x="298" y="650" on="0"/>
        <pt x="358" y="576" on="0"/>
        <pt x="448" y="532" on="0"/>
      </contour>
    </TTGlyph>
    <TTGlyph name="ntilde" xMin="76" yMin="0" xMax="1239" yMax="1297">
      <component glyphName="n" x="0" y="0" flags="0x204"/>
      <component glyphName="tilde" x="94" y="61" flags="0x4"/>
    </TTGlyph>
    <TTGlyph name="numbersign" xMin="77" yMin="-137" xMax="1269" yMax="1206">
      <contour>
        <pt x="147" y="805" on="1"/>
        <pt x="481" y="805" on="1"/>
        <pt x="593" y="1206" on="1"/>
        <pt x="722" y="1206" on="1"/>
        <pt x="612" y="805" on="1"/>
        <pt x="886" y="805" on="1"/>
        <pt x="999" y="1206" on="1"/>
        <pt x="1128" y="1206" on="1"/>
        <pt x="1017" y="805" on="1"/>
        <pt x="1269" y="805" on="1"/>
        <pt x="1269" y="694" on="1"/>
        <pt x="986" y="694" on="1"/>
        <pt x="894" y="362" on="1"/>
        <pt x="1199" y="362" on="1"/>
        <pt x="1199" y="252" on="1"/>
        <pt x="864" y="252" on="1"/>
        <pt x="757" y="-137" on="1"/>
        <pt x="626" y="-137" on="1"/>
        <pt x="732" y="252" on="1"/>
        <pt x="458" y="252" on="1"/>
        <pt x="352" y="-137" on="1"/>
        <pt x="220" y="-137" on="1"/>
        <pt x="327" y="252" on="1"/>
        <pt x="77" y="252" on="1"/>
        <pt x="77" y="362" on="1"/>
        <pt x="358" y="362" on="1"/>
        <pt x="450" y="694" on="1"/>
        <pt x="147" y="694" on="1"/>
      </contour>
      <contour>
        <pt x="489" y="362" on="1"/>
        <pt x="763" y="362" on="1"/>
        <pt x="855" y="694" on="1"/>
        <pt x="581" y="694" on="1"/>
      </contour>
    </TTGlyph>
    <TTGlyph name="o" xMin="94" yMin="-31" xMax="996" yMax="909">
      <contour>
        <pt x="541" y="-31" on="1"/>
        <pt x="442" y="-31" on="0"/>
        <pt x="278" y="33" on="0"/>
        <pt x="159" y="154" on="0"/>
        <pt x="94" y="328" on="0"/>
        <pt x="94" y="438" on="1"/>
        <pt x="94" y="548" on="0"/>
        <pt x="159" y="723" on="0"/>
        <pt x="278" y="844" on="0"/>
        <pt x="442" y="909" on="0"/>
        <pt x="541" y="909" on="1"/>
        <pt x="643" y="909" on="0"/>
        <pt x="811" y="844" on="0"/>
        <pt x="930" y="723" on="0"/>
        <pt x="996" y="548" on="0"/>
        <pt x="996" y="438" on="1"/>
        <pt x="996" y="328" on="0"/>
        <pt x="930" y="154" on="0"/>
        <pt x="811" y="33" on="0"/>
        <pt x="643" y="-31" on="0"/>
      </contour>
      <contour>
        <pt x="543" y="778" on="1"/>
        <pt x="401" y="778" on="0"/>
        <pt x="258" y="599" on="0"/>
        <pt x="258" y="438" on="1"/>
        <pt x="258" y="277" on="0"/>
        <pt x="401" y="100" on="0"/>
        <pt x="543" y="100" on="1"/>
        <pt x="688" y="100" on="0"/>
        <pt x="832" y="276" on="0"/>
        <pt x="832" y="438" on="1"/>
        <pt x="832" y="599" on="0"/>
        <pt x="687" y="778" on="0"/>
      </contour>
    </TTGlyph>
    <TTGlyph name="oacute" xMin="94" yMin="-31" xMax="996" yMax="1335">
      <component glyphName="o" x="0" y="0" flags="0x204"/>
      <component glyphName="acute" x="357" y="41" flags="0x4"/>
    </TTGlyph>
    <TTGlyph name="ocircumflex" xMin="94" yMin="-31" xMax="996" yMax="1337">
      <component glyphName="o" x="0" y="0" flags="0x204"/>
      <component glyphName="circumflex" x="201" y="51" flags="0x4"/>
    </TTGlyph>
    <TTGlyph name="odieresis" xMin="94" yMin="-31" xMax="996" yMax="1274">
      <component glyphName="o" x="0" y="0" flags="0x204"/>
      <component glyphName="dieresis" x="187" y="47" flags="0x4"/>
    </TTGlyph>
    <TTGlyph name="oe" xMin="92" yMin="-31" xMax="1465" yMax="909">
      <contour>
        <pt x="1077" y="-31" on="1"/>
        <pt x="993" y="-31" on="0"/>
        <pt x="856" y="13" on="0"/>
        <pt x="799" y="55" on="1"/>
        <pt x="748" y="21" on="0"/>
        <pt x="617" y="-31" on="0"/>
        <pt x="539" y="-31" on="1"/>
        <pt x="440" y="-31" on="0"/>
        <pt x="276" y="39" on="0"/>
        <pt x="157" y="167" on="0"/>
        <pt x="92" y="347" on="0"/>
        <pt x="92" y="457" on="1"/>
        <pt x="92" y="556" on="0"/>
        <pt x="161" y="722" on="0"/>
        <pt x="282" y="842" on="0"/>
        <pt x="445" y="909" on="0"/>
        <pt x="539" y="909" on="1"/>
        <pt x="633" y="909" on="0"/>
        <pt x="773" y="866" on="0"/>
        <pt x="824" y="840" on="1"/>
        <pt x="876" y="874" on="0"/>
        <pt x="1002" y="909" on="0"/>
        <pt x="1077" y="909" on="1"/>
        <pt x="1153" y="909" on="0"/>
        <pt x="1292" y="871" on="0"/>
        <pt x="1398" y="777" on="0"/>
        <pt x="1461" y="619" on="0"/>
        <pt x="1461" y="499" on="1"/>
        <pt x="1461" y="476" on="0"/>
        <pt x="1458" y="427" on="0"/>
        <pt x="1456" y="401" on="1"/>
        <pt x="797" y="397" on="1"/>
        <pt x="805" y="253" on="0"/>
        <pt x="945" y="100" on="0"/>
        <pt x="1080" y="100" on="1"/>
        <pt x="1138" y="100" on="0"/>
        <pt x="1234" y="119" on="0"/>
        <pt x="1311" y="149" on="0"/>
        <pt x="1370" y="184" on="0"/>
        <pt x="1391" y="201" on="1"/>
        <pt x="1465" y="104" on="1"/>
        <pt x="1465" y="103" on="0"/>
        <pt x="1413" y="61" on="0"/>
        <pt x="1314" y="11" on="0"/>
        <pt x="1170" y="-31" on="0"/>
      </contour>
      <contour>
        <pt x="631" y="438" on="1"/>
        <pt x="631" y="532" on="0"/>
        <pt x="678" y="688" on="0"/>
        <pt x="723" y="748" on="1"/>
        <pt x="694" y="759" on="0"/>
        <pt x="604" y="778" on="0"/>
        <pt x="541" y="778" on="1"/>
        <pt x="476" y="778" on="0"/>
        <pt x="370" y="729" on="0"/>
        <pt x="296" y="644" on="0"/>
        <pt x="256" y="527" on="0"/>
        <pt x="256" y="459" on="1"/>
        <pt x="256" y="378" on="0"/>
        <pt x="292" y="246" on="0"/>
        <pt x="363" y="152" on="0"/>
        <pt x="470" y="100" on="0"/>
        <pt x="541" y="100" on="1"/>
        <pt x="595" y="100" on="0"/>
        <pt x="679" y="127" on="0"/>
        <pt x="713" y="145" on="1"/>
        <pt x="673" y="202" on="0"/>
        <pt x="631" y="347" on="0"/>
      </contour>
      <contour>
        <pt x="1080" y="778" on="1"/>
        <pt x="957" y="778" on="0"/>
        <pt x="818" y="645" on="0"/>
        <pt x="799" y="524" on="1"/>
        <pt x="1317" y="526" on="1"/>
        <pt x="1315" y="651" on="0"/>
        <pt x="1195" y="778" on="0"/>
      </contour>
    </TTGlyph>
    <TTGlyph name="ograve" xMin="94" yMin="-31" xMax="996" yMax="1335">
      <component glyphName="o" x="0" y="0" flags="0x204"/>
      <component glyphName="grave" x="45" y="0" flags="0x4"/>
    </TTGlyph>
    <TTGlyph name="one" xMin="80" yMin="0" xMax="940" yMax="1206">
      <contour>
        <pt x="80" y="836" on="1"/>
        <pt x="522" y="1206" on="1"/>
        <pt x="624" y="1206" on="1"/>
        <pt x="620" y="141" on="1"/>
        <pt x="940" y="141" on="1"/>
        <pt x="940" y="0" on="1"/>
        <pt x="121" y="0" on="1"/>
        <pt x="121" y="141" on="1"/>
        <pt x="461" y="141" on="1"/>
        <pt x="463" y="967" on="1"/>
        <pt x="170" y="725" on="1"/>
      </contour>
    </TTGlyph>
    <TTGlyph name="onehalf" xMin="78" yMin="-156" xMax="1642" yMax="1335">
      <component glyphName="fraction" x="502" y="0" flags="0x4"/>
      <component glyphName="onesuperior" x="-40" y="0" flags="0x4"/>
      <component glyphName="twosuperior" x="928" y="-474" flags="0x4"/>
    </TTGlyph>
    <TTGlyph name="onequarter" xMin="70" yMin="-156" xMax="1563" yMax="1335">
      <contour>
        <pt x="1446" y="203" on="1"/>
        <pt x="1446" y="99" on="1"/>
        <pt x="1559" y="99" on="1"/>
        <pt x="1559" y="0" on="1"/>
        <pt x="1200" y="0" on="1"/>
        <pt x="1200" y="99" on="1"/>
        <pt x="1329" y="99" on="1"/>
        <pt x="1329" y="203" on="1"/>
        <pt x="973" y="203" on="1"/>
        <pt x="973" y="264" on="1"/>
        <pt x="1210" y="791" on="1"/>
        <pt x="1311" y="731" on="1"/>
        <pt x="1165" y="430" on="1"/>
        <pt x="1106" y="301" on="1"/>
        <pt x="1329" y="301" on="1"/>
        <pt x="1329" y="639" on="1"/>
        <pt x="1448" y="639" on="1"/>
        <pt x="1446" y="301" on="1"/>
        <pt x="1563" y="303" on="1"/>
        <pt x="1563" y="203" on="1"/>
      </contour>
      <contour>
        <pt x="617" y="-156" on="1"/>
        <pt x="484" y="-156" on="1"/>
        <pt x="1080" y="1335" on="1"/>
        <pt x="1211" y="1335" on="1"/>
      </contour>
      <contour>
        <pt x="70" y="977" on="1"/>
        <pt x="348" y="1206" on="1"/>
        <pt x="428" y="1206" on="1"/>
        <pt x="426" y="565" on="1"/>
        <pt x="611" y="565" on="1"/>
        <pt x="611" y="461" on="1"/>
        <pt x="99" y="461" on="1"/>
        <pt x="99" y="565" on="1"/>
        <pt x="303" y="565" on="1"/>
        <pt x="305" y="1030" on="1"/>
        <pt x="138" y="893" on="1"/>
      </contour>
    </TTGlyph>
    <TTGlyph name="onesuperior" xMin="118" yMin="461" xMax="659" yMax="1206">
      <contour>
        <pt x="118" y="977" on="1"/>
        <pt x="396" y="1206" on="1"/>
        <pt x="476" y="1206" on="1"/>
        <pt x="474" y="565" on="1"/>
        <pt x="659" y="565" on="1"/>
        <pt x="659" y="461" on="1"/>
        <pt x="147" y="461" on="1"/>
        <pt x="147" y="565" on="1"/>
        <pt x="351" y="565" on="1"/>
        <pt x="353" y="1030" on="1"/>
        <pt x="186" y="893" on="1"/>
      </contour>
    </TTGlyph>
    <TTGlyph name="ordfeminine" xMin="113" yMin="322" xMax="713" yMax="909">
      <contour>
        <pt x="146" y="748" on="1"/>
        <pt x="168" y="872" on="1"/>
        <pt x="197" y="885" on="0"/>
        <pt x="299" y="909" on="0"/>
        <pt x="354" y="909" on="1"/>
        <pt x="441" y="909" on="0"/>
        <pt x="537" y="862" on="0"/>
        <pt x="583" y="791" on="0"/>
        <pt x="592" y="705" on="0"/>
        <pt x="592" y="666" on="1"/>
        <pt x="592" y="455" on="1"/>
        <pt x="713" y="416" on="1"/>
        <pt x="682" y="322" on="1"/>
        <pt x="506" y="381" on="1"/>
        <pt x="474" y="356" on="0"/>
        <pt x="386" y="326" on="0"/>
        <pt x="332" y="326" on="1"/>
        <pt x="278" y="326" on="0"/>
        <pt x="196" y="354" on="0"/>
        <pt x="141" y="402" on="0"/>
        <pt x="113" y="467" on="0"/>
        <pt x="113" y="505" on="1"/>
        <pt x="113" y="549" on="0"/>
        <pt x="147" y="611" on="0"/>
        <pt x="205" y="650" on="0"/>
        <pt x="281" y="668" on="0"/>
        <pt x="324" y="668" on="1"/>
        <pt x="475" y="666" on="1"/>
        <pt x="475" y="720" on="0"/>
        <pt x="469" y="756" on="0"/>
        <pt x="446" y="793" on="0"/>
        <pt x="396" y="813" on="0"/>
        <pt x="359" y="813" on="1"/>
        <pt x="327" y="813" on="0"/>
        <pt x="274" y="804" on="0"/>
        <pt x="258" y="799" on="1"/>
        <pt x="242" y="729" on="1"/>
      </contour>
      <contour>
        <pt x="338" y="420" on="1"/>
        <pt x="388" y="420" on="0"/>
        <pt x="457" y="456" on="0"/>
        <pt x="475" y="471" on="1"/>
        <pt x="475" y="575" on="1"/>
        <pt x="328" y="575" on="1"/>
        <pt x="309" y="575" on="0"/>
        <pt x="274" y="570" on="0"/>
        <pt x="248" y="554" on="0"/>
        <pt x="232" y="524" on="0"/>
        <pt x="232" y="500" on="1"/>
        <pt x="232" y="460" on="0"/>
        <pt x="293" y="420" on="0"/>
      </contour>
    </TTGlyph>
    <TTGlyph name="ordmasculine" xMin="112" yMin="330" xMax="669" yMax="909">
      <contour>
        <pt x="389" y="330" on="1"/>
        <pt x="328" y="330" on="0"/>
        <pt x="226" y="369" on="0"/>
        <pt x="153" y="443" on="0"/>
        <pt x="112" y="550" on="0"/>
        <pt x="112" y="618" on="1"/>
        <pt x="112" y="687" on="0"/>
        <pt x="153" y="796" on="0"/>
        <pt x="226" y="870" on="0"/>
        <pt x="328" y="909" on="0"/>
        <pt x="389" y="909" on="1"/>
        <pt x="452" y="909" on="0"/>
        <pt x="555" y="870" on="0"/>
        <pt x="629" y="796" on="0"/>
        <pt x="669" y="687" on="0"/>
        <pt x="669" y="618" on="1"/>
        <pt x="669" y="550" on="0"/>
        <pt x="629" y="443" on="0"/>
        <pt x="555" y="369" on="0"/>
        <pt x="452" y="330" on="0"/>
      </contour>
      <contour>
        <pt x="391" y="811" on="1"/>
        <pt x="310" y="811" on="0"/>
        <pt x="229" y="711" on="0"/>
        <pt x="229" y="618" on="1"/>
        <pt x="229" y="527" on="0"/>
        <pt x="310" y="428" on="0"/>
        <pt x="391" y="428" on="1"/>
        <pt x="471" y="428" on="0"/>
        <pt x="553" y="527" on="0"/>
        <pt x="553" y="618" on="1"/>
        <pt x="553" y="711" on="0"/>
        <pt x="471" y="811" on="0"/>
      </contour>
    </TTGlyph>
    <TTGlyph name="oslash" xMin="94" yMin="-147" xMax="996" yMax="1020">
      <contour>
        <pt x="541" y="-31" on="1"/>
        <pt x="477" y="-31" on="0"/>
        <pt x="426" y="-18" on="1"/>
        <pt x="375" y="-147" on="1"/>
        <pt x="244" y="-147" on="1"/>
        <pt x="314" y="23" on="1"/>
        <pt x="209" y="77" on="0"/>
        <pt x="94" y="288" on="0"/>
        <pt x="94" y="438" on="1"/>
        <pt x="94" y="548" on="0"/>
        <pt x="159" y="723" on="0"/>
        <pt x="278" y="844" on="0"/>
        <pt x="442" y="909" on="0"/>
        <pt x="541" y="909" on="1"/>
        <pt x="610" y="909" on="0"/>
        <pt x="670" y="893" on="1"/>
        <pt x="721" y="1020" on="1"/>
        <pt x="850" y="1020" on="1"/>
        <pt x="780" y="850" on="1"/>
        <pt x="882" y="793" on="0"/>
        <pt x="996" y="586" on="0"/>
        <pt x="996" y="438" on="1"/>
        <pt x="996" y="328" on="0"/>
        <pt x="930" y="154" on="0"/>
        <pt x="811" y="33" on="0"/>
        <pt x="643" y="-31" on="0"/>
      </contour>
      <contour>
        <pt x="543" y="778" on="1"/>
        <pt x="401" y="778" on="0"/>
        <pt x="258" y="599" on="0"/>
        <pt x="258" y="438" on="1"/>
        <pt x="258" y="338" on="0"/>
        <pt x="310" y="194" on="0"/>
        <pt x="367" y="152" on="1"/>
        <pt x="619" y="770" on="1"/>
        <pt x="602" y="775" on="0"/>
        <pt x="563" y="778" on="0"/>
      </contour>
      <contour>
        <pt x="832" y="438" on="1"/>
        <pt x="832" y="535" on="0"/>
        <pt x="781" y="677" on="0"/>
        <pt x="727" y="719" on="1"/>
        <pt x="477" y="106" on="1"/>
        <pt x="508" y="100" on="0"/>
        <pt x="543" y="100" on="1"/>
        <pt x="688" y="100" on="0"/>
        <pt x="832" y="276" on="0"/>
      </contour>
    </TTGlyph>
    <TTGlyph name="otilde" xMin="94" yMin="-31" xMax="996" yMax="1297">
      <component glyphName="o" x="0" y="0" flags="0x204"/>
      <component glyphName="tilde" x="-42" y="61" flags="0x4"/>
    </TTGlyph>
    <TTGlyph name="p" xMin="30" yMin="-426" xMax="1056" yMax="915">
      <contour>
        <pt x="555" y="-426" on="1"/>
        <pt x="51" y="-426" on="1"/>
        <pt x="51" y="-299" on="1"/>
        <pt x="223" y="-299" on="1"/>
        <pt x="223" y="721" on="1"/>
        <pt x="30" y="784" on="1"/>
        <pt x="71" y="915" on="1"/>
        <pt x="346" y="821" on="1"/>
        <pt x="370" y="837" on="0"/>
        <pt x="431" y="869" on="0"/>
        <pt x="501" y="894" on="0"/>
        <pt x="577" y="909" on="0"/>
        <pt x="618" y="909" on="1"/>
        <pt x="715" y="909" on="0"/>
        <pt x="876" y="852" on="0"/>
        <pt x="992" y="740" on="0"/>
        <pt x="1056" y="575" on="0"/>
        <pt x="1056" y="467" on="1"/>
        <pt x="1056" y="357" on="0"/>
        <pt x="991" y="174" on="0"/>
        <pt x="873" y="42" on="0"/>
        <pt x="709" y="-31" on="0"/>
        <pt x="610" y="-31" on="1"/>
        <pt x="541" y="-31" on="0"/>
        <pt x="429" y="-11" on="0"/>
        <pt x="383" y="4" on="1"/>
        <pt x="383" y="-299" on="1"/>
        <pt x="555" y="-299" on="1"/>
      </contour>
      <contour>
        <pt x="608" y="100" on="1"/>
        <pt x="678" y="100" on="0"/>
        <pt x="785" y="154" on="0"/>
        <pt x="857" y="252" on="0"/>
        <pt x="893" y="386" on="0"/>
        <pt x="893" y="467" on="1"/>
        <pt x="893" y="778" on="0"/>
        <pt x="616" y="778" on="1"/>
        <pt x="561" y="778" on="0"/>
        <pt x="475" y="754" on="0"/>
        <pt x="445" y="740" on="1"/>
        <pt x="410" y="723" on="0"/>
        <pt x="383" y="702" on="1"/>
        <pt x="383" y="152" on="1"/>
        <pt x="408" y="137" on="0"/>
        <pt x="441" y="126" on="1"/>
        <pt x="470" y="116" on="0"/>
        <pt x="553" y="100" on="0"/>
      </contour>
    </TTGlyph>
    <TTGlyph name="paragraph" xMin="70" yMin="0" xMax="1118" yMax="1206">
      <contour>
        <pt x="643" y="0" on="1"/>
        <pt x="305" y="0" on="1"/>
        <pt x="305" y="141" on="1"/>
        <pt x="504" y="141" on="1"/>
        <pt x="504" y="614" on="1"/>
        <pt x="430" y="614" on="1"/>
        <pt x="330" y="614" on="0"/>
        <pt x="193" y="653" on="0"/>
        <pt x="108" y="729" on="0"/>
        <pt x="70" y="844" on="0"/>
        <pt x="70" y="920" on="1"/>
        <pt x="70" y="991" on="0"/>
        <pt x="120" y="1098" on="0"/>
        <pt x="209" y="1170" on="0"/>
        <pt x="329" y="1206" on="0"/>
        <pt x="399" y="1206" on="1"/>
        <pt x="1118" y="1206" on="1"/>
        <pt x="1118" y="1065" on="1"/>
        <pt x="930" y="1065" on="1"/>
        <pt x="930" y="141" on="1"/>
        <pt x="1110" y="141" on="1"/>
        <pt x="1110" y="0" on="1"/>
        <pt x="790" y="0" on="1"/>
        <pt x="790" y="1065" on="1"/>
        <pt x="643" y="1065" on="1"/>
      </contour>
    </TTGlyph>
    <TTGlyph name="parenleft" xMin="92" yMin="-256" xMax="524" yMax="1335">
      <contour>
        <pt x="256" y="539" on="1"/>
        <pt x="256" y="483" on="0"/>
        <pt x="274" y="316" on="0"/>
        <pt x="331" y="127" on="0"/>
        <pt x="437" y="-70" on="0"/>
        <pt x="524" y="-156" on="1"/>
        <pt x="446" y="-256" on="1"/>
        <pt x="379" y="-213" on="0"/>
        <pt x="252" y="-55" on="0"/>
        <pt x="153" y="155" on="0"/>
        <pt x="92" y="404" on="0"/>
        <pt x="92" y="539" on="1"/>
        <pt x="92" y="674" on="0"/>
        <pt x="153" y="924" on="0"/>
        <pt x="252" y="1134" on="0"/>
        <pt x="379" y="1292" on="0"/>
        <pt x="446" y="1335" on="1"/>
        <pt x="524" y="1235" on="1"/>
        <pt x="466" y="1178" on="0"/>
        <pt x="381" y="1051" on="0"/>
        <pt x="321" y="922" on="0"/>
        <pt x="284" y="794" on="0"/>
        <pt x="263" y="677" on="0"/>
        <pt x="256" y="577" on="0"/>
      </contour>
    </TTGlyph>
    <TTGlyph name="parenright" xMin="58" yMin="-256" xMax="490" yMax="1335">
      <contour>
        <pt x="326" y="539" on="1"/>
        <pt x="326" y="577" on="0"/>
        <pt x="319" y="677" on="0"/>
        <pt x="298" y="794" on="0"/>
        <pt x="261" y="922" on="0"/>
        <pt x="201" y="1051" on="0"/>
        <pt x="116" y="1178" on="0"/>
        <pt x="58" y="1235" on="1"/>
        <pt x="136" y="1335" on="1"/>
        <pt x="203" y="1292" on="0"/>
        <pt x="330" y="1134" on="0"/>
        <pt x="429" y="924" on="0"/>
        <pt x="490" y="674" on="0"/>
        <pt x="490" y="539" on="1"/>
        <pt x="490" y="404" on="0"/>
        <pt x="429" y="155" on="0"/>
        <pt x="330" y="-55" on="0"/>
        <pt x="203" y="-213" on="0"/>
        <pt x="136" y="-256" on="1"/>
        <pt x="58" y="-156" on="1"/>
        <pt x="145" y="-70" on="0"/>
        <pt x="251" y="127" on="0"/>
        <pt x="308" y="316" on="0"/>
        <pt x="326" y="483" on="0"/>
      </contour>
    </TTGlyph>
    <TTGlyph name="percent" xMin="76" yMin="-43" xMax="1419" yMax="1237">
      <contour>
        <pt x="512" y="-43" on="1"/>
        <pt x="360" y="-43" on="1"/>
        <pt x="959" y="1237" on="1"/>
        <pt x="1108" y="1237" on="1"/>
      </contour>
      <contour>
        <pt x="209" y="877" on="1"/>
        <pt x="209" y="808" on="0"/>
        <pt x="231" y="721" on="0"/>
        <pt x="269" y="672" on="0"/>
        <pt x="319" y="653" on="0"/>
        <pt x="348" y="653" on="1"/>
        <pt x="376" y="653" on="0"/>
        <pt x="427" y="672" on="0"/>
        <pt x="465" y="721" on="0"/>
        <pt x="487" y="808" on="0"/>
        <pt x="487" y="877" on="1"/>
        <pt x="487" y="946" on="0"/>
        <pt x="465" y="1034" on="0"/>
        <pt x="427" y="1083" on="0"/>
        <pt x="376" y="1102" on="0"/>
        <pt x="348" y="1102" on="1"/>
        <pt x="319" y="1102" on="0"/>
        <pt x="269" y="1083" on="0"/>
        <pt x="231" y="1034" on="0"/>
        <pt x="209" y="946" on="0"/>
      </contour>
      <contour>
        <pt x="621" y="877" on="1"/>
        <pt x="621" y="777" on="0"/>
        <pt x="581" y="640" on="0"/>
        <pt x="509" y="555" on="0"/>
        <pt x="409" y="518" on="0"/>
        <pt x="348" y="518" on="1"/>
        <pt x="288" y="518" on="0"/>
        <pt x="188" y="555" on="0"/>
        <pt x="116" y="640" on="0"/>
        <pt x="76" y="777" on="0"/>
        <pt x="76" y="877" on="1"/>
        <pt x="76" y="977" on="0"/>
        <pt x="116" y="1115" on="0"/>
        <pt x="188" y="1200" on="0"/>
        <pt x="288" y="1237" on="0"/>
        <pt x="348" y="1237" on="1"/>
        <pt x="409" y="1237" on="0"/>
        <pt x="509" y="1200" on="0"/>
        <pt x="581" y="1115" on="0"/>
        <pt x="621" y="977" on="0"/>
      </contour>
      <contour>
        <pt x="1008" y="326" on="1"/>
        <pt x="1008" y="257" on="0"/>
        <pt x="1030" y="170" on="0"/>
        <pt x="1068" y="121" on="0"/>
        <pt x="1118" y="102" on="0"/>
        <pt x="1147" y="102" on="1"/>
        <pt x="1175" y="102" on="0"/>
        <pt x="1226" y="121" on="0"/>
        <pt x="1264" y="170" on="0"/>
        <pt x="1286" y="257" on="0"/>
        <pt x="1286" y="326" on="1"/>
        <pt x="1286" y="395" on="0"/>
        <pt x="1264" y="483" on="0"/>
        <pt x="1226" y="532" on="0"/>
        <pt x="1175" y="551" on="0"/>
        <pt x="1147" y="551" on="1"/>
        <pt x="1118" y="551" on="0"/>
        <pt x="1068" y="532" on="0"/>
        <pt x="1030" y="483" on="0"/>
        <pt x="1008" y="395" on="0"/>
      </contour>
      <contour>
        <pt x="1419" y="326" on="1"/>
        <pt x="1419" y="226" on="0"/>
        <pt x="1380" y="89" on="0"/>
        <pt x="1308" y="4" on="0"/>
        <pt x="1208" y="-33" on="0"/>
        <pt x="1147" y="-33" on="1"/>
        <pt x="1087" y="-33" on="0"/>
        <pt x="987" y="4" on="0"/>
        <pt x="915" y="89" on="0"/>
        <pt x="875" y="226" on="0"/>
        <pt x="875" y="326" on="1"/>
        <pt x="875" y="426" on="0"/>
        <pt x="915" y="564" on="0"/>
        <pt x="987" y="649" on="0"/>
        <pt x="1087" y="686" on="0"/>
        <pt x="1147" y="686" on="1"/>
        <pt x="1208" y="686" on="0"/>
        <pt x="1308" y="649" on="0"/>
        <pt x="1380" y="564" on="0"/>
        <pt x="1419" y="426" on="0"/>
      </contour>
    </TTGlyph>
    <TTGlyph name="period" xMin="127" yMin="-31" xMax="381" yMax="223">
      <contour>
        <pt x="381" y="96" on="1"/>
        <pt x="381" y="70" on="0"/>
        <pt x="360" y="24" on="0"/>
        <pt x="325" y="-11" on="0"/>
        <pt x="279" y="-31" on="0"/>
        <pt x="254" y="-31" on="1"/>
        <pt x="228" y="-31" on="0"/>
        <pt x="181" y="-11" on="0"/>
        <pt x="147" y="24" on="0"/>
        <pt x="127" y="70" on="0"/>
        <pt x="127" y="96" on="1"/>
        <pt x="127" y="121" on="0"/>
        <pt x="147" y="168" on="0"/>
        <pt x="181" y="202" on="0"/>
        <pt x="228" y="223" on="0"/>
        <pt x="254" y="223" on="1"/>
        <pt x="279" y="223" on="0"/>
        <pt x="325" y="202" on="0"/>
        <pt x="360" y="168" on="0"/>
        <pt x="381" y="121" on="0"/>
      </contour>
    </TTGlyph>
    <TTGlyph name="periodcentered" xMin="139" yMin="324" xMax="392" yMax="578">
      <contour>
        <pt x="392" y="451" on="1"/>
        <pt x="392" y="425" on="0"/>
        <pt x="371" y="378" on="0"/>
        <pt x="337" y="344" on="0"/>
        <pt x="291" y="324" on="0"/>
        <pt x="266" y="324" on="1"/>
        <pt x="240" y="324" on="0"/>
        <pt x="193" y="344" on="0"/>
        <pt x="159" y="378" on="0"/>
        <pt x="139" y="425" on="0"/>
        <pt x="139" y="451" on="1"/>
        <pt x="139" y="477" on="0"/>
        <pt x="159" y="523" on="0"/>
        <pt x="193" y="558" on="0"/>
        <pt x="240" y="578" on="0"/>
        <pt x="266" y="578" on="1"/>
        <pt x="291" y="578" on="0"/>
        <pt x="337" y="558" on="0"/>
        <pt x="371" y="523" on="0"/>
        <pt x="392" y="477" on="0"/>
      </contour>
    </TTGlyph>
    <TTGlyph name="plus" xMin="95" yMin="240" xMax="857" yMax="1001">
      <contour>
        <pt x="95" y="692" on="1"/>
        <pt x="398" y="692" on="1"/>
        <pt x="398" y="1001" on="1"/>
        <pt x="552" y="1001" on="1"/>
        <pt x="552" y="692" on="1"/>
        <pt x="857" y="692" on="1"/>
        <pt x="857" y="551" on="1"/>
        <pt x="552" y="551" on="1"/>
        <pt x="552" y="240" on="1"/>
        <pt x="398" y="240" on="1"/>
        <pt x="398" y="551" on="1"/>
        <pt x="95" y="551" on="1"/>
      </contour>
    </TTGlyph>
    <TTGlyph name="plusminus" xMin="150" yMin="139" xMax="912" yMax="1171">
      <contour>
        <pt x="150" y="862" on="1"/>
        <pt x="454" y="862" on="1"/>
        <pt x="454" y="1171" on="1"/>
        <pt x="607" y="1171" on="1"/>
        <pt x="607" y="862" on="1"/>
        <pt x="912" y="862" on="1"/>
        <pt x="912" y="721" on="1"/>
        <pt x="607" y="721" on="1"/>
        <pt x="607" y="410" on="1"/>
        <pt x="454" y="410" on="1"/>
        <pt x="454" y="721" on="1"/>
        <pt x="150" y="721" on="1"/>
      </contour>
      <contour>
        <pt x="150" y="281" on="1"/>
        <pt x="912" y="281" on="1"/>
        <pt x="912" y="139" on="1"/>
        <pt x="150" y="139" on="1"/>
      </contour>
    </TTGlyph>
    <TTGlyph name="q" xMin="92" yMin="-426" xMax="1100" yMax="909">
      <contour>
        <pt x="596" y="-299" on="1"/>
        <pt x="768" y="-299" on="1"/>
        <pt x="768" y="35" on="1"/>
        <pt x="722" y="9" on="0"/>
        <pt x="607" y="-31" on="0"/>
        <pt x="539" y="-31" on="1"/>
        <pt x="440" y="-31" on="0"/>
        <pt x="276" y="40" on="0"/>
        <pt x="157" y="169" on="0"/>
        <pt x="92" y="349" on="0"/>
        <pt x="92" y="459" on="1"/>
        <pt x="92" y="558" on="0"/>
        <pt x="161" y="723" on="0"/>
        <pt x="282" y="843" on="0"/>
        <pt x="445" y="909" on="0"/>
        <pt x="539" y="909" on="1"/>
        <pt x="627" y="909" on="0"/>
        <pt x="770" y="873" on="0"/>
        <pt x="872" y="830" on="0"/>
        <pt x="927" y="794" on="0"/>
        <pt x="928" y="793" on="1"/>
        <pt x="928" y="-299" on="1"/>
        <pt x="1100" y="-299" on="1"/>
        <pt x="1100" y="-426" on="1"/>
        <pt x="596" y="-426" on="1"/>
      </contour>
      <contour>
        <pt x="541" y="778" on="1"/>
        <pt x="476" y="778" on="0"/>
        <pt x="370" y="730" on="0"/>
        <pt x="296" y="645" on="0"/>
        <pt x="256" y="529" on="0"/>
        <pt x="256" y="461" on="1"/>
        <pt x="256" y="380" on="0"/>
        <pt x="292" y="247" on="0"/>
        <pt x="363" y="152" on="0"/>
        <pt x="470" y="100" on="0"/>
        <pt x="541" y="100" on="1"/>
        <pt x="579" y="100" on="0"/>
        <pt x="648" y="116" on="0"/>
        <pt x="707" y="139" on="0"/>
        <pt x="753" y="166" on="0"/>
        <pt x="768" y="178" on="1"/>
        <pt x="768" y="725" on="1"/>
        <pt x="767" y="726" on="0"/>
        <pt x="737" y="742" on="0"/>
        <pt x="679" y="762" on="0"/>
        <pt x="595" y="778" on="0"/>
      </contour>
    </TTGlyph>
    <TTGlyph name="question" xMin="68" yMin="-31" xMax="815" yMax="1235">
      <contour>
        <pt x="68" y="905" on="1"/>
        <pt x="102" y="1157" on="1"/>
        <pt x="133" y="1178" on="0"/>
        <pt x="181" y="1196" on="1"/>
        <pt x="222" y="1210" on="0"/>
        <pt x="348" y="1235" on="0"/>
        <pt x="438" y="1235" on="1"/>
        <pt x="541" y="1235" on="0"/>
        <pt x="685" y="1177" on="0"/>
        <pt x="775" y="1092" on="0"/>
        <pt x="815" y="994" on="0"/>
        <pt x="815" y="954" on="1"/>
        <pt x="815" y="904" on="0"/>
        <pt x="786" y="822" on="0"/>
        <pt x="727" y="750" on="0"/>
        <pt x="640" y="686" on="0"/>
        <pt x="582" y="655" on="1"/>
        <pt x="551" y="638" on="0"/>
        <pt x="494" y="611" on="0"/>
        <pt x="449" y="582" on="0"/>
        <pt x="422" y="550" on="0"/>
        <pt x="422" y="528" on="1"/>
        <pt x="422" y="508" on="0"/>
        <pt x="441" y="476" on="0"/>
        <pt x="468" y="451" on="0"/>
        <pt x="500" y="433" on="0"/>
        <pt x="512" y="426" on="1"/>
        <pt x="432" y="317" on="1"/>
        <pt x="431" y="318" on="0"/>
        <pt x="406" y="330" on="0"/>
        <pt x="369" y="354" on="0"/>
        <pt x="326" y="390" on="0"/>
        <pt x="290" y="439" on="0"/>
        <pt x="266" y="503" on="0"/>
        <pt x="266" y="543" on="1"/>
        <pt x="266" y="592" on="0"/>
        <pt x="311" y="665" on="0"/>
        <pt x="373" y="717" on="0"/>
        <pt x="438" y="752" on="0"/>
        <pt x="459" y="764" on="1"/>
        <pt x="558" y="817" on="0"/>
        <pt x="609" y="859" on="0"/>
        <pt x="641" y="915" on="0"/>
        <pt x="641" y="956" on="1"/>
        <pt x="641" y="977" on="0"/>
        <pt x="618" y="1027" on="0"/>
        <pt x="568" y="1069" on="0"/>
        <pt x="491" y="1098" on="0"/>
        <pt x="436" y="1098" on="1"/>
        <pt x="362" y="1098" on="0"/>
        <pt x="261" y="1077" on="0"/>
        <pt x="229" y="1063" on="1"/>
        <pt x="203" y="891" on="1"/>
      </contour>
      <contour>
        <pt x="551" y="96" on="1"/>
        <pt x="551" y="70" on="0"/>
        <pt x="530" y="24" on="0"/>
        <pt x="496" y="-11" on="0"/>
        <pt x="449" y="-31" on="0"/>
        <pt x="424" y="-31" on="1"/>
        <pt x="398" y="-31" on="0"/>
        <pt x="351" y="-11" on="0"/>
        <pt x="317" y="24" on="0"/>
        <pt x="297" y="70" on="0"/>
        <pt x="297" y="96" on="1"/>
        <pt x="297" y="121" on="0"/>
        <pt x="317" y="168" on="0"/>
        <pt x="351" y="202" on="0"/>
        <pt x="398" y="223" on="0"/>
        <pt x="424" y="223" on="1"/>
        <pt x="449" y="223" on="0"/>
        <pt x="496" y="202" on="0"/>
        <pt x="530" y="168" on="0"/>
        <pt x="551" y="121" on="0"/>
      </contour>
    </TTGlyph>
</ttFont>
